{"glyphs":{"0":{"ha":740,"x_min":89,"x_max":651,"o":"m 369 -15 q 162 89 235 -15 q 89 388 89 193 q 162 690 89 583 q 369 796 235 796 q 578 690 506 796 q 651 388 651 583 q 578 89 651 193 q 369 -15 506 -15 m 367 14 q 549 110 486 14 q 613 388 613 207 q 550 668 613 571 q 369 765 488 765 q 190 668 253 765 q 128 388 128 571 q 190 110 128 207 q 367 14 251 14 z "},"1":{"ha":382,"x_min":69,"x_max":332,"o":"m 71 31 l 182 31 l 182 739 l 71 710 l 69 742 l 221 782 l 221 31 l 332 31 l 332 0 l 71 0 l 71 31 z "},"2":{"ha":658,"x_min":82,"x_max":564,"o":"m 564 174 l 564 0 l 82 0 l 82 33 l 358 308 q 487 460 450 400 q 524 586 524 521 q 473 717 524 668 q 332 765 422 765 q 184 716 239 765 q 129 581 129 667 q 140 497 129 538 l 103 497 q 90 583 90 542 q 156 738 90 679 q 332 796 222 796 q 501 740 439 796 q 563 586 563 683 q 521 449 563 514 q 382 286 479 383 l 126 33 l 526 33 l 526 174 l 564 174 z "},"3":{"ha":642,"x_min":42,"x_max":567,"o":"m 369 411 q 515 346 464 400 q 567 204 567 292 q 497 46 567 106 q 314 -14 428 -14 q 42 138 117 -14 l 72 158 q 167 53 107 86 q 314 19 226 19 q 468 69 410 19 q 526 203 526 118 q 459 347 526 297 q 264 396 392 396 l 264 426 q 453 469 389 426 q 518 593 518 513 q 466 719 518 675 q 317 764 414 764 q 171 728 232 764 q 81 625 110 692 l 50 639 q 150 755 81 714 q 317 796 219 796 q 494 743 432 796 q 557 593 557 690 q 508 468 557 515 q 369 411 460 421 z "},"4":{"ha":615,"x_min":28,"x_max":574,"o":"m 271 31 l 396 31 l 396 207 l 35 207 l 28 236 l 404 782 l 435 782 l 435 238 l 574 238 l 574 207 l 435 207 l 435 31 l 532 31 l 532 0 l 271 0 l 271 31 m 396 238 l 396 714 l 68 238 l 396 238 z "},"5":{"ha":660,"x_min":56,"x_max":596,"o":"m 342 494 q 528 426 461 494 q 596 242 596 358 q 523 54 596 124 q 324 -15 450 -15 q 175 19 244 -15 q 56 115 106 53 l 82 139 q 189 49 125 81 q 324 18 253 18 q 497 78 438 18 q 557 242 557 138 q 500 403 557 346 q 340 461 443 461 q 225 440 275 461 q 132 376 175 418 l 94 393 l 104 782 l 567 782 l 567 618 l 528 618 l 528 750 l 139 750 l 129 417 q 342 494 222 494 z "},"6":{"ha":572,"x_min":39,"x_max":531,"o":"m 289 457 q 465 393 399 457 q 531 222 531 329 q 463 49 531 114 q 281 -15 396 -15 q 156 15 211 -15 q 70 98 101 44 q 39 219 39 151 q 57 327 39 278 q 107 429 75 376 l 344 835 l 381 815 l 129 399 q 206 442 161 426 q 289 457 250 457 m 282 15 q 435 71 379 15 q 492 221 492 126 q 436 371 492 315 q 286 426 381 426 q 185 401 233 426 q 108 326 138 375 q 79 213 79 278 q 135 70 79 125 q 282 15 192 15 z "},"7":{"ha":574,"x_min":14,"x_max":510,"o":"m 469 751 l 53 751 l 53 590 l 14 590 l 14 782 l 510 782 l 510 753 l 251 0 l 214 0 l 469 751 z "},"8":{"ha":611,"x_min":50,"x_max":561,"o":"m 306 -15 q 119 43 188 -15 q 50 201 50 101 q 92 344 50 286 q 217 415 135 403 q 110 485 143 440 q 76 600 76 531 q 138 743 76 690 q 301 796 199 796 q 472 744 410 796 q 535 600 535 692 q 498 473 535 525 q 389 408 461 421 q 516 338 471 393 q 561 201 561 283 q 492 43 561 101 q 306 -15 424 -15 m 368 424 q 464 481 432 442 q 496 599 496 519 q 445 719 496 675 q 306 764 394 764 q 167 719 218 764 q 117 599 117 675 q 176 472 117 515 q 368 424 235 429 m 306 17 q 463 67 404 17 q 521 201 521 117 q 460 344 521 294 q 253 401 399 393 q 90 201 90 376 q 149 67 90 117 q 306 17 207 17 z "},"9":{"ha":572,"x_min":39,"x_max":531,"o":"m 289 797 q 413 767 358 797 q 499 684 468 738 q 531 563 531 631 q 513 455 531 504 q 463 353 494 406 l 225 -53 l 189 -33 l 440 383 q 364 340 408 356 q 281 325 319 325 q 105 389 171 325 q 39 560 39 453 q 106 733 39 668 q 289 797 174 797 m 283 356 q 384 381 336 356 q 461 456 432 407 q 490 569 490 504 q 434 712 490 657 q 288 767 378 767 q 134 711 190 767 q 78 561 78 656 q 133 411 78 467 q 283 356 189 356 z "},"\u0000":{"ha":0,"x_min":0,"x_max":0,"o":""},"\r":{"ha":374,"x_min":0,"x_max":0,"o":""}," ":{"ha":374,"x_min":0,"x_max":0,"o":""},"A":{"ha":938,"x_min":58,"x_max":879,"o":"m 58 31 l 164 31 l 432 751 l 333 751 l 333 782 l 608 782 l 608 751 l 507 751 l 775 31 l 879 31 l 879 0 l 631 0 l 631 31 l 731 31 l 622 326 l 315 326 l 206 31 l 307 31 l 307 0 l 58 0 l 58 31 m 613 356 l 469 747 l 467 747 l 324 356 l 613 356 z "},"Á":{"ha":938,"x_min":58,"x_max":879,"o":"m 58 31 l 164 31 l 432 751 l 333 751 l 333 782 l 608 782 l 608 751 l 507 751 l 775 31 l 879 31 l 879 0 l 631 0 l 631 31 l 731 31 l 622 326 l 315 326 l 206 31 l 307 31 l 307 0 l 58 0 l 58 31 m 613 356 l 469 747 l 467 747 l 324 356 l 613 356 m 524 1078 l 565 1078 l 483 907 l 463 907 l 524 1078 z "},"Ă":{"ha":938,"x_min":58,"x_max":879,"o":"m 58 31 l 164 31 l 432 751 l 333 751 l 333 782 l 608 782 l 608 751 l 507 751 l 775 31 l 879 31 l 879 0 l 631 0 l 631 31 l 731 31 l 622 326 l 315 326 l 206 31 l 307 31 l 307 0 l 58 0 l 58 31 m 613 356 l 469 747 l 467 747 l 324 356 l 613 356 m 469 907 q 403 931 429 907 q 369 1000 378 954 l 396 1000 q 469 936 413 936 q 542 1000 524 936 l 568 1000 q 469 907 551 907 z "},"Ắ":{"ha":938,"x_min":58,"x_max":879,"o":"m 58 31 l 164 31 l 432 751 l 333 751 l 333 782 l 608 782 l 608 751 l 507 751 l 775 31 l 879 31 l 879 0 l 631 0 l 631 31 l 731 31 l 622 326 l 315 326 l 206 31 l 307 31 l 307 0 l 58 0 l 58 31 m 613 356 l 469 747 l 467 747 l 324 356 l 613 356 m 508 1119 l 550 1119 l 468 990 l 447 990 l 508 1119 m 469 879 q 401 903 428 879 q 369 972 375 928 l 400 972 q 424 924 406 940 q 469 908 443 908 q 514 924 496 908 q 538 972 532 940 l 568 972 q 537 903 563 928 q 469 879 511 879 z "},"Ặ":{"ha":938,"x_min":58,"x_max":879,"o":"m 58 31 l 164 31 l 432 751 l 333 751 l 333 782 l 608 782 l 608 751 l 507 751 l 775 31 l 879 31 l 879 0 l 631 0 l 631 31 l 731 31 l 622 326 l 315 326 l 206 31 l 307 31 l 307 0 l 58 0 l 58 31 m 613 356 l 469 747 l 467 747 l 324 356 l 613 356 m 469 907 q 403 931 429 907 q 369 1000 378 954 l 396 1000 q 469 936 413 936 q 542 1000 524 936 l 568 1000 q 469 907 551 907 m 469 -149 q 438 -137 449 -149 q 428 -111 428 -125 q 438 -83 428 -94 q 469 -72 449 -72 q 501 -83 490 -72 q 511 -111 511 -94 q 500 -137 511 -125 q 469 -149 489 -149 z "},"Ằ":{"ha":938,"x_min":58,"x_max":879,"o":"m 58 31 l 164 31 l 432 751 l 333 751 l 333 782 l 608 782 l 608 751 l 507 751 l 775 31 l 879 31 l 879 0 l 631 0 l 631 31 l 731 31 l 622 326 l 315 326 l 206 31 l 307 31 l 307 0 l 58 0 l 58 31 m 613 356 l 469 747 l 467 747 l 324 356 l 613 356 m 388 1119 l 429 1119 l 490 990 l 469 990 l 388 1119 m 469 879 q 401 903 428 879 q 369 972 375 928 l 400 972 q 424 924 406 940 q 469 908 443 908 q 514 924 496 908 q 538 972 532 940 l 568 972 q 537 903 563 928 q 469 879 511 879 z "},"Ẳ":{"ha":938,"x_min":58,"x_max":879,"o":"m 58 31 l 164 31 l 432 751 l 333 751 l 333 782 l 608 782 l 608 751 l 507 751 l 775 31 l 879 31 l 879 0 l 631 0 l 631 31 l 731 31 l 622 326 l 315 326 l 206 31 l 307 31 l 307 0 l 58 0 l 58 31 m 613 356 l 469 747 l 467 747 l 324 356 l 613 356 m 460 1000 q 500 1049 500 1015 q 488 1078 500 1068 q 453 1089 475 1089 q 397 1071 426 1089 l 385 1099 q 456 1121 422 1121 q 513 1101 492 1121 q 535 1051 535 1082 q 471 974 535 996 l 460 1000 m 471 879 q 403 903 429 879 q 371 972 376 928 l 401 972 q 426 924 407 940 q 471 908 444 908 q 515 924 497 908 q 539 972 533 940 l 569 972 q 538 903 564 928 q 471 879 513 879 z "},"Ẵ":{"ha":938,"x_min":58,"x_max":879,"o":"m 58 31 l 164 31 l 432 751 l 333 751 l 333 782 l 608 782 l 608 751 l 507 751 l 775 31 l 879 31 l 879 0 l 631 0 l 631 31 l 731 31 l 622 326 l 315 326 l 206 31 l 307 31 l 307 0 l 58 0 l 58 31 m 613 356 l 469 747 l 467 747 l 324 356 l 613 356 m 531 1008 q 501 1014 515 1008 q 465 1031 486 1019 q 434 1045 450 1039 q 404 1051 418 1051 q 371 1010 371 1051 l 343 1010 q 361 1061 343 1040 q 408 1082 379 1082 q 438 1076 424 1082 q 474 1060 453 1071 q 532 1039 510 1039 q 556 1049 547 1039 q 565 1079 565 1060 l 593 1079 q 531 1008 593 1008 m 469 879 q 401 903 428 879 q 369 972 375 928 l 400 972 q 424 924 406 940 q 469 908 443 908 q 514 924 496 908 q 538 972 532 940 l 568 972 q 537 903 563 928 q 469 879 511 879 z "},"Ǎ":{"ha":938,"x_min":58,"x_max":879,"o":"m 58 31 l 164 31 l 432 751 l 333 751 l 333 782 l 608 782 l 608 751 l 507 751 l 775 31 l 879 31 l 879 0 l 631 0 l 631 31 l 731 31 l 622 326 l 315 326 l 206 31 l 307 31 l 307 0 l 58 0 l 58 31 m 613 356 l 469 747 l 467 747 l 324 356 l 613 356 m 338 1101 l 371 1101 l 469 925 l 568 1101 l 600 1101 l 483 893 l 457 893 l 338 1101 z "},"Â":{"ha":938,"x_min":58,"x_max":879,"o":"m 58 31 l 164 31 l 432 751 l 333 751 l 333 782 l 608 782 l 608 751 l 507 751 l 775 31 l 879 31 l 879 0 l 631 0 l 631 31 l 731 31 l 622 326 l 315 326 l 206 31 l 307 31 l 307 0 l 58 0 l 58 31 m 613 356 l 469 747 l 467 747 l 324 356 l 613 356 m 456 1075 l 485 1075 l 603 865 l 569 865 l 469 1046 l 369 865 l 336 865 l 456 1075 z "},"Ấ":{"ha":938,"x_min":58,"x_max":879,"o":"m 58 31 l 164 31 l 432 751 l 333 751 l 333 782 l 608 782 l 608 751 l 507 751 l 775 31 l 879 31 l 879 0 l 631 0 l 631 31 l 731 31 l 622 326 l 315 326 l 206 31 l 307 31 l 307 0 l 58 0 l 58 31 m 613 356 l 469 747 l 467 747 l 324 356 l 613 356 m 611 1142 l 650 1142 l 576 986 l 554 986 l 611 1142 m 456 1033 l 485 1033 l 603 865 l 569 865 l 469 1004 l 369 865 l 336 865 l 456 1033 z "},"Ậ":{"ha":938,"x_min":58,"x_max":879,"o":"m 58 31 l 164 31 l 432 751 l 333 751 l 333 782 l 608 782 l 608 751 l 507 751 l 775 31 l 879 31 l 879 0 l 631 0 l 631 31 l 731 31 l 622 326 l 315 326 l 206 31 l 307 31 l 307 0 l 58 0 l 58 31 m 613 356 l 469 747 l 467 747 l 324 356 l 613 356 m 456 1075 l 485 1075 l 603 865 l 569 865 l 469 1046 l 369 865 l 336 865 l 456 1075 m 469 -149 q 438 -137 449 -149 q 428 -111 428 -125 q 438 -83 428 -94 q 469 -72 449 -72 q 501 -83 490 -72 q 511 -111 511 -94 q 500 -137 511 -125 q 469 -149 489 -149 z "},"Ầ":{"ha":938,"x_min":58,"x_max":879,"o":"m 58 31 l 164 31 l 432 751 l 333 751 l 333 782 l 608 782 l 608 751 l 507 751 l 775 31 l 879 31 l 879 0 l 631 0 l 631 31 l 731 31 l 622 326 l 315 326 l 206 31 l 307 31 l 307 0 l 58 0 l 58 31 m 613 356 l 469 747 l 467 747 l 324 356 l 613 356 m 572 986 l 499 1142 l 538 1142 l 594 986 l 572 986 m 456 1033 l 485 1033 l 603 865 l 569 865 l 469 1004 l 369 865 l 336 865 l 456 1033 z "},"Ẩ":{"ha":938,"x_min":58,"x_max":879,"o":"m 58 31 l 164 31 l 432 751 l 333 751 l 333 782 l 608 782 l 608 751 l 507 751 l 775 31 l 879 31 l 879 0 l 631 0 l 631 31 l 731 31 l 622 326 l 315 326 l 206 31 l 307 31 l 307 0 l 58 0 l 58 31 m 613 356 l 469 747 l 467 747 l 324 356 l 613 356 m 551 1010 q 592 1058 592 1026 q 579 1088 592 1078 q 544 1099 567 1099 q 485 1081 517 1099 l 471 1111 q 547 1131 510 1131 q 605 1111 583 1131 q 626 1061 626 1092 q 611 1012 626 1031 q 564 981 596 993 l 551 1010 m 456 1033 l 485 1033 l 603 865 l 569 865 l 469 1004 l 369 865 l 336 865 l 456 1033 z "},"Ẫ":{"ha":938,"x_min":58,"x_max":879,"o":"m 58 31 l 164 31 l 432 751 l 333 751 l 333 782 l 608 782 l 608 751 l 507 751 l 775 31 l 879 31 l 879 0 l 631 0 l 631 31 l 731 31 l 622 326 l 315 326 l 206 31 l 307 31 l 307 0 l 58 0 l 58 31 m 613 356 l 469 747 l 467 747 l 324 356 l 613 356 m 531 1056 q 501 1061 515 1056 q 465 1078 486 1067 q 434 1092 450 1086 q 404 1099 418 1099 q 371 1057 371 1099 l 343 1057 q 361 1108 343 1088 q 408 1129 379 1129 q 438 1124 424 1129 q 474 1107 453 1118 q 532 1086 510 1086 q 556 1097 547 1086 q 565 1126 565 1107 l 593 1126 q 531 1056 593 1056 m 456 1033 l 485 1033 l 603 865 l 569 865 l 469 1004 l 369 865 l 336 865 l 456 1033 z "},"Ȁ":{"ha":938,"x_min":58,"x_max":879,"o":"m 58 31 l 164 31 l 432 751 l 333 751 l 333 782 l 608 782 l 608 751 l 507 751 l 775 31 l 879 31 l 879 0 l 631 0 l 631 31 l 731 31 l 622 326 l 315 326 l 206 31 l 307 31 l 307 0 l 58 0 l 58 31 m 613 356 l 469 747 l 467 747 l 324 356 l 613 356 m 288 1108 l 329 1108 l 401 907 l 381 907 l 288 1108 m 419 1108 l 460 1108 l 533 907 l 513 907 l 419 1108 z "},"Ä":{"ha":938,"x_min":58,"x_max":879,"o":"m 58 31 l 164 31 l 432 751 l 333 751 l 333 782 l 608 782 l 608 751 l 507 751 l 775 31 l 879 31 l 879 0 l 631 0 l 631 31 l 731 31 l 622 326 l 315 326 l 206 31 l 307 31 l 307 0 l 58 0 l 58 31 m 613 356 l 469 747 l 467 747 l 324 356 l 613 356 m 360 908 q 338 917 346 908 q 329 939 329 925 q 338 960 329 953 q 360 968 346 968 q 382 960 374 968 q 390 939 390 953 q 382 917 390 925 q 360 908 374 908 m 579 908 q 557 916 565 908 q 549 938 549 924 q 557 960 549 951 q 579 968 565 968 q 601 960 593 968 q 610 938 610 951 q 601 916 610 924 q 579 908 593 908 z "},"Ȧ":{"ha":938,"x_min":58,"x_max":879,"o":"m 58 31 l 164 31 l 432 751 l 333 751 l 333 782 l 608 782 l 608 751 l 507 751 l 775 31 l 879 31 l 879 0 l 631 0 l 631 31 l 731 31 l 622 326 l 315 326 l 206 31 l 307 31 l 307 0 l 58 0 l 58 31 m 613 356 l 469 747 l 467 747 l 324 356 l 613 356 m 469 907 q 438 919 449 907 q 428 944 428 931 q 438 972 428 961 q 469 983 449 983 q 501 972 490 983 q 511 944 511 961 q 500 919 511 931 q 469 907 489 907 z "},"Ạ":{"ha":938,"x_min":58,"x_max":879,"o":"m 58 31 l 164 31 l 432 751 l 333 751 l 333 782 l 608 782 l 608 751 l 507 751 l 775 31 l 879 31 l 879 0 l 631 0 l 631 31 l 731 31 l 622 326 l 315 326 l 206 31 l 307 31 l 307 0 l 58 0 l 58 31 m 613 356 l 469 747 l 467 747 l 324 356 l 613 356 m 469 -149 q 438 -137 449 -149 q 428 -111 428 -125 q 438 -83 428 -94 q 469 -72 449 -72 q 501 -83 490 -72 q 511 -111 511 -94 q 500 -137 511 -125 q 469 -149 489 -149 z "},"À":{"ha":938,"x_min":58,"x_max":879,"o":"m 58 31 l 164 31 l 432 751 l 333 751 l 333 782 l 608 782 l 608 751 l 507 751 l 775 31 l 879 31 l 879 0 l 631 0 l 631 31 l 731 31 l 622 326 l 315 326 l 206 31 l 307 31 l 307 0 l 58 0 l 58 31 m 613 356 l 469 747 l 467 747 l 324 356 l 613 356 m 374 1078 l 415 1078 l 476 907 l 454 907 l 374 1078 z "},"Ả":{"ha":938,"x_min":58,"x_max":879,"o":"m 58 31 l 164 31 l 432 751 l 333 751 l 333 782 l 608 782 l 608 751 l 507 751 l 775 31 l 879 31 l 879 0 l 631 0 l 631 31 l 731 31 l 622 326 l 315 326 l 206 31 l 307 31 l 307 0 l 58 0 l 58 31 m 613 356 l 469 747 l 467 747 l 324 356 l 613 356 m 457 874 q 497 922 497 890 q 485 952 497 942 q 450 963 472 963 q 390 944 422 963 l 376 975 q 453 994 415 994 q 510 975 489 994 q 532 925 532 956 q 517 876 532 894 q 469 844 501 857 l 457 874 z "},"Ȃ":{"ha":938,"x_min":58,"x_max":879,"o":"m 58 31 l 164 31 l 432 751 l 333 751 l 333 782 l 608 782 l 608 751 l 507 751 l 775 31 l 879 31 l 879 0 l 631 0 l 631 31 l 731 31 l 622 326 l 315 326 l 206 31 l 307 31 l 307 0 l 58 0 l 58 31 m 613 356 l 469 747 l 467 747 l 324 356 l 613 356 m 369 893 q 469 986 389 986 q 569 893 553 986 l 542 893 q 469 956 524 956 q 397 893 414 956 l 369 893 z "},"Ā":{"ha":938,"x_min":58,"x_max":879,"o":"m 58 31 l 164 31 l 432 751 l 333 751 l 333 782 l 608 782 l 608 751 l 507 751 l 775 31 l 879 31 l 879 0 l 631 0 l 631 31 l 731 31 l 622 326 l 315 326 l 206 31 l 307 31 l 307 0 l 58 0 l 58 31 m 613 356 l 469 747 l 467 747 l 324 356 l 613 356 m 342 935 l 597 935 l 597 907 l 342 907 l 342 935 z "},"Ą":{"ha":938,"x_min":58,"x_max":879,"o":"m 58 31 l 164 31 l 432 751 l 333 751 l 333 782 l 608 782 l 608 751 l 507 751 l 775 31 l 879 31 l 879 0 l 631 0 l 631 31 l 731 31 l 622 326 l 315 326 l 206 31 l 307 31 l 307 0 l 58 0 l 58 31 m 613 356 l 469 747 l 467 747 l 324 356 l 613 356 m 757 -212 q 693 -190 719 -212 q 667 -129 667 -168 q 743 0 667 -65 l 774 0 q 723 -62 740 -33 q 706 -119 706 -92 q 723 -166 706 -150 q 768 -182 740 -182 q 833 -158 801 -182 l 833 -186 q 757 -212 796 -212 z "},"Å":{"ha":938,"x_min":58,"x_max":879,"o":"m 58 31 l 164 31 l 432 751 l 333 751 l 333 782 l 608 782 l 608 751 l 507 751 l 775 31 l 879 31 l 879 0 l 631 0 l 631 31 l 731 31 l 622 326 l 315 326 l 206 31 l 307 31 l 307 0 l 58 0 l 58 31 m 613 356 l 469 747 l 467 747 l 324 356 l 613 356 m 471 879 q 410 900 432 879 q 388 956 388 921 q 409 1015 388 993 q 469 1036 431 1036 q 530 1015 508 1036 q 551 958 551 994 q 531 901 551 922 q 471 879 510 879 m 471 900 q 511 916 496 900 q 526 958 526 932 q 511 999 526 985 q 471 1014 496 1014 q 429 999 444 1014 q 414 958 414 985 q 429 915 414 931 q 471 900 444 900 z "},"Ǻ":{"ha":938,"x_min":58,"x_max":879,"o":"m 58 31 l 164 31 l 432 751 l 333 751 l 333 782 l 608 782 l 608 751 l 507 751 l 775 31 l 879 31 l 879 0 l 631 0 l 631 31 l 731 31 l 622 326 l 315 326 l 206 31 l 307 31 l 307 0 l 58 0 l 58 31 m 613 356 l 469 747 l 467 747 l 324 356 l 613 356 m 471 879 q 410 900 432 879 q 388 956 388 921 q 409 1015 388 993 q 469 1036 431 1036 q 530 1015 508 1036 q 551 958 551 994 q 531 901 551 922 q 471 879 510 879 m 471 900 q 511 916 496 900 q 526 958 526 932 q 511 999 526 985 q 471 1014 496 1014 q 429 999 444 1014 q 414 958 414 985 q 429 915 414 931 q 471 900 444 900 m 524 1257 l 565 1257 l 483 1086 l 463 1086 l 524 1257 z "},"Ã":{"ha":938,"x_min":58,"x_max":879,"o":"m 58 31 l 164 31 l 432 751 l 333 751 l 333 782 l 608 782 l 608 751 l 507 751 l 775 31 l 879 31 l 879 0 l 631 0 l 631 31 l 731 31 l 622 326 l 315 326 l 206 31 l 307 31 l 307 0 l 58 0 l 58 31 m 613 356 l 469 747 l 467 747 l 324 356 l 613 356 m 543 907 q 509 914 525 907 q 468 936 493 921 q 426 957 442 950 q 396 964 411 964 q 358 908 358 964 l 331 908 q 348 970 331 946 q 396 994 365 994 q 430 988 414 994 q 471 965 446 981 q 513 944 497 951 q 543 938 528 938 q 571 951 561 938 q 581 992 581 964 l 608 992 q 593 928 608 949 q 543 907 578 907 z "},"Æ":{"ha":1360,"x_min":44,"x_max":1304,"o":"m 44 31 l 164 31 l 574 751 l 479 751 l 479 782 l 1154 782 l 1192 515 l 1157 515 l 1122 751 l 663 751 l 714 400 l 1010 400 l 992 517 l 1021 517 l 1068 238 l 1039 238 l 1015 369 l 718 369 l 768 31 l 1264 31 l 1229 265 l 1264 265 l 1304 0 l 615 0 l 615 31 l 725 31 l 685 294 l 360 294 l 213 31 l 313 31 l 313 0 l 44 0 l 44 31 m 682 324 l 619 751 l 613 751 l 376 324 l 682 324 z "},"Ǽ":{"ha":1360,"x_min":44,"x_max":1304,"o":"m 44 31 l 164 31 l 574 751 l 479 751 l 479 782 l 1154 782 l 1192 515 l 1157 515 l 1122 751 l 663 751 l 714 400 l 1010 400 l 992 517 l 1021 517 l 1068 238 l 1039 238 l 1015 369 l 718 369 l 768 31 l 1264 31 l 1229 265 l 1264 265 l 1304 0 l 615 0 l 615 31 l 725 31 l 685 294 l 360 294 l 213 31 l 313 31 l 313 0 l 44 0 l 44 31 m 682 324 l 619 751 l 613 751 l 376 324 l 682 324 m 839 1078 l 881 1078 l 799 907 l 778 907 l 839 1078 z "},"Ǣ":{"ha":1360,"x_min":44,"x_max":1304,"o":"m 44 31 l 164 31 l 574 751 l 479 751 l 479 782 l 1154 782 l 1192 515 l 1157 515 l 1122 751 l 663 751 l 714 400 l 1010 400 l 992 517 l 1021 517 l 1068 238 l 1039 238 l 1015 369 l 718 369 l 768 31 l 1264 31 l 1229 265 l 1264 265 l 1304 0 l 615 0 l 615 31 l 725 31 l 685 294 l 360 294 l 213 31 l 313 31 l 313 0 l 44 0 l 44 31 m 682 324 l 619 751 l 613 751 l 376 324 l 682 324 m 657 935 l 913 935 l 913 907 l 657 907 l 657 935 z "},"B":{"ha":879,"x_min":83,"x_max":801,"o":"m 83 31 l 201 31 l 201 751 l 83 751 l 83 782 l 525 782 q 696 734 638 782 q 754 592 754 686 q 723 472 754 521 q 636 414 692 424 q 763 344 725 399 q 801 214 801 289 q 744 59 801 118 q 589 0 688 0 l 83 0 l 83 31 m 564 426 q 678 471 642 426 q 715 590 715 515 q 667 713 715 674 q 521 751 618 751 l 243 751 l 243 426 l 564 426 m 586 31 q 714 81 667 31 q 761 215 761 132 q 713 346 761 296 q 567 396 664 396 l 243 396 l 243 31 l 586 31 z "},"Ḃ":{"ha":879,"x_min":83,"x_max":801,"o":"m 83 31 l 201 31 l 201 751 l 83 751 l 83 782 l 525 782 q 696 734 638 782 q 754 592 754 686 q 723 472 754 521 q 636 414 692 424 q 763 344 725 399 q 801 214 801 289 q 744 59 801 118 q 589 0 688 0 l 83 0 l 83 31 m 564 426 q 678 471 642 426 q 715 590 715 515 q 667 713 715 674 q 521 751 618 751 l 243 751 l 243 426 l 564 426 m 586 31 q 714 81 667 31 q 761 215 761 132 q 713 346 761 296 q 567 396 664 396 l 243 396 l 243 31 l 586 31 m 396 907 q 365 919 375 907 q 354 944 354 931 q 365 972 354 961 q 396 983 375 983 q 427 972 417 983 q 438 944 438 961 q 426 919 438 931 q 396 907 415 907 z "},"C":{"ha":953,"x_min":81,"x_max":842,"o":"m 842 174 q 692 29 782 74 q 483 -15 603 -15 q 291 30 383 -15 q 140 167 199 75 q 81 394 81 260 q 131 597 81 506 q 274 741 182 688 q 485 794 367 794 q 680 751 606 794 q 803 622 754 708 l 803 782 l 840 782 l 840 564 l 811 554 q 683 713 757 664 q 485 763 608 763 q 291 712 374 763 q 165 576 208 661 q 122 393 122 492 q 174 188 122 272 q 310 60 226 103 q 485 18 393 18 q 676 58 589 18 q 815 192 763 99 l 842 174 z "},"Ć":{"ha":953,"x_min":81,"x_max":842,"o":"m 842 174 q 692 29 782 74 q 483 -15 603 -15 q 291 30 383 -15 q 140 167 199 75 q 81 394 81 260 q 131 597 81 506 q 274 741 182 688 q 485 794 367 794 q 680 751 606 794 q 803 622 754 708 l 803 782 l 840 782 l 840 564 l 811 554 q 683 713 757 664 q 485 763 608 763 q 291 712 374 763 q 165 576 208 661 q 122 393 122 492 q 174 188 122 272 q 310 60 226 103 q 485 18 393 18 q 676 58 589 18 q 815 192 763 99 l 842 174 m 543 1078 l 585 1078 l 503 907 l 482 907 l 543 1078 z "},"Č":{"ha":953,"x_min":81,"x_max":842,"o":"m 842 174 q 692 29 782 74 q 483 -15 603 -15 q 291 30 383 -15 q 140 167 199 75 q 81 394 81 260 q 131 597 81 506 q 274 741 182 688 q 485 794 367 794 q 680 751 606 794 q 803 622 754 708 l 803 782 l 840 782 l 840 564 l 811 554 q 683 713 757 664 q 485 763 608 763 q 291 712 374 763 q 165 576 208 661 q 122 393 122 492 q 174 188 122 272 q 310 60 226 103 q 485 18 393 18 q 676 58 589 18 q 815 192 763 99 l 842 174 m 357 1101 l 390 1101 l 489 925 l 588 1101 l 619 1101 l 503 893 l 476 893 l 357 1101 z "},"Ç":{"ha":953,"x_min":81,"x_max":842,"o":"m 842 174 q 696 31 783 76 q 492 -15 608 -14 l 472 -78 q 538 -95 515 -78 q 560 -140 560 -112 q 537 -186 560 -171 q 479 -201 514 -201 q 410 -183 443 -201 l 410 -162 q 465 -172 439 -172 q 518 -142 518 -172 q 499 -115 518 -124 q 435 -104 481 -106 l 469 -15 q 282 35 371 -11 q 137 172 193 81 q 81 394 81 264 q 131 597 81 506 q 274 741 182 688 q 485 794 367 794 q 680 751 606 794 q 803 622 754 708 l 803 782 l 840 782 l 840 564 l 811 554 q 683 713 757 664 q 485 763 608 763 q 291 712 374 763 q 165 576 208 661 q 122 393 122 492 q 174 188 122 272 q 310 60 226 103 q 485 18 393 18 q 676 58 589 18 q 815 192 763 99 l 842 174 z "},"Ḉ":{"ha":953,"x_min":81,"x_max":842,"o":"m 503 907 l 482 907 l 543 1078 l 585 1078 l 503 907 m 842 174 q 696 31 783 76 q 492 -15 608 -14 l 472 -78 q 538 -95 515 -78 q 560 -140 560 -112 q 537 -186 560 -171 q 479 -201 514 -201 q 410 -183 443 -201 l 410 -162 q 465 -172 439 -172 q 518 -142 518 -172 q 499 -115 518 -124 q 435 -104 481 -106 l 469 -15 q 282 35 371 -11 q 137 172 193 81 q 81 394 81 264 q 131 597 81 506 q 274 741 182 688 q 485 794 367 794 q 680 751 606 794 q 803 622 754 708 l 803 782 l 840 782 l 840 564 l 811 554 q 683 713 757 664 q 485 763 608 763 q 291 712 374 763 q 165 576 208 661 q 122 393 122 492 q 174 188 122 272 q 310 60 226 103 q 485 18 393 18 q 676 58 589 18 q 815 192 763 99 l 842 174 z "},"Ĉ":{"ha":953,"x_min":81,"x_max":842,"o":"m 842 174 q 692 29 782 74 q 483 -15 603 -15 q 291 30 383 -15 q 140 167 199 75 q 81 394 81 260 q 131 597 81 506 q 274 741 182 688 q 485 794 367 794 q 680 751 606 794 q 803 622 754 708 l 803 782 l 840 782 l 840 564 l 811 554 q 683 713 757 664 q 485 763 608 763 q 291 712 374 763 q 165 576 208 661 q 122 393 122 492 q 174 188 122 272 q 310 60 226 103 q 485 18 393 18 q 676 58 589 18 q 815 192 763 99 l 842 174 m 475 1075 l 504 1075 l 622 865 l 589 865 l 489 1046 l 389 865 l 356 865 l 475 1075 z "},"Ċ":{"ha":953,"x_min":81,"x_max":842,"o":"m 842 174 q 692 29 782 74 q 483 -15 603 -15 q 291 30 383 -15 q 140 167 199 75 q 81 394 81 260 q 131 597 81 506 q 274 741 182 688 q 485 794 367 794 q 680 751 606 794 q 803 622 754 708 l 803 782 l 840 782 l 840 564 l 811 554 q 683 713 757 664 q 485 763 608 763 q 291 712 374 763 q 165 576 208 661 q 122 393 122 492 q 174 188 122 272 q 310 60 226 103 q 485 18 393 18 q 676 58 589 18 q 815 192 763 99 l 842 174 m 489 907 q 458 919 468 907 q 447 944 447 931 q 458 972 447 961 q 489 983 468 983 q 520 972 510 983 q 531 944 531 961 q 519 919 531 931 q 489 907 508 907 z "},"D":{"ha":969,"x_min":83,"x_max":885,"o":"m 83 31 l 201 31 l 201 751 l 83 751 l 83 782 l 549 782 q 734 722 658 782 q 847 572 810 663 q 885 389 885 482 q 847 206 885 296 q 733 58 808 115 q 553 0 658 0 l 83 0 l 83 31 m 546 31 q 708 83 640 31 q 810 217 776 135 q 844 388 844 299 q 810 560 844 476 q 710 698 776 644 q 550 751 643 751 l 243 751 l 243 31 l 546 31 z "},"Ǳ":{"ha":1806,"x_min":83,"x_max":1707,"o":"m 83 31 l 201 31 l 201 751 l 83 751 l 83 782 l 549 782 q 734 722 658 782 q 847 572 810 663 q 885 389 885 482 q 847 206 885 296 q 733 58 808 115 q 553 0 658 0 l 83 0 l 83 31 m 546 31 q 708 83 640 31 q 810 217 776 135 q 844 388 844 299 q 810 560 844 476 q 710 698 776 644 q 550 751 643 751 l 243 751 l 243 31 l 546 31 m 1065 32 l 1642 751 l 1119 751 l 1119 544 l 1085 544 l 1085 782 l 1689 782 l 1689 751 l 1113 31 l 1672 31 l 1672 247 l 1707 247 l 1707 0 l 1065 0 l 1065 32 z "},"Ǆ":{"ha":1806,"x_min":83,"x_max":1707,"o":"m 83 31 l 201 31 l 201 751 l 83 751 l 83 782 l 549 782 q 734 722 658 782 q 847 572 810 663 q 885 389 885 482 q 847 206 885 296 q 733 58 808 115 q 553 0 658 0 l 83 0 l 83 31 m 546 31 q 708 83 640 31 q 810 217 776 135 q 844 388 844 299 q 810 560 844 476 q 710 698 776 644 q 550 751 643 751 l 243 751 l 243 31 l 546 31 m 1065 32 l 1642 751 l 1119 751 l 1119 544 l 1085 544 l 1085 782 l 1689 782 l 1689 751 l 1113 31 l 1672 31 l 1672 247 l 1707 247 l 1707 0 l 1065 0 l 1065 32 m 1256 1101 l 1289 1101 l 1388 925 l 1486 1101 l 1518 1101 l 1401 893 l 1375 893 l 1256 1101 z "},"Ð":{"ha":969,"x_min":83,"x_max":885,"o":"m 549 782 q 734 722 658 782 q 847 572 810 663 q 885 389 885 482 q 847 206 885 296 q 733 58 808 115 q 553 0 658 0 l 83 0 l 83 31 l 201 31 l 201 379 l 83 379 l 83 411 l 201 411 l 201 751 l 83 751 l 83 782 l 549 782 m 546 31 q 708 83 640 31 q 810 217 776 135 q 844 388 844 299 q 810 560 844 476 q 710 698 776 644 q 550 751 643 751 l 243 751 l 243 411 l 435 411 l 435 379 l 243 379 l 243 31 l 546 31 z "},"Ď":{"ha":969,"x_min":83,"x_max":885,"o":"m 83 31 l 201 31 l 201 751 l 83 751 l 83 782 l 549 782 q 734 722 658 782 q 847 572 810 663 q 885 389 885 482 q 847 206 885 296 q 733 58 808 115 q 553 0 658 0 l 83 0 l 83 31 m 546 31 q 708 83 640 31 q 810 217 776 135 q 844 388 844 299 q 810 560 844 476 q 710 698 776 644 q 550 751 643 751 l 243 751 l 243 31 l 546 31 m 390 1101 l 424 1101 l 522 925 l 621 1101 l 653 1101 l 536 893 l 510 893 l 390 1101 z "},"Đ":{"ha":969,"x_min":83,"x_max":885,"o":"m 549 782 q 734 722 658 782 q 847 572 810 663 q 885 389 885 482 q 847 206 885 296 q 733 58 808 115 q 553 0 658 0 l 83 0 l 83 31 l 201 31 l 201 379 l 83 379 l 83 411 l 201 411 l 201 751 l 83 751 l 83 782 l 549 782 m 546 31 q 708 83 640 31 q 810 217 776 135 q 844 388 844 299 q 810 560 844 476 q 710 698 776 644 q 550 751 643 751 l 243 751 l 243 411 l 435 411 l 435 379 l 243 379 l 243 31 l 546 31 z "},"Ḋ":{"ha":969,"x_min":83,"x_max":885,"o":"m 83 31 l 201 31 l 201 751 l 83 751 l 83 782 l 549 782 q 734 722 658 782 q 847 572 810 663 q 885 389 885 482 q 847 206 885 296 q 733 58 808 115 q 553 0 658 0 l 83 0 l 83 31 m 546 31 q 708 83 640 31 q 810 217 776 135 q 844 388 844 299 q 810 560 844 476 q 710 698 776 644 q 550 751 643 751 l 243 751 l 243 31 l 546 31 m 522 907 q 491 919 501 907 q 481 944 481 931 q 491 972 481 961 q 522 983 501 983 q 553 972 543 983 q 564 944 564 961 q 553 919 564 931 q 522 907 542 907 z "},"Ḍ":{"ha":969,"x_min":83,"x_max":885,"o":"m 83 31 l 201 31 l 201 751 l 83 751 l 83 782 l 549 782 q 734 722 658 782 q 847 572 810 663 q 885 389 885 482 q 847 206 885 296 q 733 58 808 115 q 553 0 658 0 l 83 0 l 83 31 m 546 31 q 708 83 640 31 q 810 217 776 135 q 844 388 844 299 q 810 560 844 476 q 710 698 776 644 q 550 751 643 751 l 243 751 l 243 31 l 546 31 m 521 -149 q 490 -137 500 -149 q 479 -111 479 -125 q 490 -83 479 -94 q 521 -72 500 -72 q 552 -83 542 -72 q 563 -111 563 -94 q 551 -137 563 -125 q 521 -149 540 -149 z "},"Ḏ":{"ha":969,"x_min":83,"x_max":885,"o":"m 83 31 l 201 31 l 201 751 l 83 751 l 83 782 l 549 782 q 734 722 658 782 q 847 572 810 663 q 885 389 885 482 q 847 206 885 296 q 733 58 808 115 q 553 0 658 0 l 83 0 l 83 31 m 546 31 q 708 83 640 31 q 810 217 776 135 q 844 388 844 299 q 810 560 844 476 q 710 698 776 644 q 550 751 643 751 l 243 751 l 243 31 l 546 31 m 393 -72 l 649 -72 l 649 -100 l 393 -100 l 393 -72 z "},"ǲ":{"ha":1500,"x_min":83,"x_max":1394,"o":"m 83 31 l 201 31 l 201 751 l 83 751 l 83 782 l 549 782 q 734 722 658 782 q 847 572 810 663 q 885 389 885 482 q 847 206 885 296 q 733 58 808 115 q 553 0 658 0 l 83 0 l 83 31 m 546 31 q 708 83 640 31 q 810 217 776 135 q 844 388 844 299 q 810 560 844 476 q 710 698 776 644 q 550 751 643 751 l 243 751 l 243 31 l 546 31 m 956 35 l 1346 517 l 1010 517 l 1010 385 l 974 385 l 974 546 l 1385 546 l 1385 507 l 1003 29 l 1360 29 l 1360 181 l 1394 181 l 1394 0 l 956 0 l 956 35 z "},"ǅ":{"ha":1611,"x_min":83,"x_max":1506,"o":"m 83 31 l 201 31 l 201 751 l 83 751 l 83 782 l 549 782 q 734 722 658 782 q 847 572 810 663 q 885 389 885 482 q 847 206 885 296 q 733 58 808 115 q 553 0 658 0 l 83 0 l 83 31 m 546 31 q 708 83 640 31 q 810 217 776 135 q 844 388 844 299 q 810 560 844 476 q 710 698 776 644 q 550 751 643 751 l 243 751 l 243 31 l 546 31 m 1067 35 l 1457 517 l 1121 517 l 1121 385 l 1085 385 l 1085 546 l 1496 546 l 1496 507 l 1114 29 l 1471 29 l 1471 181 l 1506 181 l 1506 0 l 1067 0 l 1067 35 m 1165 865 l 1199 865 l 1297 689 l 1396 865 l 1428 865 l 1311 657 l 1285 657 l 1165 865 z "},"E":{"ha":829,"x_min":83,"x_max":738,"o":"m 83 31 l 201 31 l 201 751 l 83 751 l 83 782 l 721 782 l 721 558 l 685 558 l 685 751 l 243 751 l 243 414 l 528 414 l 528 529 l 560 529 l 560 260 l 529 260 l 529 383 l 243 383 l 243 31 l 701 31 l 701 226 l 738 226 l 738 0 l 83 0 l 83 31 z "},"É":{"ha":829,"x_min":83,"x_max":738,"o":"m 83 31 l 201 31 l 201 751 l 83 751 l 83 782 l 721 782 l 721 558 l 685 558 l 685 751 l 243 751 l 243 414 l 528 414 l 528 529 l 560 529 l 560 260 l 529 260 l 529 383 l 243 383 l 243 31 l 701 31 l 701 226 l 738 226 l 738 0 l 83 0 l 83 31 m 508 1078 l 550 1078 l 468 907 l 447 907 l 508 1078 z "},"Ĕ":{"ha":829,"x_min":83,"x_max":738,"o":"m 83 31 l 201 31 l 201 751 l 83 751 l 83 782 l 721 782 l 721 558 l 685 558 l 685 751 l 243 751 l 243 414 l 528 414 l 528 529 l 560 529 l 560 260 l 529 260 l 529 383 l 243 383 l 243 31 l 701 31 l 701 226 l 738 226 l 738 0 l 83 0 l 83 31 m 454 907 q 388 931 414 907 q 354 1000 363 954 l 381 1000 q 454 936 397 936 q 526 1000 508 936 l 553 1000 q 454 907 536 907 z "},"Ě":{"ha":829,"x_min":83,"x_max":738,"o":"m 83 31 l 201 31 l 201 751 l 83 751 l 83 782 l 721 782 l 721 558 l 685 558 l 685 751 l 243 751 l 243 414 l 528 414 l 528 529 l 560 529 l 560 260 l 529 260 l 529 383 l 243 383 l 243 31 l 701 31 l 701 226 l 738 226 l 738 0 l 83 0 l 83 31 m 322 1101 l 356 1101 l 454 925 l 553 1101 l 585 1101 l 468 893 l 442 893 l 322 1101 z "},"Ȩ":{"ha":829,"x_min":83,"x_max":738,"o":"m 83 31 l 201 31 l 201 751 l 83 751 l 83 782 l 721 782 l 721 558 l 685 558 l 685 751 l 243 751 l 243 414 l 528 414 l 528 529 l 560 529 l 560 260 l 529 260 l 529 383 l 243 383 l 243 31 l 701 31 l 701 226 l 738 226 l 738 0 l 83 0 l 83 31 m 463 -201 q 393 -183 426 -201 l 393 -162 q 449 -172 422 -172 q 501 -142 501 -172 q 483 -115 501 -124 q 418 -104 464 -106 l 458 0 l 481 0 l 456 -78 q 521 -95 499 -78 q 543 -140 543 -112 q 520 -186 543 -171 q 463 -201 497 -201 z "},"Ḝ":{"ha":829,"x_min":83,"x_max":738,"o":"m 83 31 l 201 31 l 201 751 l 83 751 l 83 782 l 721 782 l 721 558 l 685 558 l 685 751 l 243 751 l 243 414 l 528 414 l 528 529 l 560 529 l 560 260 l 529 260 l 529 383 l 243 383 l 243 31 l 701 31 l 701 226 l 738 226 l 738 0 l 83 0 l 83 31 m 463 -201 q 393 -183 426 -201 l 393 -162 q 449 -172 422 -172 q 501 -142 501 -172 q 483 -115 501 -124 q 418 -104 464 -106 l 458 0 l 481 0 l 456 -78 q 521 -95 499 -78 q 543 -140 543 -112 q 520 -186 543 -171 q 463 -201 497 -201 m 454 907 q 388 931 414 907 q 354 1000 363 954 l 381 1000 q 454 936 397 936 q 526 1000 508 936 l 553 1000 q 454 907 536 907 z "},"Ê":{"ha":829,"x_min":83,"x_max":738,"o":"m 83 31 l 201 31 l 201 751 l 83 751 l 83 782 l 721 782 l 721 558 l 685 558 l 685 751 l 243 751 l 243 414 l 528 414 l 528 529 l 560 529 l 560 260 l 529 260 l 529 383 l 243 383 l 243 31 l 701 31 l 701 226 l 738 226 l 738 0 l 83 0 l 83 31 m 440 1075 l 469 1075 l 588 865 l 554 865 l 454 1046 l 354 865 l 321 865 l 440 1075 z "},"Ế":{"ha":829,"x_min":83,"x_max":738,"o":"m 83 31 l 201 31 l 201 751 l 83 751 l 83 782 l 721 782 l 721 558 l 685 558 l 685 751 l 243 751 l 243 414 l 528 414 l 528 529 l 560 529 l 560 260 l 529 260 l 529 383 l 243 383 l 243 31 l 701 31 l 701 226 l 738 226 l 738 0 l 83 0 l 83 31 m 596 1142 l 635 1142 l 561 986 l 539 986 l 596 1142 m 440 1033 l 469 1033 l 588 865 l 554 865 l 454 1004 l 354 865 l 321 865 l 440 1033 z "},"Ệ":{"ha":829,"x_min":83,"x_max":738,"o":"m 83 31 l 201 31 l 201 751 l 83 751 l 83 782 l 721 782 l 721 558 l 685 558 l 685 751 l 243 751 l 243 414 l 528 414 l 528 529 l 560 529 l 560 260 l 529 260 l 529 383 l 243 383 l 243 31 l 701 31 l 701 226 l 738 226 l 738 0 l 83 0 l 83 31 m 440 1075 l 469 1075 l 588 865 l 554 865 l 454 1046 l 354 865 l 321 865 l 440 1075 m 469 -149 q 438 -137 449 -149 q 428 -111 428 -125 q 438 -83 428 -94 q 469 -72 449 -72 q 501 -83 490 -72 q 511 -111 511 -94 q 500 -137 511 -125 q 469 -149 489 -149 z "},"Ề":{"ha":829,"x_min":83,"x_max":738,"o":"m 83 31 l 201 31 l 201 751 l 83 751 l 83 782 l 721 782 l 721 558 l 685 558 l 685 751 l 243 751 l 243 414 l 528 414 l 528 529 l 560 529 l 560 260 l 529 260 l 529 383 l 243 383 l 243 31 l 701 31 l 701 226 l 738 226 l 738 0 l 83 0 l 83 31 m 557 986 l 483 1142 l 522 1142 l 579 986 l 557 986 m 440 1033 l 469 1033 l 588 865 l 554 865 l 454 1004 l 354 865 l 321 865 l 440 1033 z "},"Ể":{"ha":829,"x_min":83,"x_max":738,"o":"m 83 31 l 201 31 l 201 751 l 83 751 l 83 782 l 721 782 l 721 558 l 685 558 l 685 751 l 243 751 l 243 414 l 528 414 l 528 529 l 560 529 l 560 260 l 529 260 l 529 383 l 243 383 l 243 31 l 701 31 l 701 226 l 738 226 l 738 0 l 83 0 l 83 31 m 536 1010 q 576 1058 576 1026 q 564 1088 576 1078 q 529 1099 551 1099 q 469 1081 501 1099 l 456 1111 q 532 1131 494 1131 q 590 1111 568 1131 q 611 1061 611 1092 q 596 1012 611 1031 q 549 981 581 993 l 536 1010 m 440 1033 l 469 1033 l 588 865 l 554 865 l 454 1004 l 354 865 l 321 865 l 440 1033 z "},"Ễ":{"ha":829,"x_min":83,"x_max":738,"o":"m 83 31 l 201 31 l 201 751 l 83 751 l 83 782 l 721 782 l 721 558 l 685 558 l 685 751 l 243 751 l 243 414 l 528 414 l 528 529 l 560 529 l 560 260 l 529 260 l 529 383 l 243 383 l 243 31 l 701 31 l 701 226 l 738 226 l 738 0 l 83 0 l 83 31 m 515 1056 q 485 1061 500 1056 q 450 1078 471 1067 q 419 1092 435 1086 q 389 1099 403 1099 q 356 1057 356 1099 l 328 1057 q 346 1108 328 1088 q 393 1129 364 1129 q 423 1124 408 1129 q 458 1107 438 1118 q 517 1086 494 1086 q 541 1097 532 1086 q 550 1126 550 1107 l 578 1126 q 515 1056 578 1056 m 440 1033 l 469 1033 l 588 865 l 554 865 l 454 1004 l 354 865 l 321 865 l 440 1033 z "},"Ȅ":{"ha":829,"x_min":83,"x_max":738,"o":"m 83 31 l 201 31 l 201 751 l 83 751 l 83 782 l 721 782 l 721 558 l 685 558 l 685 751 l 243 751 l 243 414 l 528 414 l 528 529 l 560 529 l 560 260 l 529 260 l 529 383 l 243 383 l 243 31 l 701 31 l 701 226 l 738 226 l 738 0 l 83 0 l 83 31 m 272 1108 l 314 1108 l 386 907 l 365 907 l 272 1108 m 404 1108 l 444 1108 l 518 907 l 497 907 l 404 1108 z "},"Ë":{"ha":829,"x_min":83,"x_max":738,"o":"m 83 31 l 201 31 l 201 751 l 83 751 l 83 782 l 721 782 l 721 558 l 685 558 l 685 751 l 243 751 l 243 414 l 528 414 l 528 529 l 560 529 l 560 260 l 529 260 l 529 383 l 243 383 l 243 31 l 701 31 l 701 226 l 738 226 l 738 0 l 83 0 l 83 31 m 344 908 q 322 917 331 908 q 314 939 314 925 q 322 960 314 953 q 344 968 331 968 q 367 960 358 968 q 375 939 375 953 q 367 917 375 925 q 344 908 358 908 m 564 908 q 542 916 550 908 q 533 938 533 924 q 542 960 533 951 q 564 968 550 968 q 586 960 578 968 q 594 938 594 951 q 586 916 594 924 q 564 908 578 908 z "},"Ė":{"ha":829,"x_min":83,"x_max":738,"o":"m 83 31 l 201 31 l 201 751 l 83 751 l 83 782 l 721 782 l 721 558 l 685 558 l 685 751 l 243 751 l 243 414 l 528 414 l 528 529 l 560 529 l 560 260 l 529 260 l 529 383 l 243 383 l 243 31 l 701 31 l 701 226 l 738 226 l 738 0 l 83 0 l 83 31 m 454 907 q 423 919 433 907 q 413 944 413 931 q 423 972 413 961 q 454 983 433 983 q 485 972 475 983 q 496 944 496 961 q 485 919 496 931 q 454 907 474 907 z "},"Ẹ":{"ha":829,"x_min":83,"x_max":738,"o":"m 83 31 l 201 31 l 201 751 l 83 751 l 83 782 l 721 782 l 721 558 l 685 558 l 685 751 l 243 751 l 243 414 l 528 414 l 528 529 l 560 529 l 560 260 l 529 260 l 529 383 l 243 383 l 243 31 l 701 31 l 701 226 l 738 226 l 738 0 l 83 0 l 83 31 m 469 -149 q 438 -137 449 -149 q 428 -111 428 -125 q 438 -83 428 -94 q 469 -72 449 -72 q 501 -83 490 -72 q 511 -111 511 -94 q 500 -137 511 -125 q 469 -149 489 -149 z "},"È":{"ha":829,"x_min":83,"x_max":738,"o":"m 83 31 l 201 31 l 201 751 l 83 751 l 83 782 l 721 782 l 721 558 l 685 558 l 685 751 l 243 751 l 243 414 l 528 414 l 528 529 l 560 529 l 560 260 l 529 260 l 529 383 l 243 383 l 243 31 l 701 31 l 701 226 l 738 226 l 738 0 l 83 0 l 83 31 m 358 1078 l 400 1078 l 461 907 l 439 907 l 358 1078 z "},"Ẻ":{"ha":829,"x_min":83,"x_max":738,"o":"m 83 31 l 201 31 l 201 751 l 83 751 l 83 782 l 721 782 l 721 558 l 685 558 l 685 751 l 243 751 l 243 414 l 528 414 l 528 529 l 560 529 l 560 260 l 529 260 l 529 383 l 243 383 l 243 31 l 701 31 l 701 226 l 738 226 l 738 0 l 83 0 l 83 31 m 442 874 q 482 922 482 890 q 469 952 482 942 q 435 963 457 963 q 375 944 407 963 l 361 975 q 438 994 400 994 q 495 975 474 994 q 517 925 517 956 q 501 876 517 894 q 454 844 486 857 l 442 874 z "},"Ȇ":{"ha":829,"x_min":83,"x_max":738,"o":"m 83 31 l 201 31 l 201 751 l 83 751 l 83 782 l 721 782 l 721 558 l 685 558 l 685 751 l 243 751 l 243 414 l 528 414 l 528 529 l 560 529 l 560 260 l 529 260 l 529 383 l 243 383 l 243 31 l 701 31 l 701 226 l 738 226 l 738 0 l 83 0 l 83 31 m 354 893 q 454 986 374 986 q 554 893 538 986 l 526 893 q 454 956 508 956 q 382 893 399 956 l 354 893 z "},"Ē":{"ha":829,"x_min":83,"x_max":738,"o":"m 83 31 l 201 31 l 201 751 l 83 751 l 83 782 l 721 782 l 721 558 l 685 558 l 685 751 l 243 751 l 243 414 l 528 414 l 528 529 l 560 529 l 560 260 l 529 260 l 529 383 l 243 383 l 243 31 l 701 31 l 701 226 l 738 226 l 738 0 l 83 0 l 83 31 m 326 935 l 582 935 l 582 907 l 326 907 l 326 935 z "},"Ḗ":{"ha":829,"x_min":83,"x_max":738,"o":"m 83 31 l 201 31 l 201 751 l 83 751 l 83 782 l 721 782 l 721 558 l 685 558 l 685 751 l 243 751 l 243 414 l 528 414 l 528 529 l 560 529 l 560 260 l 529 260 l 529 383 l 243 383 l 243 31 l 701 31 l 701 226 l 738 226 l 738 0 l 83 0 l 83 31 m 326 935 l 582 935 l 582 907 l 326 907 l 326 935 m 508 1215 l 550 1215 l 468 1044 l 447 1044 l 508 1215 z "},"Ḕ":{"ha":829,"x_min":83,"x_max":738,"o":"m 83 31 l 201 31 l 201 751 l 83 751 l 83 782 l 721 782 l 721 558 l 685 558 l 685 751 l 243 751 l 243 414 l 528 414 l 528 529 l 560 529 l 560 260 l 529 260 l 529 383 l 243 383 l 243 31 l 701 31 l 701 226 l 738 226 l 738 0 l 83 0 l 83 31 m 326 935 l 582 935 l 582 907 l 326 907 l 326 935 m 358 1215 l 400 1215 l 461 1044 l 439 1044 l 358 1215 z "},"Ę":{"ha":829,"x_min":83,"x_max":742,"o":"m 83 31 l 201 31 l 201 751 l 83 751 l 83 782 l 721 782 l 721 558 l 685 558 l 685 751 l 243 751 l 243 414 l 528 414 l 528 529 l 560 529 l 560 260 l 529 260 l 529 383 l 243 383 l 243 31 l 701 31 l 701 226 l 738 226 l 738 0 l 83 0 l 83 31 m 665 -212 q 601 -190 628 -212 q 575 -129 575 -168 q 651 0 575 -65 l 682 0 q 631 -62 649 -33 q 614 -119 614 -92 q 631 -166 614 -150 q 676 -182 649 -182 q 742 -158 710 -182 l 742 -186 q 665 -212 704 -212 z "},"Ẽ":{"ha":829,"x_min":83,"x_max":738,"o":"m 83 31 l 201 31 l 201 751 l 83 751 l 83 782 l 721 782 l 721 558 l 685 558 l 685 751 l 243 751 l 243 414 l 528 414 l 528 529 l 560 529 l 560 260 l 529 260 l 529 383 l 243 383 l 243 31 l 701 31 l 701 226 l 738 226 l 738 0 l 83 0 l 83 31 m 528 907 q 494 914 510 907 q 453 936 478 921 q 411 957 426 950 q 381 964 396 964 q 343 908 343 964 l 315 908 q 333 970 315 946 q 381 994 350 994 q 415 988 399 994 q 456 965 431 981 q 497 944 482 951 q 528 938 513 938 q 556 951 546 938 q 565 992 565 964 l 593 992 q 578 928 593 949 q 528 907 563 907 z "},"F":{"ha":792,"x_min":83,"x_max":728,"o":"m 83 31 l 201 31 l 201 751 l 83 751 l 83 782 l 728 782 l 728 540 l 694 540 l 694 751 l 243 751 l 243 418 l 529 418 l 529 524 l 558 524 l 558 265 l 529 265 l 529 386 l 243 386 l 243 31 l 361 31 l 361 0 l 83 0 l 83 31 z "},"Ḟ":{"ha":792,"x_min":83,"x_max":728,"o":"m 83 31 l 201 31 l 201 751 l 83 751 l 83 782 l 728 782 l 728 540 l 694 540 l 694 751 l 243 751 l 243 418 l 529 418 l 529 524 l 558 524 l 558 265 l 529 265 l 529 386 l 243 386 l 243 31 l 361 31 l 361 0 l 83 0 l 83 31 m 436 907 q 405 919 415 907 q 394 944 394 931 q 405 972 394 961 q 436 983 415 983 q 467 972 457 983 q 478 944 478 961 q 467 919 478 931 q 436 907 456 907 z "},"G":{"ha":946,"x_min":79,"x_max":850,"o":"m 850 372 l 850 368 q 792 134 850 219 q 651 17 733 49 q 482 -15 568 -15 q 269 35 360 -15 q 128 178 178 85 q 79 396 79 271 q 128 608 79 518 q 269 747 178 699 q 482 796 360 796 q 656 756 576 796 q 782 646 736 717 l 782 782 l 819 782 l 819 572 l 789 572 q 669 713 751 663 q 482 764 586 764 q 291 719 372 764 q 165 591 210 674 q 121 396 121 508 q 165 195 121 281 q 291 64 210 110 q 482 18 372 18 q 630 48 556 18 q 757 150 704 78 q 810 342 810 222 l 638 342 l 638 372 l 850 372 z "},"Ǵ":{"ha":946,"x_min":79,"x_max":850,"o":"m 850 372 l 850 368 q 792 134 850 219 q 651 17 733 49 q 482 -15 568 -15 q 269 35 360 -15 q 128 178 178 85 q 79 396 79 271 q 128 608 79 518 q 269 747 178 699 q 482 796 360 796 q 656 756 576 796 q 782 646 736 717 l 782 782 l 819 782 l 819 572 l 789 572 q 669 713 751 663 q 482 764 586 764 q 291 719 372 764 q 165 591 210 674 q 121 396 121 508 q 165 195 121 281 q 291 64 210 110 q 482 18 372 18 q 630 48 556 18 q 757 150 704 78 q 810 342 810 222 l 638 342 l 638 372 l 850 372 m 535 1078 l 576 1078 l 494 907 l 474 907 l 535 1078 z "},"Ğ":{"ha":946,"x_min":79,"x_max":850,"o":"m 850 372 l 850 368 q 792 134 850 219 q 651 17 733 49 q 482 -15 568 -15 q 269 35 360 -15 q 128 178 178 85 q 79 396 79 271 q 128 608 79 518 q 269 747 178 699 q 482 796 360 796 q 656 756 576 796 q 782 646 736 717 l 782 782 l 819 782 l 819 572 l 789 572 q 669 713 751 663 q 482 764 586 764 q 291 719 372 764 q 165 591 210 674 q 121 396 121 508 q 165 195 121 281 q 291 64 210 110 q 482 18 372 18 q 630 48 556 18 q 757 150 704 78 q 810 342 810 222 l 638 342 l 638 372 l 850 372 m 481 907 q 415 931 440 907 q 381 1000 389 954 l 407 1000 q 481 936 424 936 q 553 1000 535 936 l 579 1000 q 481 907 563 907 z "},"Ǧ":{"ha":946,"x_min":79,"x_max":850,"o":"m 850 372 l 850 368 q 792 134 850 219 q 651 17 733 49 q 482 -15 568 -15 q 269 35 360 -15 q 128 178 178 85 q 79 396 79 271 q 128 608 79 518 q 269 747 178 699 q 482 796 360 796 q 656 756 576 796 q 782 646 736 717 l 782 782 l 819 782 l 819 572 l 789 572 q 669 713 751 663 q 482 764 586 764 q 291 719 372 764 q 165 591 210 674 q 121 396 121 508 q 165 195 121 281 q 291 64 210 110 q 482 18 372 18 q 630 48 556 18 q 757 150 704 78 q 810 342 810 222 l 638 342 l 638 372 l 850 372 m 349 1101 l 382 1101 l 481 925 l 579 1101 l 611 1101 l 494 893 l 468 893 l 349 1101 z "},"Ĝ":{"ha":946,"x_min":79,"x_max":850,"o":"m 850 372 l 850 368 q 792 134 850 219 q 651 17 733 49 q 482 -15 568 -15 q 269 35 360 -15 q 128 178 178 85 q 79 396 79 271 q 128 608 79 518 q 269 747 178 699 q 482 796 360 796 q 656 756 576 796 q 782 646 736 717 l 782 782 l 819 782 l 819 572 l 789 572 q 669 713 751 663 q 482 764 586 764 q 291 719 372 764 q 165 591 210 674 q 121 396 121 508 q 165 195 121 281 q 291 64 210 110 q 482 18 372 18 q 630 48 556 18 q 757 150 704 78 q 810 342 810 222 l 638 342 l 638 372 l 850 372 m 467 1075 l 496 1075 l 614 865 l 581 865 l 481 1046 l 381 865 l 347 865 l 467 1075 z "},"Ģ":{"ha":946,"x_min":79,"x_max":850,"o":"m 850 372 l 850 368 q 792 134 850 219 q 651 17 733 49 q 482 -15 568 -15 q 269 35 360 -15 q 128 178 178 85 q 79 396 79 271 q 128 608 79 518 q 269 747 178 699 q 482 796 360 796 q 656 756 576 796 q 782 646 736 717 l 782 782 l 819 782 l 819 572 l 789 572 q 669 713 751 663 q 482 764 586 764 q 291 719 372 764 q 165 591 210 674 q 121 396 121 508 q 165 195 121 281 q 291 64 210 110 q 482 18 372 18 q 630 48 556 18 q 757 150 704 78 q 810 342 810 222 l 638 342 l 638 372 l 850 372 m 443 -243 q 483 -215 475 -240 q 492 -137 492 -190 l 453 -137 l 453 -72 l 519 -72 l 519 -146 q 504 -231 519 -200 q 443 -260 489 -261 l 443 -243 z "},"Ġ":{"ha":946,"x_min":79,"x_max":850,"o":"m 850 372 l 850 368 q 792 134 850 219 q 651 17 733 49 q 482 -15 568 -15 q 269 35 360 -15 q 128 178 178 85 q 79 396 79 271 q 128 608 79 518 q 269 747 178 699 q 482 796 360 796 q 656 756 576 796 q 782 646 736 717 l 782 782 l 819 782 l 819 572 l 789 572 q 669 713 751 663 q 482 764 586 764 q 291 719 372 764 q 165 591 210 674 q 121 396 121 508 q 165 195 121 281 q 291 64 210 110 q 482 18 372 18 q 630 48 556 18 q 757 150 704 78 q 810 342 810 222 l 638 342 l 638 372 l 850 372 m 481 907 q 449 919 460 907 q 439 944 439 931 q 449 972 439 961 q 481 983 460 983 q 512 972 501 983 q 522 944 522 961 q 511 919 522 931 q 481 907 500 907 z "},"Ḡ":{"ha":946,"x_min":79,"x_max":850,"o":"m 850 372 l 850 368 q 792 134 850 219 q 651 17 733 49 q 482 -15 568 -15 q 269 35 360 -15 q 128 178 178 85 q 79 396 79 271 q 128 608 79 518 q 269 747 178 699 q 482 796 360 796 q 656 756 576 796 q 782 646 736 717 l 782 782 l 819 782 l 819 572 l 789 572 q 669 713 751 663 q 482 764 586 764 q 291 719 372 764 q 165 591 210 674 q 121 396 121 508 q 165 195 121 281 q 291 64 210 110 q 482 18 372 18 q 630 48 556 18 q 757 150 704 78 q 810 342 810 222 l 638 342 l 638 372 l 850 372 m 353 935 l 608 935 l 608 907 l 353 907 l 353 935 z "},"H":{"ha":1014,"x_min":83,"x_max":929,"o":"m 83 31 l 201 31 l 201 751 l 83 751 l 83 782 l 361 782 l 361 751 l 243 751 l 243 411 l 771 411 l 771 751 l 653 751 l 653 782 l 929 782 l 929 751 l 811 751 l 811 31 l 929 31 l 929 0 l 653 0 l 653 31 l 771 31 l 771 379 l 243 379 l 243 31 l 361 31 l 361 0 l 83 0 l 83 31 z "},"Ħ":{"ha":1014,"x_min":83,"x_max":929,"o":"m 811 751 l 811 589 l 869 589 l 869 558 l 811 558 l 811 31 l 929 31 l 929 0 l 653 0 l 653 31 l 771 31 l 771 379 l 243 379 l 243 31 l 361 31 l 361 0 l 83 0 l 83 31 l 201 31 l 201 558 l 143 558 l 143 589 l 201 589 l 201 751 l 83 751 l 83 782 l 361 782 l 361 751 l 243 751 l 243 589 l 771 589 l 771 751 l 653 751 l 653 782 l 929 782 l 929 751 l 811 751 m 771 558 l 243 558 l 243 411 l 771 411 l 771 558 z "},"Ḫ":{"ha":1014,"x_min":83,"x_max":929,"o":"m 83 31 l 201 31 l 201 751 l 83 751 l 83 782 l 361 782 l 361 751 l 243 751 l 243 411 l 771 411 l 771 751 l 653 751 l 653 782 l 929 782 l 929 751 l 811 751 l 811 31 l 929 31 l 929 0 l 653 0 l 653 31 l 771 31 l 771 379 l 243 379 l 243 31 l 361 31 l 361 0 l 83 0 l 83 31 m 506 -165 q 440 -142 465 -165 q 406 -72 414 -118 l 432 -72 q 506 -136 449 -136 q 578 -72 560 -136 l 604 -72 q 506 -165 588 -165 z "},"Ȟ":{"ha":1014,"x_min":83,"x_max":929,"o":"m 83 31 l 201 31 l 201 751 l 83 751 l 83 782 l 361 782 l 361 751 l 243 751 l 243 411 l 771 411 l 771 751 l 653 751 l 653 782 l 929 782 l 929 751 l 811 751 l 811 31 l 929 31 l 929 0 l 653 0 l 653 31 l 771 31 l 771 379 l 243 379 l 243 31 l 361 31 l 361 0 l 83 0 l 83 31 m 374 1101 l 407 1101 l 506 925 l 604 1101 l 636 1101 l 519 893 l 493 893 l 374 1101 z "},"Ĥ":{"ha":1014,"x_min":83,"x_max":929,"o":"m 83 31 l 201 31 l 201 751 l 83 751 l 83 782 l 361 782 l 361 751 l 243 751 l 243 411 l 771 411 l 771 751 l 653 751 l 653 782 l 929 782 l 929 751 l 811 751 l 811 31 l 929 31 l 929 0 l 653 0 l 653 31 l 771 31 l 771 379 l 243 379 l 243 31 l 361 31 l 361 0 l 83 0 l 83 31 m 492 1075 l 521 1075 l 639 865 l 606 865 l 506 1046 l 406 865 l 372 865 l 492 1075 z "},"Ḥ":{"ha":1014,"x_min":83,"x_max":929,"o":"m 83 31 l 201 31 l 201 751 l 83 751 l 83 782 l 361 782 l 361 751 l 243 751 l 243 411 l 771 411 l 771 751 l 653 751 l 653 782 l 929 782 l 929 751 l 811 751 l 811 31 l 929 31 l 929 0 l 653 0 l 653 31 l 771 31 l 771 379 l 243 379 l 243 31 l 361 31 l 361 0 l 83 0 l 83 31 m 506 -149 q 474 -137 485 -149 q 464 -111 464 -125 q 474 -83 464 -94 q 506 -72 485 -72 q 537 -83 526 -72 q 547 -111 547 -94 q 536 -137 547 -125 q 506 -149 525 -149 z "},"I":{"ha":432,"x_min":76,"x_max":354,"o":"m 76 31 l 194 31 l 194 751 l 76 751 l 76 782 l 354 782 l 354 751 l 236 751 l 236 31 l 354 31 l 354 0 l 76 0 l 76 31 z "},"Ĳ":{"ha":817,"x_min":76,"x_max":774,"o":"m 76 31 l 194 31 l 194 751 l 76 751 l 76 782 l 354 782 l 354 751 l 236 751 l 236 31 l 354 31 l 354 0 l 76 0 l 76 31 m 500 -12 l 583 -12 q 634 13 622 -12 q 646 108 646 39 l 646 751 l 556 751 l 556 782 l 774 782 l 774 751 l 689 751 l 689 101 q 677 9 689 40 q 642 -33 665 -22 q 576 -44 618 -44 l 500 -44 l 500 -12 z "},"Í":{"ha":432,"x_min":76,"x_max":354,"o":"m 76 31 l 194 31 l 194 751 l 76 751 l 76 782 l 354 782 l 354 751 l 236 751 l 236 31 l 354 31 l 354 0 l 76 0 l 76 31 m 272 1078 l 314 1078 l 232 907 l 211 907 l 272 1078 z "},"Ĭ":{"ha":432,"x_min":76,"x_max":354,"o":"m 76 31 l 194 31 l 194 751 l 76 751 l 76 782 l 354 782 l 354 751 l 236 751 l 236 31 l 354 31 l 354 0 l 76 0 l 76 31 m 218 907 q 152 931 178 907 q 118 1000 126 954 l 144 1000 q 218 936 161 936 q 290 1000 272 936 l 317 1000 q 218 907 300 907 z "},"Ǐ":{"ha":432,"x_min":76,"x_max":354,"o":"m 76 31 l 194 31 l 194 751 l 76 751 l 76 782 l 354 782 l 354 751 l 236 751 l 236 31 l 354 31 l 354 0 l 76 0 l 76 31 m 86 1101 l 119 1101 l 218 925 l 317 1101 l 349 1101 l 232 893 l 206 893 l 86 1101 z "},"Î":{"ha":432,"x_min":76,"x_max":354,"o":"m 76 31 l 194 31 l 194 751 l 76 751 l 76 782 l 354 782 l 354 751 l 236 751 l 236 31 l 354 31 l 354 0 l 76 0 l 76 31 m 204 1075 l 233 1075 l 351 865 l 318 865 l 218 1046 l 118 865 l 85 865 l 204 1075 z "},"Ȉ":{"ha":432,"x_min":36,"x_max":354,"o":"m 76 31 l 194 31 l 194 751 l 76 751 l 76 782 l 354 782 l 354 751 l 236 751 l 236 31 l 354 31 l 354 0 l 76 0 l 76 31 m 36 1108 l 78 1108 l 150 907 l 129 907 l 36 1108 m 168 1108 l 208 1108 l 282 907 l 261 907 l 168 1108 z "},"Ï":{"ha":432,"x_min":76,"x_max":358,"o":"m 76 31 l 194 31 l 194 751 l 76 751 l 76 782 l 354 782 l 354 751 l 236 751 l 236 31 l 354 31 l 354 0 l 76 0 l 76 31 m 108 908 q 86 917 94 908 q 78 939 78 925 q 86 960 78 953 q 108 968 94 968 q 131 960 122 968 q 139 939 139 953 q 131 917 139 925 q 108 908 122 908 m 328 908 q 306 916 314 908 q 297 938 297 924 q 306 960 297 951 q 328 968 314 968 q 350 960 342 968 q 358 938 358 951 q 350 916 358 924 q 328 908 342 908 z "},"Ḯ":{"ha":432,"x_min":76,"x_max":358,"o":"m 76 31 l 194 31 l 194 751 l 76 751 l 76 782 l 354 782 l 354 751 l 236 751 l 236 31 l 354 31 l 354 0 l 76 0 l 76 31 m 108 908 q 86 917 94 908 q 78 939 78 925 q 86 960 78 953 q 108 968 94 968 q 131 960 122 968 q 139 939 139 953 q 131 917 139 925 q 108 908 122 908 m 328 908 q 306 916 314 908 q 297 938 297 924 q 306 960 297 951 q 328 968 314 968 q 350 960 342 968 q 358 938 358 951 q 350 916 358 924 q 328 908 342 908 m 272 1278 l 314 1278 l 232 1107 l 211 1107 l 272 1278 z "},"İ":{"ha":432,"x_min":76,"x_max":354,"o":"m 76 31 l 194 31 l 194 751 l 76 751 l 76 782 l 354 782 l 354 751 l 236 751 l 236 31 l 354 31 l 354 0 l 76 0 l 76 31 m 218 907 q 187 919 197 907 q 176 944 176 931 q 187 972 176 961 q 218 983 197 983 q 249 972 239 983 q 260 944 260 961 q 249 919 260 931 q 218 907 238 907 z "},"Ị":{"ha":432,"x_min":76,"x_max":354,"o":"m 76 31 l 194 31 l 194 751 l 76 751 l 76 782 l 354 782 l 354 751 l 236 751 l 236 31 l 354 31 l 354 0 l 76 0 l 76 31 m 217 -149 q 185 -137 196 -149 q 175 -111 175 -125 q 185 -83 175 -94 q 217 -72 196 -72 q 248 -83 238 -72 q 258 -111 258 -94 q 247 -137 258 -125 q 217 -149 236 -149 z "},"Ì":{"ha":432,"x_min":76,"x_max":354,"o":"m 76 31 l 194 31 l 194 751 l 76 751 l 76 782 l 354 782 l 354 751 l 236 751 l 236 31 l 354 31 l 354 0 l 76 0 l 76 31 m 122 1078 l 164 1078 l 225 907 l 203 907 l 122 1078 z "},"Ỉ":{"ha":432,"x_min":76,"x_max":354,"o":"m 76 31 l 194 31 l 194 751 l 76 751 l 76 782 l 354 782 l 354 751 l 236 751 l 236 31 l 354 31 l 354 0 l 76 0 l 76 31 m 206 874 q 246 922 246 890 q 233 952 246 942 q 199 963 221 963 q 139 944 171 963 l 125 975 q 201 994 164 994 q 259 975 238 994 q 281 925 281 956 q 265 876 281 894 q 218 844 250 857 l 206 874 z "},"Ȋ":{"ha":432,"x_min":76,"x_max":354,"o":"m 76 31 l 194 31 l 194 751 l 76 751 l 76 782 l 354 782 l 354 751 l 236 751 l 236 31 l 354 31 l 354 0 l 76 0 l 76 31 m 118 893 q 218 986 138 986 q 318 893 301 986 l 290 893 q 218 956 272 956 q 146 893 163 956 l 118 893 z "},"Ī":{"ha":432,"x_min":76,"x_max":354,"o":"m 76 31 l 194 31 l 194 751 l 76 751 l 76 782 l 354 782 l 354 751 l 236 751 l 236 31 l 354 31 l 354 0 l 76 0 l 76 31 m 90 935 l 346 935 l 346 907 l 90 907 l 90 935 z "},"Į":{"ha":432,"x_min":76,"x_max":354,"o":"m 76 31 l 194 31 l 194 751 l 76 751 l 76 782 l 354 782 l 354 751 l 236 751 l 236 31 l 354 31 l 354 0 l 76 0 l 76 31 m 213 -212 q 149 -190 175 -212 q 122 -129 122 -168 q 199 0 122 -65 l 229 0 q 178 -62 196 -33 q 161 -119 161 -92 q 178 -166 161 -150 q 224 -182 196 -182 q 289 -158 257 -182 l 289 -186 q 213 -212 251 -212 z "},"Ĩ":{"ha":432,"x_min":76,"x_max":357,"o":"m 76 31 l 194 31 l 194 751 l 76 751 l 76 782 l 354 782 l 354 751 l 236 751 l 236 31 l 354 31 l 354 0 l 76 0 l 76 31 m 292 907 q 258 914 274 907 q 217 936 242 921 q 175 957 190 950 q 144 964 160 964 q 107 908 107 964 l 79 908 q 97 970 79 946 q 144 994 114 994 q 178 988 163 994 q 219 965 194 981 q 261 944 246 951 q 292 938 276 938 q 319 951 310 938 q 329 992 329 964 l 357 992 q 342 928 357 949 q 292 907 326 907 z "},"J":{"ha":385,"x_min":68,"x_max":342,"o":"m 68 -12 l 151 -12 q 202 13 190 -12 q 214 108 214 39 l 214 751 l 124 751 l 124 782 l 342 782 l 342 751 l 257 751 l 257 101 q 245 9 257 40 q 210 -33 233 -22 q 144 -44 186 -44 l 68 -44 l 68 -12 z "},"Ĵ":{"ha":385,"x_min":68,"x_max":369,"o":"m 68 -12 l 151 -12 q 202 13 190 -12 q 214 108 214 39 l 214 751 l 124 751 l 124 782 l 342 782 l 342 751 l 257 751 l 257 101 q 245 9 257 40 q 210 -33 233 -22 q 144 -44 186 -44 l 68 -44 l 68 -12 m 222 1075 l 251 1075 l 369 865 l 336 865 l 236 1046 l 136 865 l 103 865 l 222 1075 z "},"K":{"ha":883,"x_min":83,"x_max":826,"o":"m 83 31 l 201 31 l 201 751 l 83 751 l 83 782 l 361 782 l 361 751 l 243 751 l 243 401 l 640 751 l 535 751 l 535 782 l 804 782 l 804 751 l 689 751 l 293 399 l 717 31 l 826 31 l 826 0 l 561 0 l 561 31 l 665 31 l 243 394 l 243 31 l 361 31 l 361 0 l 83 0 l 83 31 z "},"Ǩ":{"ha":883,"x_min":83,"x_max":826,"o":"m 83 31 l 201 31 l 201 751 l 83 751 l 83 782 l 361 782 l 361 751 l 243 751 l 243 401 l 640 751 l 535 751 l 535 782 l 804 782 l 804 751 l 689 751 l 293 399 l 717 31 l 826 31 l 826 0 l 561 0 l 561 31 l 665 31 l 243 394 l 243 31 l 361 31 l 361 0 l 83 0 l 83 31 m 317 1101 l 350 1101 l 449 925 l 547 1101 l 579 1101 l 463 893 l 436 893 l 317 1101 z "},"Ķ":{"ha":883,"x_min":83,"x_max":826,"o":"m 83 31 l 201 31 l 201 751 l 83 751 l 83 782 l 361 782 l 361 751 l 243 751 l 243 401 l 640 751 l 535 751 l 535 782 l 804 782 l 804 751 l 689 751 l 293 399 l 717 31 l 826 31 l 826 0 l 561 0 l 561 31 l 665 31 l 243 394 l 243 31 l 361 31 l 361 0 l 83 0 l 83 31 m 422 -243 q 463 -215 454 -240 q 471 -137 471 -190 l 432 -137 l 432 -72 l 499 -72 l 499 -146 q 483 -231 499 -200 q 422 -260 468 -261 l 422 -243 z "},"L":{"ha":718,"x_min":83,"x_max":682,"o":"m 83 31 l 201 31 l 201 751 l 83 751 l 83 782 l 361 782 l 361 751 l 243 751 l 243 31 l 647 31 l 647 253 l 682 253 l 682 0 l 83 0 l 83 31 z "},"Ǉ":{"ha":1103,"x_min":83,"x_max":1060,"o":"m 83 31 l 201 31 l 201 751 l 83 751 l 83 782 l 361 782 l 361 751 l 243 751 l 243 31 l 647 31 l 647 253 l 682 253 l 682 0 l 83 0 l 83 31 m 786 -12 l 869 -12 q 920 13 908 -12 q 932 108 932 39 l 932 751 l 842 751 l 842 782 l 1060 782 l 1060 751 l 975 751 l 975 101 q 963 9 975 40 q 928 -33 951 -22 q 863 -44 904 -44 l 786 -44 l 786 -12 z "},"Ĺ":{"ha":718,"x_min":83,"x_max":682,"o":"m 83 31 l 201 31 l 201 751 l 83 751 l 83 782 l 361 782 l 361 751 l 243 751 l 243 31 l 647 31 l 647 253 l 682 253 l 682 0 l 83 0 l 83 31 m 276 1078 l 318 1078 l 236 907 l 215 907 l 276 1078 z "},"Ľ":{"ha":718,"x_min":83,"x_max":683,"o":"m 83 31 l 201 31 l 201 751 l 83 751 l 83 782 l 361 782 l 361 751 l 243 751 l 243 31 l 647 31 l 647 253 l 682 253 l 682 0 l 83 0 l 83 31 m 610 614 q 647 636 638 618 q 656 708 656 654 l 615 708 l 615 782 l 683 782 l 682 704 q 667 625 682 653 q 610 597 651 597 l 610 614 z "},"Ļ":{"ha":718,"x_min":83,"x_max":682,"o":"m 83 31 l 201 31 l 201 751 l 83 751 l 83 782 l 361 782 l 361 751 l 243 751 l 243 31 l 647 31 l 647 253 l 682 253 l 682 0 l 83 0 l 83 31 m 396 -243 q 436 -215 428 -240 q 444 -137 444 -190 l 406 -137 l 406 -72 l 472 -72 l 472 -146 q 457 -231 472 -200 q 396 -260 442 -261 l 396 -243 z "},"Ŀ":{"ha":718,"x_min":83,"x_max":682,"o":"m 83 31 l 201 31 l 201 751 l 83 751 l 83 782 l 361 782 l 361 751 l 243 751 l 243 31 l 647 31 l 647 253 l 682 253 l 682 0 l 83 0 l 83 31 m 576 446 q 549 456 560 446 q 538 485 538 467 q 549 513 538 503 q 576 524 560 524 q 604 513 593 524 q 615 485 615 503 q 604 456 615 467 q 576 446 593 446 z "},"Ḷ":{"ha":718,"x_min":83,"x_max":682,"o":"m 83 31 l 201 31 l 201 751 l 83 751 l 83 782 l 361 782 l 361 751 l 243 751 l 243 31 l 647 31 l 647 253 l 682 253 l 682 0 l 83 0 l 83 31 m 435 -149 q 403 -137 414 -149 q 393 -111 393 -125 q 403 -83 393 -94 q 435 -72 414 -72 q 466 -83 456 -72 q 476 -111 476 -94 q 465 -137 476 -125 q 435 -149 454 -149 z "},"ǈ":{"ha":999,"x_min":83,"x_max":915,"o":"m 83 31 l 201 31 l 201 751 l 83 751 l 83 782 l 361 782 l 361 751 l 243 751 l 243 31 l 647 31 l 647 253 l 682 253 l 682 0 l 83 0 l 83 31 m 878 689 q 851 699 863 689 q 840 724 840 708 q 851 747 840 738 q 878 756 863 756 q 905 747 894 756 q 915 724 915 738 q 905 699 915 708 q 878 689 894 689 m 732 -139 l 776 -139 q 848 -115 828 -139 q 868 -29 868 -90 l 868 518 l 761 518 l 761 546 l 911 546 l 911 -28 q 878 -135 911 -100 q 774 -169 844 -169 l 732 -169 l 732 -139 z "},"Ḻ":{"ha":718,"x_min":83,"x_max":682,"o":"m 83 31 l 201 31 l 201 751 l 83 751 l 83 782 l 361 782 l 361 751 l 243 751 l 243 31 l 647 31 l 647 253 l 682 253 l 682 0 l 83 0 l 83 31 m 307 -72 l 563 -72 l 563 -100 l 307 -100 l 307 -72 z "},"Ł":{"ha":718,"x_min":83,"x_max":682,"o":"m 682 253 l 682 0 l 83 0 l 83 31 l 201 31 l 201 358 l 83 292 l 83 329 l 201 397 l 201 751 l 83 751 l 83 782 l 361 782 l 361 751 l 243 751 l 243 422 l 393 508 l 393 468 l 243 382 l 243 31 l 647 31 l 647 253 l 682 253 z "},"M":{"ha":988,"x_min":36,"x_max":951,"o":"m 36 31 l 140 31 l 140 751 l 36 751 l 36 782 l 188 782 l 501 144 l 797 782 l 951 782 l 951 751 l 847 751 l 847 31 l 951 31 l 951 0 l 700 0 l 700 31 l 807 31 l 807 714 l 504 67 l 496 67 l 178 714 l 178 31 l 283 31 l 283 0 l 36 0 l 36 31 z "},"Ṁ":{"ha":988,"x_min":36,"x_max":951,"o":"m 36 31 l 140 31 l 140 751 l 36 751 l 36 782 l 188 782 l 501 144 l 797 782 l 951 782 l 951 751 l 847 751 l 847 31 l 951 31 l 951 0 l 700 0 l 700 31 l 807 31 l 807 714 l 504 67 l 496 67 l 178 714 l 178 31 l 283 31 l 283 0 l 36 0 l 36 31 m 486 907 q 455 919 465 907 q 444 944 444 931 q 455 972 444 961 q 486 983 465 983 q 517 972 507 983 q 528 944 528 961 q 517 919 528 931 q 486 907 506 907 z "},"Ṃ":{"ha":988,"x_min":36,"x_max":951,"o":"m 36 31 l 140 31 l 140 751 l 36 751 l 36 782 l 188 782 l 501 144 l 797 782 l 951 782 l 951 751 l 847 751 l 847 31 l 951 31 l 951 0 l 700 0 l 700 31 l 807 31 l 807 714 l 504 67 l 496 67 l 178 714 l 178 31 l 283 31 l 283 0 l 36 0 l 36 31 m 500 -149 q 469 -137 479 -149 q 458 -111 458 -125 q 469 -83 458 -94 q 500 -72 479 -72 q 531 -83 521 -72 q 542 -111 542 -94 q 531 -137 542 -125 q 500 -149 519 -149 z "},"N":{"ha":979,"x_min":89,"x_max":926,"o":"m 89 31 l 189 31 l 189 751 l 89 751 l 89 782 l 228 782 l 801 58 l 801 751 l 697 751 l 697 782 l 926 782 l 926 751 l 839 751 l 839 0 l 797 0 l 228 719 l 228 31 l 329 31 l 329 0 l 89 0 l 89 31 z "},"Ǌ":{"ha":1364,"x_min":89,"x_max":1321,"o":"m 89 31 l 189 31 l 189 751 l 89 751 l 89 782 l 228 782 l 801 58 l 801 751 l 697 751 l 697 782 l 926 782 l 926 751 l 839 751 l 839 0 l 797 0 l 228 719 l 228 31 l 329 31 l 329 0 l 89 0 l 89 31 m 1047 -12 l 1131 -12 q 1181 13 1169 -12 q 1193 108 1193 39 l 1193 751 l 1103 751 l 1103 782 l 1321 782 l 1321 751 l 1236 751 l 1236 101 q 1224 9 1236 40 q 1189 -33 1213 -22 q 1124 -44 1165 -44 l 1047 -44 l 1047 -12 z "},"Ń":{"ha":979,"x_min":89,"x_max":926,"o":"m 89 31 l 189 31 l 189 751 l 89 751 l 89 782 l 228 782 l 801 58 l 801 751 l 697 751 l 697 782 l 926 782 l 926 751 l 839 751 l 839 0 l 797 0 l 228 719 l 228 31 l 329 31 l 329 0 l 89 0 l 89 31 m 543 1078 l 585 1078 l 503 907 l 482 907 l 543 1078 z "},"Ň":{"ha":979,"x_min":89,"x_max":926,"o":"m 89 31 l 189 31 l 189 751 l 89 751 l 89 782 l 228 782 l 801 58 l 801 751 l 697 751 l 697 782 l 926 782 l 926 751 l 839 751 l 839 0 l 797 0 l 228 719 l 228 31 l 329 31 l 329 0 l 89 0 l 89 31 m 357 1101 l 390 1101 l 489 925 l 588 1101 l 619 1101 l 503 893 l 476 893 l 357 1101 z "},"Ņ":{"ha":979,"x_min":89,"x_max":926,"o":"m 89 31 l 189 31 l 189 751 l 89 751 l 89 782 l 228 782 l 801 58 l 801 751 l 697 751 l 697 782 l 926 782 l 926 751 l 839 751 l 839 0 l 797 0 l 228 719 l 228 31 l 329 31 l 329 0 l 89 0 l 89 31 m 494 -243 q 535 -215 526 -240 q 543 -137 543 -190 l 504 -137 l 504 -72 l 571 -72 l 571 -146 q 556 -231 571 -200 q 494 -260 540 -261 l 494 -243 z "},"Ṅ":{"ha":979,"x_min":89,"x_max":926,"o":"m 89 31 l 189 31 l 189 751 l 89 751 l 89 782 l 228 782 l 801 58 l 801 751 l 697 751 l 697 782 l 926 782 l 926 751 l 839 751 l 839 0 l 797 0 l 228 719 l 228 31 l 329 31 l 329 0 l 89 0 l 89 31 m 489 907 q 458 919 468 907 q 447 944 447 931 q 458 972 447 961 q 489 983 468 983 q 520 972 510 983 q 531 944 531 961 q 519 919 531 931 q 489 907 508 907 z "},"Ṇ":{"ha":979,"x_min":89,"x_max":926,"o":"m 89 31 l 189 31 l 189 751 l 89 751 l 89 782 l 228 782 l 801 58 l 801 751 l 697 751 l 697 782 l 926 782 l 926 751 l 839 751 l 839 0 l 797 0 l 228 719 l 228 31 l 329 31 l 329 0 l 89 0 l 89 31 m 533 -149 q 502 -137 513 -149 q 492 -111 492 -125 q 502 -83 492 -94 q 533 -72 513 -72 q 565 -83 554 -72 q 575 -111 575 -94 q 564 -137 575 -125 q 533 -149 553 -149 z "},"Ǹ":{"ha":979,"x_min":89,"x_max":926,"o":"m 89 31 l 189 31 l 189 751 l 89 751 l 89 782 l 228 782 l 801 58 l 801 751 l 697 751 l 697 782 l 926 782 l 926 751 l 839 751 l 839 0 l 797 0 l 228 719 l 228 31 l 329 31 l 329 0 l 89 0 l 89 31 m 393 1078 l 435 1078 l 496 907 l 474 907 l 393 1078 z "},"Ŋ":{"ha":974,"x_min":83,"x_max":921,"o":"m 578 -211 l 583 -211 q 744 -156 693 -211 q 796 -3 796 -100 l 222 719 l 222 31 l 324 31 l 324 0 l 83 0 l 83 31 l 183 31 l 183 751 l 83 751 l 83 782 l 222 782 l 796 58 l 796 751 l 692 751 l 692 782 l 921 782 l 921 751 l 833 751 l 833 -1 q 768 -183 833 -122 q 585 -244 703 -244 l 578 -244 l 578 -211 z "},"ǋ":{"ha":1260,"x_min":89,"x_max":1176,"o":"m 89 31 l 189 31 l 189 751 l 89 751 l 89 782 l 228 782 l 801 58 l 801 751 l 697 751 l 697 782 l 926 782 l 926 751 l 839 751 l 839 0 l 797 0 l 228 719 l 228 31 l 329 31 l 329 0 l 89 0 l 89 31 m 1139 689 q 1113 699 1124 689 q 1101 724 1101 708 q 1113 747 1101 738 q 1139 756 1124 756 q 1166 747 1156 756 q 1176 724 1176 738 q 1166 699 1176 708 q 1139 689 1156 689 m 993 -139 l 1038 -139 q 1109 -115 1089 -139 q 1129 -29 1129 -90 l 1129 518 l 1022 518 l 1022 546 l 1172 546 l 1172 -28 q 1139 -135 1172 -100 q 1035 -169 1106 -169 l 993 -169 l 993 -139 z "},"Ṉ":{"ha":979,"x_min":89,"x_max":926,"o":"m 89 31 l 189 31 l 189 751 l 89 751 l 89 782 l 228 782 l 801 58 l 801 751 l 697 751 l 697 782 l 926 782 l 926 751 l 839 751 l 839 0 l 797 0 l 228 719 l 228 31 l 329 31 l 329 0 l 89 0 l 89 31 m 406 -72 l 661 -72 l 661 -100 l 406 -100 l 406 -72 z "},"Ñ":{"ha":979,"x_min":89,"x_max":926,"o":"m 89 31 l 189 31 l 189 751 l 89 751 l 89 782 l 228 782 l 801 58 l 801 751 l 697 751 l 697 782 l 926 782 l 926 751 l 839 751 l 839 0 l 797 0 l 228 719 l 228 31 l 329 31 l 329 0 l 89 0 l 89 31 m 563 907 q 528 914 544 907 q 488 936 513 921 q 446 957 461 950 q 415 964 431 964 q 378 908 378 964 l 350 908 q 367 970 350 946 q 415 994 385 994 q 449 988 433 994 q 490 965 465 981 q 532 944 517 951 q 563 938 547 938 q 590 951 581 938 q 600 992 600 964 l 628 992 q 613 928 628 949 q 563 907 597 907 z "},"O":{"ha":986,"x_min":85,"x_max":903,"o":"m 492 -15 q 267 43 360 -15 q 130 194 175 101 q 85 388 85 286 q 131 584 85 490 q 269 737 176 678 q 493 796 361 796 q 718 737 625 796 q 857 584 811 678 q 903 388 903 490 q 857 192 903 285 q 719 42 811 100 q 492 -15 626 -15 m 493 18 q 695 72 613 18 q 819 210 778 125 q 861 388 861 294 q 819 567 861 481 q 694 708 778 653 q 493 764 611 764 q 291 709 374 764 q 167 567 208 654 q 126 388 126 481 q 167 207 126 292 q 290 70 207 122 q 493 18 372 18 z "},"Ó":{"ha":986,"x_min":85,"x_max":903,"o":"m 492 -15 q 267 43 360 -15 q 130 194 175 101 q 85 388 85 286 q 131 584 85 490 q 269 737 176 678 q 493 796 361 796 q 718 737 625 796 q 857 584 811 678 q 903 388 903 490 q 857 192 903 285 q 719 42 811 100 q 492 -15 626 -15 m 493 18 q 695 72 613 18 q 819 210 778 125 q 861 388 861 294 q 819 567 861 481 q 694 708 778 653 q 493 764 611 764 q 291 709 374 764 q 167 567 208 654 q 126 388 126 481 q 167 207 126 292 q 290 70 207 122 q 493 18 372 18 m 546 1078 l 588 1078 l 506 907 l 485 907 l 546 1078 z "},"Ŏ":{"ha":986,"x_min":85,"x_max":903,"o":"m 492 -15 q 267 43 360 -15 q 130 194 175 101 q 85 388 85 286 q 131 584 85 490 q 269 737 176 678 q 493 796 361 796 q 718 737 625 796 q 857 584 811 678 q 903 388 903 490 q 857 192 903 285 q 719 42 811 100 q 492 -15 626 -15 m 493 18 q 695 72 613 18 q 819 210 778 125 q 861 388 861 294 q 819 567 861 481 q 694 708 778 653 q 493 764 611 764 q 291 709 374 764 q 167 567 208 654 q 126 388 126 481 q 167 207 126 292 q 290 70 207 122 q 493 18 372 18 m 492 907 q 426 931 451 907 q 392 1000 400 954 l 418 1000 q 492 936 435 936 q 564 1000 546 936 l 590 1000 q 492 907 574 907 z "},"Ǒ":{"ha":986,"x_min":85,"x_max":903,"o":"m 492 -15 q 267 43 360 -15 q 130 194 175 101 q 85 388 85 286 q 131 584 85 490 q 269 737 176 678 q 493 796 361 796 q 718 737 625 796 q 857 584 811 678 q 903 388 903 490 q 857 192 903 285 q 719 42 811 100 q 492 -15 626 -15 m 493 18 q 695 72 613 18 q 819 210 778 125 q 861 388 861 294 q 819 567 861 481 q 694 708 778 653 q 493 764 611 764 q 291 709 374 764 q 167 567 208 654 q 126 388 126 481 q 167 207 126 292 q 290 70 207 122 q 493 18 372 18 m 360 1101 l 393 1101 l 492 925 l 590 1101 l 622 1101 l 506 893 l 479 893 l 360 1101 z "},"Ô":{"ha":986,"x_min":85,"x_max":903,"o":"m 492 -15 q 267 43 360 -15 q 130 194 175 101 q 85 388 85 286 q 131 584 85 490 q 269 737 176 678 q 493 796 361 796 q 718 737 625 796 q 857 584 811 678 q 903 388 903 490 q 857 192 903 285 q 719 42 811 100 q 492 -15 626 -15 m 493 18 q 695 72 613 18 q 819 210 778 125 q 861 388 861 294 q 819 567 861 481 q 694 708 778 653 q 493 764 611 764 q 291 709 374 764 q 167 567 208 654 q 126 388 126 481 q 167 207 126 292 q 290 70 207 122 q 493 18 372 18 m 478 1075 l 507 1075 l 625 865 l 592 865 l 492 1046 l 392 865 l 358 865 l 478 1075 z "},"Ố":{"ha":986,"x_min":85,"x_max":903,"o":"m 492 -15 q 267 43 360 -15 q 130 194 175 101 q 85 388 85 286 q 131 584 85 490 q 269 737 176 678 q 493 796 361 796 q 718 737 625 796 q 857 584 811 678 q 903 388 903 490 q 857 192 903 285 q 719 42 811 100 q 492 -15 626 -15 m 493 18 q 695 72 613 18 q 819 210 778 125 q 861 388 861 294 q 819 567 861 481 q 694 708 778 653 q 493 764 611 764 q 291 709 374 764 q 167 567 208 654 q 126 388 126 481 q 167 207 126 292 q 290 70 207 122 q 493 18 372 18 m 633 1142 l 672 1142 l 599 986 l 576 986 l 633 1142 m 478 1033 l 507 1033 l 625 865 l 592 865 l 492 1004 l 392 865 l 358 865 l 478 1033 z "},"Ộ":{"ha":986,"x_min":85,"x_max":903,"o":"m 492 -15 q 267 43 360 -15 q 130 194 175 101 q 85 388 85 286 q 131 584 85 490 q 269 737 176 678 q 493 796 361 796 q 718 737 625 796 q 857 584 811 678 q 903 388 903 490 q 857 192 903 285 q 719 42 811 100 q 492 -15 626 -15 m 493 18 q 695 72 613 18 q 819 210 778 125 q 861 388 861 294 q 819 567 861 481 q 694 708 778 653 q 493 764 611 764 q 291 709 374 764 q 167 567 208 654 q 126 388 126 481 q 167 207 126 292 q 290 70 207 122 q 493 18 372 18 m 493 -149 q 462 -137 472 -149 q 451 -111 451 -125 q 462 -83 451 -94 q 493 -72 472 -72 q 524 -83 514 -72 q 535 -111 535 -94 q 524 -137 535 -125 q 493 -149 513 -149 m 478 1075 l 507 1075 l 625 865 l 592 865 l 492 1046 l 392 865 l 358 865 l 478 1075 z "},"Ồ":{"ha":986,"x_min":85,"x_max":903,"o":"m 492 -15 q 267 43 360 -15 q 130 194 175 101 q 85 388 85 286 q 131 584 85 490 q 269 737 176 678 q 493 796 361 796 q 718 737 625 796 q 857 584 811 678 q 903 388 903 490 q 857 192 903 285 q 719 42 811 100 q 492 -15 626 -15 m 493 18 q 695 72 613 18 q 819 210 778 125 q 861 388 861 294 q 819 567 861 481 q 694 708 778 653 q 493 764 611 764 q 291 709 374 764 q 167 567 208 654 q 126 388 126 481 q 167 207 126 292 q 290 70 207 122 q 493 18 372 18 m 594 986 l 521 1142 l 560 1142 l 617 986 l 594 986 m 478 1033 l 507 1033 l 625 865 l 592 865 l 492 1004 l 392 865 l 358 865 l 478 1033 z "},"Ổ":{"ha":986,"x_min":85,"x_max":903,"o":"m 492 -15 q 267 43 360 -15 q 130 194 175 101 q 85 388 85 286 q 131 584 85 490 q 269 737 176 678 q 493 796 361 796 q 718 737 625 796 q 857 584 811 678 q 903 388 903 490 q 857 192 903 285 q 719 42 811 100 q 492 -15 626 -15 m 493 18 q 695 72 613 18 q 819 210 778 125 q 861 388 861 294 q 819 567 861 481 q 694 708 778 653 q 493 764 611 764 q 291 709 374 764 q 167 567 208 654 q 126 388 126 481 q 167 207 126 292 q 290 70 207 122 q 493 18 372 18 m 574 1010 q 614 1058 614 1026 q 601 1088 614 1078 q 567 1099 589 1099 q 507 1081 539 1099 l 493 1111 q 569 1131 532 1131 q 627 1111 606 1131 q 649 1061 649 1092 q 633 1012 649 1031 q 586 981 618 993 l 574 1010 m 478 1033 l 507 1033 l 625 865 l 592 865 l 492 1004 l 392 865 l 358 865 l 478 1033 z "},"Ỗ":{"ha":986,"x_min":85,"x_max":903,"o":"m 492 -15 q 267 43 360 -15 q 130 194 175 101 q 85 388 85 286 q 131 584 85 490 q 269 737 176 678 q 493 796 361 796 q 718 737 625 796 q 857 584 811 678 q 903 388 903 490 q 857 192 903 285 q 719 42 811 100 q 492 -15 626 -15 m 493 18 q 695 72 613 18 q 819 210 778 125 q 861 388 861 294 q 819 567 861 481 q 694 708 778 653 q 493 764 611 764 q 291 709 374 764 q 167 567 208 654 q 126 388 126 481 q 167 207 126 292 q 290 70 207 122 q 493 18 372 18 m 553 1056 q 523 1061 538 1056 q 488 1078 508 1067 q 456 1092 472 1086 q 426 1099 440 1099 q 393 1057 393 1099 l 365 1057 q 383 1108 365 1088 q 431 1129 401 1129 q 460 1124 446 1129 q 496 1107 475 1118 q 554 1086 532 1086 q 578 1097 569 1086 q 588 1126 588 1107 l 615 1126 q 553 1056 615 1056 m 478 1033 l 507 1033 l 625 865 l 592 865 l 492 1004 l 392 865 l 358 865 l 478 1033 z "},"Ȍ":{"ha":986,"x_min":85,"x_max":903,"o":"m 492 -15 q 267 43 360 -15 q 130 194 175 101 q 85 388 85 286 q 131 584 85 490 q 269 737 176 678 q 493 796 361 796 q 718 737 625 796 q 857 584 811 678 q 903 388 903 490 q 857 192 903 285 q 719 42 811 100 q 492 -15 626 -15 m 493 18 q 695 72 613 18 q 819 210 778 125 q 861 388 861 294 q 819 567 861 481 q 694 708 778 653 q 493 764 611 764 q 291 709 374 764 q 167 567 208 654 q 126 388 126 481 q 167 207 126 292 q 290 70 207 122 q 493 18 372 18 m 310 1108 l 351 1108 l 424 907 l 403 907 l 310 1108 m 442 1108 l 482 1108 l 556 907 l 535 907 l 442 1108 z "},"Ö":{"ha":986,"x_min":85,"x_max":903,"o":"m 492 -15 q 267 43 360 -15 q 130 194 175 101 q 85 388 85 286 q 131 584 85 490 q 269 737 176 678 q 493 796 361 796 q 718 737 625 796 q 857 584 811 678 q 903 388 903 490 q 857 192 903 285 q 719 42 811 100 q 492 -15 626 -15 m 493 18 q 695 72 613 18 q 819 210 778 125 q 861 388 861 294 q 819 567 861 481 q 694 708 778 653 q 493 764 611 764 q 291 709 374 764 q 167 567 208 654 q 126 388 126 481 q 167 207 126 292 q 290 70 207 122 q 493 18 372 18 m 382 908 q 360 917 368 908 q 351 939 351 925 q 360 960 351 953 q 382 968 368 968 q 404 960 396 968 q 413 939 413 953 q 404 917 413 925 q 382 908 396 908 m 601 908 q 579 916 588 908 q 571 938 571 924 q 579 960 571 951 q 601 968 588 968 q 624 960 615 968 q 632 938 632 951 q 624 916 632 924 q 601 908 615 908 z "},"Ȫ":{"ha":986,"x_min":85,"x_max":903,"o":"m 492 -15 q 267 43 360 -15 q 130 194 175 101 q 85 388 85 286 q 131 584 85 490 q 269 737 176 678 q 493 796 361 796 q 718 737 625 796 q 857 584 811 678 q 903 388 903 490 q 857 192 903 285 q 719 42 811 100 q 492 -15 626 -15 m 493 18 q 695 72 613 18 q 819 210 778 125 q 861 388 861 294 q 819 567 861 481 q 694 708 778 653 q 493 764 611 764 q 291 709 374 764 q 167 567 208 654 q 126 388 126 481 q 167 207 126 292 q 290 70 207 122 q 493 18 372 18 m 382 908 q 360 917 368 908 q 351 939 351 925 q 360 960 351 953 q 382 968 368 968 q 404 960 396 968 q 413 939 413 953 q 404 917 413 925 q 382 908 396 908 m 601 908 q 579 916 588 908 q 571 938 571 924 q 579 960 571 951 q 601 968 588 968 q 624 960 615 968 q 632 938 632 951 q 624 916 632 924 q 601 908 615 908 m 364 1135 l 619 1135 l 619 1107 l 364 1107 l 364 1135 z "},"Ȯ":{"ha":986,"x_min":85,"x_max":903,"o":"m 492 -15 q 267 43 360 -15 q 130 194 175 101 q 85 388 85 286 q 131 584 85 490 q 269 737 176 678 q 493 796 361 796 q 718 737 625 796 q 857 584 811 678 q 903 388 903 490 q 857 192 903 285 q 719 42 811 100 q 492 -15 626 -15 m 493 18 q 695 72 613 18 q 819 210 778 125 q 861 388 861 294 q 819 567 861 481 q 694 708 778 653 q 493 764 611 764 q 291 709 374 764 q 167 567 208 654 q 126 388 126 481 q 167 207 126 292 q 290 70 207 122 q 493 18 372 18 m 492 907 q 460 919 471 907 q 450 944 450 931 q 460 972 450 961 q 492 983 471 983 q 523 972 513 983 q 533 944 533 961 q 522 919 533 931 q 492 907 511 907 z "},"Ȱ":{"ha":986,"x_min":85,"x_max":903,"o":"m 492 -15 q 267 43 360 -15 q 130 194 175 101 q 85 388 85 286 q 131 584 85 490 q 269 737 176 678 q 493 796 361 796 q 718 737 625 796 q 857 584 811 678 q 903 388 903 490 q 857 192 903 285 q 719 42 811 100 q 492 -15 626 -15 m 493 18 q 695 72 613 18 q 819 210 778 125 q 861 388 861 294 q 819 567 861 481 q 694 708 778 653 q 493 764 611 764 q 291 709 374 764 q 167 567 208 654 q 126 388 126 481 q 167 207 126 292 q 290 70 207 122 q 493 18 372 18 m 492 907 q 460 919 471 907 q 450 944 450 931 q 460 972 450 961 q 492 983 471 983 q 523 972 513 983 q 533 944 533 961 q 522 919 533 931 q 492 907 511 907 m 364 1136 l 619 1136 l 619 1108 l 364 1108 l 364 1136 z "},"Ọ":{"ha":986,"x_min":85,"x_max":903,"o":"m 492 -15 q 267 43 360 -15 q 130 194 175 101 q 85 388 85 286 q 131 584 85 490 q 269 737 176 678 q 493 796 361 796 q 718 737 625 796 q 857 584 811 678 q 903 388 903 490 q 857 192 903 285 q 719 42 811 100 q 492 -15 626 -15 m 493 18 q 695 72 613 18 q 819 210 778 125 q 861 388 861 294 q 819 567 861 481 q 694 708 778 653 q 493 764 611 764 q 291 709 374 764 q 167 567 208 654 q 126 388 126 481 q 167 207 126 292 q 290 70 207 122 q 493 18 372 18 m 493 -149 q 462 -137 472 -149 q 451 -111 451 -125 q 462 -83 451 -94 q 493 -72 472 -72 q 524 -83 514 -72 q 535 -111 535 -94 q 524 -137 535 -125 q 493 -149 513 -149 z "},"Ò":{"ha":986,"x_min":85,"x_max":903,"o":"m 492 -15 q 267 43 360 -15 q 130 194 175 101 q 85 388 85 286 q 131 584 85 490 q 269 737 176 678 q 493 796 361 796 q 718 737 625 796 q 857 584 811 678 q 903 388 903 490 q 857 192 903 285 q 719 42 811 100 q 492 -15 626 -15 m 493 18 q 695 72 613 18 q 819 210 778 125 q 861 388 861 294 q 819 567 861 481 q 694 708 778 653 q 493 764 611 764 q 291 709 374 764 q 167 567 208 654 q 126 388 126 481 q 167 207 126 292 q 290 70 207 122 q 493 18 372 18 m 396 1078 l 438 1078 l 499 907 l 476 907 l 396 1078 z "},"Ỏ":{"ha":986,"x_min":85,"x_max":903,"o":"m 492 -15 q 267 43 360 -15 q 130 194 175 101 q 85 388 85 286 q 131 584 85 490 q 269 737 176 678 q 493 796 361 796 q 718 737 625 796 q 857 584 811 678 q 903 388 903 490 q 857 192 903 285 q 719 42 811 100 q 492 -15 626 -15 m 493 18 q 695 72 613 18 q 819 210 778 125 q 861 388 861 294 q 819 567 861 481 q 694 708 778 653 q 493 764 611 764 q 291 709 374 764 q 167 567 208 654 q 126 388 126 481 q 167 207 126 292 q 290 70 207 122 q 493 18 372 18 m 479 874 q 519 922 519 890 q 507 952 519 942 q 472 963 494 963 q 413 944 444 963 l 399 975 q 475 994 438 994 q 533 975 511 994 q 554 925 554 956 q 539 876 554 894 q 492 844 524 857 l 479 874 z "},"Ơ":{"ha":986,"x_min":85,"x_max":903,"o":"m 667 763 q 842 610 781 715 q 903 388 903 506 q 857 192 903 285 q 719 42 811 100 q 492 -15 626 -15 q 267 43 360 -15 q 130 194 175 101 q 85 388 85 286 q 131 584 85 490 q 269 737 176 678 q 493 796 361 796 q 576 790 529 796 q 633 786 603 786 q 701 808 675 786 q 732 876 728 831 l 774 876 q 739 796 767 826 q 667 763 711 765 m 493 18 q 695 72 613 18 q 819 210 778 125 q 861 388 861 294 q 819 567 861 481 q 694 708 778 653 q 493 764 611 764 q 291 709 374 764 q 167 567 208 654 q 126 388 126 481 q 167 207 126 292 q 290 70 207 122 q 493 18 372 18 z "},"Ớ":{"ha":986,"x_min":85,"x_max":903,"o":"m 667 763 q 842 610 781 715 q 903 388 903 506 q 857 192 903 285 q 719 42 811 100 q 492 -15 626 -15 q 267 43 360 -15 q 130 194 175 101 q 85 388 85 286 q 131 584 85 490 q 269 737 176 678 q 493 796 361 796 q 576 790 529 796 q 633 786 603 786 q 701 808 675 786 q 732 876 728 831 l 774 876 q 739 796 767 826 q 667 763 711 765 m 493 18 q 695 72 613 18 q 819 210 778 125 q 861 388 861 294 q 819 567 861 481 q 694 708 778 653 q 493 764 611 764 q 291 709 374 764 q 167 567 208 654 q 126 388 126 481 q 167 207 126 292 q 290 70 207 122 q 493 18 372 18 m 546 1078 l 588 1078 l 506 907 l 485 907 l 546 1078 z "},"Ợ":{"ha":986,"x_min":85,"x_max":903,"o":"m 667 763 q 842 610 781 715 q 903 388 903 506 q 857 192 903 285 q 719 42 811 100 q 492 -15 626 -15 q 267 43 360 -15 q 130 194 175 101 q 85 388 85 286 q 131 584 85 490 q 269 737 176 678 q 493 796 361 796 q 576 790 529 796 q 633 786 603 786 q 701 808 675 786 q 732 876 728 831 l 774 876 q 739 796 767 826 q 667 763 711 765 m 493 18 q 695 72 613 18 q 819 210 778 125 q 861 388 861 294 q 819 567 861 481 q 694 708 778 653 q 493 764 611 764 q 291 709 374 764 q 167 567 208 654 q 126 388 126 481 q 167 207 126 292 q 290 70 207 122 q 493 18 372 18 m 493 -149 q 462 -137 472 -149 q 451 -111 451 -125 q 462 -83 451 -94 q 493 -72 472 -72 q 524 -83 514 -72 q 535 -111 535 -94 q 524 -137 535 -125 q 493 -149 513 -149 z "},"Ờ":{"ha":986,"x_min":85,"x_max":903,"o":"m 667 763 q 842 610 781 715 q 903 388 903 506 q 857 192 903 285 q 719 42 811 100 q 492 -15 626 -15 q 267 43 360 -15 q 130 194 175 101 q 85 388 85 286 q 131 584 85 490 q 269 737 176 678 q 493 796 361 796 q 576 790 529 796 q 633 786 603 786 q 701 808 675 786 q 732 876 728 831 l 774 876 q 739 796 767 826 q 667 763 711 765 m 493 18 q 695 72 613 18 q 819 210 778 125 q 861 388 861 294 q 819 567 861 481 q 694 708 778 653 q 493 764 611 764 q 291 709 374 764 q 167 567 208 654 q 126 388 126 481 q 167 207 126 292 q 290 70 207 122 q 493 18 372 18 m 396 1078 l 438 1078 l 499 907 l 476 907 l 396 1078 z "},"Ở":{"ha":986,"x_min":85,"x_max":903,"o":"m 667 763 q 842 610 781 715 q 903 388 903 506 q 857 192 903 285 q 719 42 811 100 q 492 -15 626 -15 q 267 43 360 -15 q 130 194 175 101 q 85 388 85 286 q 131 584 85 490 q 269 737 176 678 q 493 796 361 796 q 576 790 529 796 q 633 786 603 786 q 701 808 675 786 q 732 876 728 831 l 774 876 q 739 796 767 826 q 667 763 711 765 m 493 18 q 695 72 613 18 q 819 210 778 125 q 861 388 861 294 q 819 567 861 481 q 694 708 778 653 q 493 764 611 764 q 291 709 374 764 q 167 567 208 654 q 126 388 126 481 q 167 207 126 292 q 290 70 207 122 q 493 18 372 18 m 479 874 q 519 922 519 890 q 507 952 519 942 q 472 963 494 963 q 413 944 444 963 l 399 975 q 475 994 438 994 q 533 975 511 994 q 554 925 554 956 q 539 876 554 894 q 492 844 524 857 l 479 874 z "},"Ỡ":{"ha":986,"x_min":85,"x_max":903,"o":"m 667 763 q 842 610 781 715 q 903 388 903 506 q 857 192 903 285 q 719 42 811 100 q 492 -15 626 -15 q 267 43 360 -15 q 130 194 175 101 q 85 388 85 286 q 131 584 85 490 q 269 737 176 678 q 493 796 361 796 q 576 790 529 796 q 633 786 603 786 q 701 808 675 786 q 732 876 728 831 l 774 876 q 739 796 767 826 q 667 763 711 765 m 493 18 q 695 72 613 18 q 819 210 778 125 q 861 388 861 294 q 819 567 861 481 q 694 708 778 653 q 493 764 611 764 q 291 709 374 764 q 167 567 208 654 q 126 388 126 481 q 167 207 126 292 q 290 70 207 122 q 493 18 372 18 m 565 907 q 531 914 547 907 q 490 936 515 921 q 449 957 464 950 q 418 964 433 964 q 381 908 381 964 l 353 908 q 370 970 353 946 q 418 994 388 994 q 452 988 436 994 q 493 965 468 981 q 535 944 519 951 q 565 938 550 938 q 593 951 583 938 q 603 992 603 964 l 631 992 q 615 928 631 949 q 565 907 600 907 z "},"Ő":{"ha":986,"x_min":85,"x_max":903,"o":"m 492 -15 q 267 43 360 -15 q 130 194 175 101 q 85 388 85 286 q 131 584 85 490 q 269 737 176 678 q 493 796 361 796 q 718 737 625 796 q 857 584 811 678 q 903 388 903 490 q 857 192 903 285 q 719 42 811 100 q 492 -15 626 -15 m 493 18 q 695 72 613 18 q 819 210 778 125 q 861 388 861 294 q 819 567 861 481 q 694 708 778 653 q 493 764 611 764 q 291 709 374 764 q 167 567 208 654 q 126 388 126 481 q 167 207 126 292 q 290 70 207 122 q 493 18 372 18 m 501 1108 l 543 1108 l 453 907 l 426 907 l 501 1108 m 632 1108 l 674 1108 l 585 907 l 558 907 l 632 1108 z "},"Ȏ":{"ha":986,"x_min":85,"x_max":903,"o":"m 492 -15 q 267 43 360 -15 q 130 194 175 101 q 85 388 85 286 q 131 584 85 490 q 269 737 176 678 q 493 796 361 796 q 718 737 625 796 q 857 584 811 678 q 903 388 903 490 q 857 192 903 285 q 719 42 811 100 q 492 -15 626 -15 m 493 18 q 695 72 613 18 q 819 210 778 125 q 861 388 861 294 q 819 567 861 481 q 694 708 778 653 q 493 764 611 764 q 291 709 374 764 q 167 567 208 654 q 126 388 126 481 q 167 207 126 292 q 290 70 207 122 q 493 18 372 18 m 392 893 q 492 986 411 986 q 592 893 575 986 l 564 893 q 492 956 546 956 q 419 893 436 956 l 392 893 z "},"Ō":{"ha":986,"x_min":85,"x_max":903,"o":"m 492 -15 q 267 43 360 -15 q 130 194 175 101 q 85 388 85 286 q 131 584 85 490 q 269 737 176 678 q 493 796 361 796 q 718 737 625 796 q 857 584 811 678 q 903 388 903 490 q 857 192 903 285 q 719 42 811 100 q 492 -15 626 -15 m 493 18 q 695 72 613 18 q 819 210 778 125 q 861 388 861 294 q 819 567 861 481 q 694 708 778 653 q 493 764 611 764 q 291 709 374 764 q 167 567 208 654 q 126 388 126 481 q 167 207 126 292 q 290 70 207 122 q 493 18 372 18 m 364 935 l 619 935 l 619 907 l 364 907 l 364 935 z "},"Ṓ":{"ha":986,"x_min":85,"x_max":903,"o":"m 492 -15 q 267 43 360 -15 q 130 194 175 101 q 85 388 85 286 q 131 584 85 490 q 269 737 176 678 q 493 796 361 796 q 718 737 625 796 q 857 584 811 678 q 903 388 903 490 q 857 192 903 285 q 719 42 811 100 q 492 -15 626 -15 m 493 18 q 695 72 613 18 q 819 210 778 125 q 861 388 861 294 q 819 567 861 481 q 694 708 778 653 q 493 764 611 764 q 291 709 374 764 q 167 567 208 654 q 126 388 126 481 q 167 207 126 292 q 290 70 207 122 q 493 18 372 18 m 364 935 l 619 935 l 619 907 l 364 907 l 364 935 m 546 1215 l 588 1215 l 506 1044 l 485 1044 l 546 1215 z "},"Ṑ":{"ha":986,"x_min":85,"x_max":903,"o":"m 492 -15 q 267 43 360 -15 q 130 194 175 101 q 85 388 85 286 q 131 584 85 490 q 269 737 176 678 q 493 796 361 796 q 718 737 625 796 q 857 584 811 678 q 903 388 903 490 q 857 192 903 285 q 719 42 811 100 q 492 -15 626 -15 m 493 18 q 695 72 613 18 q 819 210 778 125 q 861 388 861 294 q 819 567 861 481 q 694 708 778 653 q 493 764 611 764 q 291 709 374 764 q 167 567 208 654 q 126 388 126 481 q 167 207 126 292 q 290 70 207 122 q 493 18 372 18 m 364 935 l 619 935 l 619 907 l 364 907 l 364 935 m 396 1215 l 438 1215 l 499 1044 l 476 1044 l 396 1215 z "},"Ǫ":{"ha":986,"x_min":85,"x_max":903,"o":"m 903 388 q 859 197 903 288 q 726 47 815 106 q 510 -15 638 -11 q 456 -119 456 -72 q 473 -166 456 -150 q 518 -182 490 -182 q 583 -158 551 -182 l 583 -186 q 507 -212 546 -212 q 443 -190 469 -212 q 417 -129 417 -168 q 476 -15 417 -72 q 260 48 349 -11 q 128 198 172 107 q 85 388 85 289 q 131 584 85 490 q 269 737 176 678 q 493 796 361 796 q 718 737 625 796 q 857 584 811 678 q 903 388 903 490 m 126 388 q 167 207 126 292 q 290 70 207 122 q 493 18 372 18 q 695 72 613 18 q 819 210 778 125 q 861 388 861 294 q 819 567 861 481 q 694 708 778 653 q 493 764 611 764 q 291 709 374 764 q 167 567 208 654 q 126 388 126 481 z "},"Ø":{"ha":901,"x_min":42,"x_max":860,"o":"m 714 703 q 822 560 785 646 q 860 382 860 474 q 814 187 860 279 q 676 37 768 94 q 449 -21 583 -21 q 210 47 310 -21 l 136 -49 l 113 -32 l 186 64 q 78 206 115 121 q 42 382 42 292 q 88 578 42 485 q 226 731 133 672 q 450 790 318 790 q 693 719 590 790 l 774 824 l 794 808 l 714 703 m 83 382 q 115 221 83 297 q 208 92 147 144 l 671 690 q 450 758 578 758 q 248 703 331 758 q 124 562 165 649 q 83 382 83 475 m 450 13 q 652 66 569 13 q 776 204 735 119 q 818 382 818 289 q 785 541 818 463 q 692 674 753 619 l 231 75 q 450 13 322 13 z "},"Ǿ":{"ha":901,"x_min":42,"x_max":860,"o":"m 714 703 q 822 560 785 646 q 860 382 860 474 q 814 187 860 279 q 676 37 768 94 q 449 -21 583 -21 q 210 47 310 -21 l 136 -49 l 113 -32 l 186 64 q 78 206 115 121 q 42 382 42 292 q 88 578 42 485 q 226 731 133 672 q 450 790 318 790 q 693 719 590 790 l 774 824 l 794 808 l 714 703 m 83 382 q 115 221 83 297 q 208 92 147 144 l 671 690 q 450 758 578 758 q 248 703 331 758 q 124 562 165 649 q 83 382 83 475 m 450 13 q 652 66 569 13 q 776 204 735 119 q 818 382 818 289 q 785 541 818 463 q 692 674 753 619 l 231 75 q 450 13 322 13 m 506 1078 l 547 1078 l 465 907 l 444 907 l 506 1078 z "},"Õ":{"ha":986,"x_min":85,"x_max":903,"o":"m 492 -15 q 267 43 360 -15 q 130 194 175 101 q 85 388 85 286 q 131 584 85 490 q 269 737 176 678 q 493 796 361 796 q 718 737 625 796 q 857 584 811 678 q 903 388 903 490 q 857 192 903 285 q 719 42 811 100 q 492 -15 626 -15 m 493 18 q 695 72 613 18 q 819 210 778 125 q 861 388 861 294 q 819 567 861 481 q 694 708 778 653 q 493 764 611 764 q 291 709 374 764 q 167 567 208 654 q 126 388 126 481 q 167 207 126 292 q 290 70 207 122 q 493 18 372 18 m 565 907 q 531 914 547 907 q 490 936 515 921 q 449 957 464 950 q 418 964 433 964 q 381 908 381 964 l 353 908 q 370 970 353 946 q 418 994 388 994 q 452 988 436 994 q 493 965 468 981 q 535 944 519 951 q 565 938 550 938 q 593 951 583 938 q 603 992 603 964 l 631 992 q 615 928 631 949 q 565 907 600 907 z "},"Ṍ":{"ha":986,"x_min":85,"x_max":903,"o":"m 492 -15 q 267 43 360 -15 q 130 194 175 101 q 85 388 85 286 q 131 584 85 490 q 269 737 176 678 q 493 796 361 796 q 718 737 625 796 q 857 584 811 678 q 903 388 903 490 q 857 192 903 285 q 719 42 811 100 q 492 -15 626 -15 m 493 18 q 695 72 613 18 q 819 210 778 125 q 861 388 861 294 q 819 567 861 481 q 694 708 778 653 q 493 764 611 764 q 291 709 374 764 q 167 567 208 654 q 126 388 126 481 q 167 207 126 292 q 290 70 207 122 q 493 18 372 18 m 565 907 q 531 914 547 907 q 490 936 515 921 q 449 957 464 950 q 418 964 433 964 q 381 908 381 964 l 353 908 q 370 970 353 946 q 418 994 388 994 q 452 988 436 994 q 493 965 468 981 q 535 944 519 951 q 565 938 550 938 q 593 951 583 938 q 603 992 603 964 l 631 992 q 615 928 631 949 q 565 907 600 907 m 546 1271 l 588 1271 l 506 1100 l 485 1100 l 546 1271 z "},"Ṏ":{"ha":986,"x_min":85,"x_max":903,"o":"m 492 -15 q 267 43 360 -15 q 130 194 175 101 q 85 388 85 286 q 131 584 85 490 q 269 737 176 678 q 493 796 361 796 q 718 737 625 796 q 857 584 811 678 q 903 388 903 490 q 857 192 903 285 q 719 42 811 100 q 492 -15 626 -15 m 493 18 q 695 72 613 18 q 819 210 778 125 q 861 388 861 294 q 819 567 861 481 q 694 708 778 653 q 493 764 611 764 q 291 709 374 764 q 167 567 208 654 q 126 388 126 481 q 167 207 126 292 q 290 70 207 122 q 493 18 372 18 m 565 907 q 531 914 547 907 q 490 936 515 921 q 449 957 464 950 q 418 964 433 964 q 381 908 381 964 l 353 908 q 370 970 353 946 q 418 994 388 994 q 452 988 436 994 q 493 965 468 981 q 535 944 519 951 q 565 938 550 938 q 593 951 583 938 q 603 992 603 964 l 631 992 q 615 928 631 949 q 565 907 600 907 m 382 1101 q 360 1110 368 1101 q 351 1132 351 1118 q 360 1153 351 1146 q 382 1161 368 1161 q 404 1153 396 1161 q 413 1132 413 1146 q 404 1110 413 1118 q 382 1101 396 1101 m 601 1101 q 579 1109 588 1101 q 571 1131 571 1117 q 579 1153 571 1144 q 601 1161 588 1161 q 624 1153 615 1161 q 632 1131 632 1144 q 624 1109 632 1117 q 601 1101 615 1101 z "},"Ȭ":{"ha":986,"x_min":85,"x_max":903,"o":"m 492 -15 q 267 43 360 -15 q 130 194 175 101 q 85 388 85 286 q 131 584 85 490 q 269 737 176 678 q 493 796 361 796 q 718 737 625 796 q 857 584 811 678 q 903 388 903 490 q 857 192 903 285 q 719 42 811 100 q 492 -15 626 -15 m 493 18 q 695 72 613 18 q 819 210 778 125 q 861 388 861 294 q 819 567 861 481 q 694 708 778 653 q 493 764 611 764 q 291 709 374 764 q 167 567 208 654 q 126 388 126 481 q 167 207 126 292 q 290 70 207 122 q 493 18 372 18 m 565 907 q 531 914 547 907 q 490 936 515 921 q 449 957 464 950 q 418 964 433 964 q 381 908 381 964 l 353 908 q 370 970 353 946 q 418 994 388 994 q 452 988 436 994 q 493 965 468 981 q 535 944 519 951 q 565 938 550 938 q 593 951 583 938 q 603 992 603 964 l 631 992 q 615 928 631 949 q 565 907 600 907 m 364 1128 l 619 1128 l 619 1100 l 364 1100 l 364 1128 z "},"Œ":{"ha":1326,"x_min":85,"x_max":1235,"o":"m 528 0 q 203 103 321 0 q 85 388 86 206 q 203 677 86 572 q 528 782 321 782 l 1215 782 l 1215 533 l 1181 533 l 1181 747 l 719 747 l 719 400 l 1039 400 l 1039 517 l 1069 517 l 1069 238 l 1039 238 l 1039 367 l 719 367 l 719 33 l 1199 33 l 1199 264 l 1235 264 l 1235 0 l 528 0 m 678 33 l 678 747 l 529 747 q 235 652 343 747 q 126 388 126 557 q 175 199 126 279 q 315 76 224 119 q 529 33 406 33 l 678 33 z "},"P":{"ha":824,"x_min":83,"x_max":729,"o":"m 83 31 l 201 31 l 201 751 l 83 751 l 83 782 l 501 782 q 669 728 610 782 q 729 575 729 674 q 671 400 729 463 q 507 338 613 338 l 307 338 l 308 367 l 507 367 q 640 422 593 367 q 688 574 688 476 q 639 705 688 658 q 503 751 590 751 l 243 751 l 243 31 l 361 31 l 361 0 l 83 0 l 83 31 z "},"Ṗ":{"ha":824,"x_min":83,"x_max":729,"o":"m 83 31 l 201 31 l 201 751 l 83 751 l 83 782 l 501 782 q 669 728 610 782 q 729 575 729 674 q 671 400 729 463 q 507 338 613 338 l 307 338 l 308 367 l 507 367 q 640 422 593 367 q 688 574 688 476 q 639 705 688 658 q 503 751 590 751 l 243 751 l 243 31 l 361 31 l 361 0 l 83 0 l 83 31 m 453 907 q 422 919 432 907 q 411 944 411 931 q 422 972 411 961 q 453 983 432 983 q 484 972 474 983 q 494 944 494 961 q 483 919 494 931 q 453 907 472 907 z "},"Þ":{"ha":810,"x_min":76,"x_max":715,"o":"m 490 619 q 656 568 596 619 q 715 425 715 517 q 658 282 715 333 q 497 231 600 231 l 308 231 l 308 260 l 497 260 q 627 303 581 260 q 674 425 674 347 q 624 547 672 503 q 490 590 576 590 l 236 590 l 236 31 l 354 31 l 354 0 l 76 0 l 76 31 l 194 31 l 194 751 l 76 751 l 76 782 l 354 782 l 354 751 l 236 751 l 236 619 l 490 619 z "},"Q":{"ha":976,"x_min":85,"x_max":903,"o":"m 703 -143 q 588 -110 640 -143 q 482 -15 535 -76 q 262 46 351 -12 q 128 196 172 104 q 85 388 85 288 q 131 584 85 490 q 269 737 176 678 q 493 796 361 796 q 718 737 625 796 q 857 584 811 678 q 903 388 903 490 q 861 200 903 289 q 734 52 819 111 q 525 -14 649 -7 q 610 -88 567 -62 q 704 -114 653 -114 q 786 -99 746 -114 l 786 -129 q 703 -143 746 -143 m 493 18 q 695 72 613 18 q 819 210 778 125 q 861 388 861 294 q 819 567 861 481 q 694 708 778 653 q 493 764 611 764 q 291 709 374 764 q 167 567 208 654 q 126 388 126 481 q 167 207 126 292 q 290 70 207 122 q 493 18 372 18 z "},"R":{"ha":876,"x_min":83,"x_max":814,"o":"m 83 31 l 201 31 l 201 751 l 83 751 l 83 782 l 508 782 q 675 721 619 782 q 731 574 731 660 q 674 427 731 486 q 489 367 618 368 l 699 31 l 814 31 l 814 0 l 671 0 l 444 365 l 290 365 l 290 396 l 472 396 q 642 448 593 396 q 690 574 690 500 q 647 699 690 647 q 511 751 604 751 l 243 751 l 243 31 l 361 31 l 361 0 l 83 0 l 83 31 z "},"Ŕ":{"ha":876,"x_min":83,"x_max":814,"o":"m 83 31 l 201 31 l 201 751 l 83 751 l 83 782 l 508 782 q 675 721 619 782 q 731 574 731 660 q 674 427 731 486 q 489 367 618 368 l 699 31 l 814 31 l 814 0 l 671 0 l 444 365 l 290 365 l 290 396 l 472 396 q 642 448 593 396 q 690 574 690 500 q 647 699 690 647 q 511 751 604 751 l 243 751 l 243 31 l 361 31 l 361 0 l 83 0 l 83 31 m 494 1078 l 536 1078 l 454 907 l 433 907 l 494 1078 z "},"Ř":{"ha":876,"x_min":83,"x_max":814,"o":"m 83 31 l 201 31 l 201 751 l 83 751 l 83 782 l 508 782 q 675 721 619 782 q 731 574 731 660 q 674 427 731 486 q 489 367 618 368 l 699 31 l 814 31 l 814 0 l 671 0 l 444 365 l 290 365 l 290 396 l 472 396 q 642 448 593 396 q 690 574 690 500 q 647 699 690 647 q 511 751 604 751 l 243 751 l 243 31 l 361 31 l 361 0 l 83 0 l 83 31 m 308 1101 l 342 1101 l 440 925 l 539 1101 l 571 1101 l 454 893 l 428 893 l 308 1101 z "},"Ŗ":{"ha":876,"x_min":83,"x_max":814,"o":"m 83 31 l 201 31 l 201 751 l 83 751 l 83 782 l 508 782 q 675 721 619 782 q 731 574 731 660 q 674 427 731 486 q 489 367 618 368 l 699 31 l 814 31 l 814 0 l 671 0 l 444 365 l 290 365 l 290 396 l 472 396 q 642 448 593 396 q 690 574 690 500 q 647 699 690 647 q 511 751 604 751 l 243 751 l 243 31 l 361 31 l 361 0 l 83 0 l 83 31 m 443 -243 q 483 -215 475 -240 q 492 -137 492 -190 l 453 -137 l 453 -72 l 519 -72 l 519 -146 q 504 -231 519 -200 q 443 -260 489 -261 l 443 -243 z "},"Ȑ":{"ha":876,"x_min":83,"x_max":814,"o":"m 83 31 l 201 31 l 201 751 l 83 751 l 83 782 l 508 782 q 675 721 619 782 q 731 574 731 660 q 674 427 731 486 q 489 367 618 368 l 699 31 l 814 31 l 814 0 l 671 0 l 444 365 l 290 365 l 290 396 l 472 396 q 642 448 593 396 q 690 574 690 500 q 647 699 690 647 q 511 751 604 751 l 243 751 l 243 31 l 361 31 l 361 0 l 83 0 l 83 31 m 258 1108 l 300 1108 l 372 907 l 351 907 l 258 1108 m 390 1108 l 431 1108 l 504 907 l 483 907 l 390 1108 z "},"Ṛ":{"ha":876,"x_min":83,"x_max":814,"o":"m 83 31 l 201 31 l 201 751 l 83 751 l 83 782 l 508 782 q 675 721 619 782 q 731 574 731 660 q 674 427 731 486 q 489 367 618 368 l 699 31 l 814 31 l 814 0 l 671 0 l 444 365 l 290 365 l 290 396 l 472 396 q 642 448 593 396 q 690 574 690 500 q 647 699 690 647 q 511 751 604 751 l 243 751 l 243 31 l 361 31 l 361 0 l 83 0 l 83 31 m 482 -149 q 451 -137 461 -149 q 440 -111 440 -125 q 451 -83 440 -94 q 482 -72 461 -72 q 513 -83 503 -72 q 524 -111 524 -94 q 513 -137 524 -125 q 482 -149 501 -149 z "},"Ȓ":{"ha":876,"x_min":83,"x_max":814,"o":"m 83 31 l 201 31 l 201 751 l 83 751 l 83 782 l 508 782 q 675 721 619 782 q 731 574 731 660 q 674 427 731 486 q 489 367 618 368 l 699 31 l 814 31 l 814 0 l 671 0 l 444 365 l 290 365 l 290 396 l 472 396 q 642 448 593 396 q 690 574 690 500 q 647 699 690 647 q 511 751 604 751 l 243 751 l 243 31 l 361 31 l 361 0 l 83 0 l 83 31 m 340 893 q 440 986 360 986 q 540 893 524 986 l 513 893 q 440 956 494 956 q 368 893 385 956 l 340 893 z "},"Ṟ":{"ha":876,"x_min":83,"x_max":814,"o":"m 83 31 l 201 31 l 201 751 l 83 751 l 83 782 l 508 782 q 675 721 619 782 q 731 574 731 660 q 674 427 731 486 q 489 367 618 368 l 699 31 l 814 31 l 814 0 l 671 0 l 444 365 l 290 365 l 290 396 l 472 396 q 642 448 593 396 q 690 574 690 500 q 647 699 690 647 q 511 751 604 751 l 243 751 l 243 31 l 361 31 l 361 0 l 83 0 l 83 31 m 354 -72 l 610 -72 l 610 -100 l 354 -100 l 354 -72 z "},"S":{"ha":768,"x_min":118,"x_max":681,"o":"m 471 404 q 631 340 581 390 q 681 197 681 290 q 615 42 681 100 q 432 -15 550 -15 q 258 20 329 -15 q 158 117 186 56 l 158 0 l 119 0 l 119 263 l 158 263 q 222 81 158 144 q 432 18 285 18 q 587 65 532 18 q 642 194 642 113 q 603 316 642 276 q 464 369 564 356 l 351 385 q 175 449 232 401 q 118 594 118 497 q 183 742 118 688 q 364 796 247 796 q 517 763 453 796 q 610 675 582 731 l 610 782 l 649 782 l 649 572 l 610 572 q 545 710 610 657 q 365 764 481 764 q 212 718 267 764 q 157 596 157 672 q 207 472 157 510 q 357 419 257 433 l 471 404 z "},"Ś":{"ha":768,"x_min":118,"x_max":681,"o":"m 471 404 q 631 340 581 390 q 681 197 681 290 q 615 42 681 100 q 432 -15 550 -15 q 258 20 329 -15 q 158 117 186 56 l 158 0 l 119 0 l 119 263 l 158 263 q 222 81 158 144 q 432 18 285 18 q 587 65 532 18 q 642 194 642 113 q 603 316 642 276 q 464 369 564 356 l 351 385 q 175 449 232 401 q 118 594 118 497 q 183 742 118 688 q 364 796 247 796 q 517 763 453 796 q 610 675 582 731 l 610 782 l 649 782 l 649 572 l 610 572 q 545 710 610 657 q 365 764 481 764 q 212 718 267 764 q 157 596 157 672 q 207 472 157 510 q 357 419 257 433 l 471 404 m 447 1078 l 489 1078 l 407 907 l 386 907 l 447 1078 z "},"Ṥ":{"ha":768,"x_min":118,"x_max":681,"o":"m 471 404 q 631 340 581 390 q 681 197 681 290 q 615 42 681 100 q 432 -15 550 -15 q 258 20 329 -15 q 158 117 186 56 l 158 0 l 119 0 l 119 263 l 158 263 q 222 81 158 144 q 432 18 285 18 q 587 65 532 18 q 642 194 642 113 q 603 316 642 276 q 464 369 564 356 l 351 385 q 175 449 232 401 q 118 594 118 497 q 183 742 118 688 q 364 796 247 796 q 517 763 453 796 q 610 675 582 731 l 610 782 l 649 782 l 649 572 l 610 572 q 545 710 610 657 q 365 764 481 764 q 212 718 267 764 q 157 596 157 672 q 207 472 157 510 q 357 419 257 433 l 471 404 m 447 1078 l 489 1078 l 407 907 l 386 907 l 447 1078 m 393 1238 q 362 1249 372 1238 q 351 1275 351 1261 q 362 1303 351 1292 q 393 1314 372 1314 q 424 1303 414 1314 q 435 1275 435 1292 q 424 1249 435 1261 q 393 1238 413 1238 z "},"Š":{"ha":768,"x_min":118,"x_max":681,"o":"m 471 404 q 631 340 581 390 q 681 197 681 290 q 615 42 681 100 q 432 -15 550 -15 q 258 20 329 -15 q 158 117 186 56 l 158 0 l 119 0 l 119 263 l 158 263 q 222 81 158 144 q 432 18 285 18 q 587 65 532 18 q 642 194 642 113 q 603 316 642 276 q 464 369 564 356 l 351 385 q 175 449 232 401 q 118 594 118 497 q 183 742 118 688 q 364 796 247 796 q 517 763 453 796 q 610 675 582 731 l 610 782 l 649 782 l 649 572 l 610 572 q 545 710 610 657 q 365 764 481 764 q 212 718 267 764 q 157 596 157 672 q 207 472 157 510 q 357 419 257 433 l 471 404 m 261 1101 l 294 1101 l 393 925 l 492 1101 l 524 1101 l 407 893 l 381 893 l 261 1101 z "},"Ṧ":{"ha":768,"x_min":118,"x_max":681,"o":"m 471 404 q 631 340 581 390 q 681 197 681 290 q 615 42 681 100 q 432 -15 550 -15 q 258 20 329 -15 q 158 117 186 56 l 158 0 l 119 0 l 119 263 l 158 263 q 222 81 158 144 q 432 18 285 18 q 587 65 532 18 q 642 194 642 113 q 603 316 642 276 q 464 369 564 356 l 351 385 q 175 449 232 401 q 118 594 118 497 q 183 742 118 688 q 364 796 247 796 q 517 763 453 796 q 610 675 582 731 l 610 782 l 649 782 l 649 572 l 610 572 q 545 710 610 657 q 365 764 481 764 q 212 718 267 764 q 157 596 157 672 q 207 472 157 510 q 357 419 257 433 l 471 404 m 261 1101 l 294 1101 l 393 925 l 492 1101 l 524 1101 l 407 893 l 381 893 l 261 1101 m 393 1185 q 362 1197 372 1185 q 351 1222 351 1208 q 362 1250 351 1239 q 393 1261 372 1261 q 424 1250 414 1261 q 435 1222 435 1239 q 424 1197 435 1208 q 393 1185 413 1185 z "},"Ş":{"ha":768,"x_min":118,"x_max":681,"o":"m 681 197 q 617 44 681 103 q 440 -15 554 -14 l 421 -78 q 486 -95 464 -78 q 508 -140 508 -112 q 485 -186 508 -171 q 428 -201 463 -201 q 358 -183 392 -201 l 358 -162 q 414 -172 388 -172 q 467 -142 467 -172 q 448 -115 467 -124 q 383 -104 429 -106 l 418 -15 q 252 23 319 -12 q 158 117 185 58 l 158 0 l 119 0 l 119 263 l 158 263 q 222 81 158 144 q 432 18 285 18 q 587 65 532 18 q 642 194 642 113 q 603 316 642 276 q 464 369 564 356 l 351 385 q 175 449 232 401 q 118 594 118 497 q 183 742 118 688 q 364 796 247 796 q 517 763 453 796 q 610 675 582 731 l 610 782 l 649 782 l 649 572 l 610 572 q 545 710 610 657 q 365 764 481 764 q 212 718 267 764 q 157 596 157 672 q 207 472 157 510 q 357 419 257 433 l 471 404 q 631 340 581 390 q 681 197 681 290 z "},"Ŝ":{"ha":768,"x_min":118,"x_max":681,"o":"m 471 404 q 631 340 581 390 q 681 197 681 290 q 615 42 681 100 q 432 -15 550 -15 q 258 20 329 -15 q 158 117 186 56 l 158 0 l 119 0 l 119 263 l 158 263 q 222 81 158 144 q 432 18 285 18 q 587 65 532 18 q 642 194 642 113 q 603 316 642 276 q 464 369 564 356 l 351 385 q 175 449 232 401 q 118 594 118 497 q 183 742 118 688 q 364 796 247 796 q 517 763 453 796 q 610 675 582 731 l 610 782 l 649 782 l 649 572 l 610 572 q 545 710 610 657 q 365 764 481 764 q 212 718 267 764 q 157 596 157 672 q 207 472 157 510 q 357 419 257 433 l 471 404 m 379 1075 l 408 1075 l 526 865 l 493 865 l 393 1046 l 293 865 l 260 865 l 379 1075 z "},"Ș":{"ha":768,"x_min":118,"x_max":681,"o":"m 471 404 q 631 340 581 390 q 681 197 681 290 q 615 42 681 100 q 432 -15 550 -15 q 258 20 329 -15 q 158 117 186 56 l 158 0 l 119 0 l 119 263 l 158 263 q 222 81 158 144 q 432 18 285 18 q 587 65 532 18 q 642 194 642 113 q 603 316 642 276 q 464 369 564 356 l 351 385 q 175 449 232 401 q 118 594 118 497 q 183 742 118 688 q 364 796 247 796 q 517 763 453 796 q 610 675 582 731 l 610 782 l 649 782 l 649 572 l 610 572 q 545 710 610 657 q 365 764 481 764 q 212 718 267 764 q 157 596 157 672 q 207 472 157 510 q 357 419 257 433 l 471 404 m 396 -243 q 436 -215 428 -240 q 444 -137 444 -190 l 406 -137 l 406 -72 l 472 -72 l 472 -146 q 457 -231 472 -200 q 396 -260 442 -261 l 396 -243 z "},"Ṡ":{"ha":768,"x_min":118,"x_max":681,"o":"m 471 404 q 631 340 581 390 q 681 197 681 290 q 615 42 681 100 q 432 -15 550 -15 q 258 20 329 -15 q 158 117 186 56 l 158 0 l 119 0 l 119 263 l 158 263 q 222 81 158 144 q 432 18 285 18 q 587 65 532 18 q 642 194 642 113 q 603 316 642 276 q 464 369 564 356 l 351 385 q 175 449 232 401 q 118 594 118 497 q 183 742 118 688 q 364 796 247 796 q 517 763 453 796 q 610 675 582 731 l 610 782 l 649 782 l 649 572 l 610 572 q 545 710 610 657 q 365 764 481 764 q 212 718 267 764 q 157 596 157 672 q 207 472 157 510 q 357 419 257 433 l 471 404 m 393 907 q 362 919 372 907 q 351 944 351 931 q 362 972 351 961 q 393 983 372 983 q 424 972 414 983 q 435 944 435 961 q 424 919 435 931 q 393 907 413 907 z "},"Ṣ":{"ha":768,"x_min":118,"x_max":681,"o":"m 471 404 q 631 340 581 390 q 681 197 681 290 q 615 42 681 100 q 432 -15 550 -15 q 258 20 329 -15 q 158 117 186 56 l 158 0 l 119 0 l 119 263 l 158 263 q 222 81 158 144 q 432 18 285 18 q 587 65 532 18 q 642 194 642 113 q 603 316 642 276 q 464 369 564 356 l 351 385 q 175 449 232 401 q 118 594 118 497 q 183 742 118 688 q 364 796 247 796 q 517 763 453 796 q 610 675 582 731 l 610 782 l 649 782 l 649 572 l 610 572 q 545 710 610 657 q 365 764 481 764 q 212 718 267 764 q 157 596 157 672 q 207 472 157 510 q 357 419 257 433 l 471 404 m 435 -149 q 403 -137 414 -149 q 393 -111 393 -125 q 403 -83 393 -94 q 435 -72 414 -72 q 466 -83 456 -72 q 476 -111 476 -94 q 465 -137 476 -125 q 435 -149 454 -149 z "},"Ṩ":{"ha":768,"x_min":118,"x_max":681,"o":"m 471 404 q 631 340 581 390 q 681 197 681 290 q 615 42 681 100 q 432 -15 550 -15 q 258 20 329 -15 q 158 117 186 56 l 158 0 l 119 0 l 119 263 l 158 263 q 222 81 158 144 q 432 18 285 18 q 587 65 532 18 q 642 194 642 113 q 603 316 642 276 q 464 369 564 356 l 351 385 q 175 449 232 401 q 118 594 118 497 q 183 742 118 688 q 364 796 247 796 q 517 763 453 796 q 610 675 582 731 l 610 782 l 649 782 l 649 572 l 610 572 q 545 710 610 657 q 365 764 481 764 q 212 718 267 764 q 157 596 157 672 q 207 472 157 510 q 357 419 257 433 l 471 404 m 435 -149 q 403 -137 414 -149 q 393 -111 393 -125 q 403 -83 393 -94 q 435 -72 414 -72 q 466 -83 456 -72 q 476 -111 476 -94 q 465 -137 476 -125 q 435 -149 454 -149 m 393 907 q 362 919 372 907 q 351 944 351 931 q 362 972 351 961 q 393 983 372 983 q 424 972 414 983 q 435 944 435 961 q 424 919 435 931 q 393 907 413 907 z "},"ẞ":{"ha":839,"x_min":69,"x_max":761,"o":"m 436 17 q 719 222 719 17 q 649 371 719 324 q 422 418 578 418 l 422 443 l 640 706 q 547 749 596 733 q 436 764 499 764 q 247 703 314 764 q 181 518 181 642 l 181 31 l 258 31 l 258 0 l 69 0 l 69 31 l 139 31 l 139 515 q 215 722 139 649 q 435 796 292 796 q 676 722 564 796 l 676 697 l 464 446 q 683 384 604 446 q 761 222 761 322 q 678 47 761 107 q 436 -14 594 -14 l 436 17 z "},"Ə":{"ha":915,"x_min":69,"x_max":832,"o":"m 433 796 q 631 746 539 796 q 777 603 722 696 q 832 386 832 510 q 777 169 832 260 q 633 31 722 78 q 442 -15 543 -15 q 254 29 339 -15 q 119 165 169 74 q 69 392 69 257 l 69 404 l 790 404 q 738 590 786 508 q 610 718 690 672 q 432 764 529 764 q 259 726 342 764 q 111 625 176 689 l 88 650 q 433 796 244 796 m 442 18 q 614 61 535 18 q 740 185 693 104 q 790 372 788 265 l 111 372 q 158 176 111 256 q 279 57 204 96 q 442 18 354 18 z "},"T":{"ha":778,"x_min":35,"x_max":743,"o":"m 246 31 l 364 31 l 364 751 l 71 751 l 71 524 l 35 524 l 35 782 l 743 782 l 743 524 l 706 524 l 706 751 l 406 751 l 406 31 l 522 31 l 522 0 l 246 0 l 246 31 z "},"Ŧ":{"ha":778,"x_min":35,"x_max":743,"o":"m 743 782 l 743 524 l 706 524 l 706 751 l 406 751 l 406 400 l 514 400 l 514 372 l 406 372 l 406 31 l 522 31 l 522 0 l 246 0 l 246 31 l 364 31 l 364 372 l 258 372 l 258 400 l 364 400 l 364 751 l 71 751 l 71 524 l 35 524 l 35 782 l 743 782 z "},"Ť":{"ha":778,"x_min":35,"x_max":743,"o":"m 246 31 l 364 31 l 364 751 l 71 751 l 71 524 l 35 524 l 35 782 l 743 782 l 743 524 l 706 524 l 706 751 l 406 751 l 406 31 l 522 31 l 522 0 l 246 0 l 246 31 m 253 1101 l 286 1101 l 385 925 l 483 1101 l 515 1101 l 399 893 l 372 893 l 253 1101 z "},"Ţ":{"ha":778,"x_min":35,"x_max":743,"o":"m 246 31 l 364 31 l 364 751 l 71 751 l 71 524 l 35 524 l 35 782 l 743 782 l 743 524 l 706 524 l 706 751 l 406 751 l 406 31 l 522 31 l 522 0 l 246 0 l 246 31 m 378 -201 q 308 -183 342 -201 l 308 -162 q 364 -172 338 -172 q 417 -142 417 -172 q 398 -115 417 -124 q 333 -104 379 -106 l 374 0 l 396 0 l 371 -78 q 436 -95 414 -78 q 458 -140 458 -112 q 435 -186 458 -171 q 378 -201 413 -201 z "},"Ț":{"ha":778,"x_min":35,"x_max":743,"o":"m 246 31 l 364 31 l 364 751 l 71 751 l 71 524 l 35 524 l 35 782 l 743 782 l 743 524 l 706 524 l 706 751 l 406 751 l 406 31 l 522 31 l 522 0 l 246 0 l 246 31 m 346 -243 q 386 -215 378 -240 q 394 -137 394 -190 l 356 -137 l 356 -72 l 422 -72 l 422 -146 q 407 -231 422 -200 q 346 -260 392 -261 l 346 -243 z "},"Ṫ":{"ha":778,"x_min":35,"x_max":743,"o":"m 246 31 l 364 31 l 364 751 l 71 751 l 71 524 l 35 524 l 35 782 l 743 782 l 743 524 l 706 524 l 706 751 l 406 751 l 406 31 l 522 31 l 522 0 l 246 0 l 246 31 m 385 907 q 353 919 364 907 q 343 944 343 931 q 353 972 343 961 q 385 983 364 983 q 416 972 406 983 q 426 944 426 961 q 415 919 426 931 q 385 907 404 907 z "},"Ṭ":{"ha":778,"x_min":35,"x_max":743,"o":"m 246 31 l 364 31 l 364 751 l 71 751 l 71 524 l 35 524 l 35 782 l 743 782 l 743 524 l 706 524 l 706 751 l 406 751 l 406 31 l 522 31 l 522 0 l 246 0 l 246 31 m 385 -149 q 353 -137 364 -149 q 343 -111 343 -125 q 353 -83 343 -94 q 385 -72 364 -72 q 416 -83 406 -72 q 426 -111 426 -94 q 415 -137 426 -125 q 385 -149 404 -149 z "},"Ṯ":{"ha":778,"x_min":35,"x_max":743,"o":"m 246 31 l 364 31 l 364 751 l 71 751 l 71 524 l 35 524 l 35 782 l 743 782 l 743 524 l 706 524 l 706 751 l 406 751 l 406 31 l 522 31 l 522 0 l 246 0 l 246 31 m 257 -72 l 513 -72 l 513 -100 l 257 -100 l 257 -72 z "},"U":{"ha":1013,"x_min":58,"x_max":967,"o":"m 500 -15 q 322 19 399 -15 q 203 114 246 53 q 161 254 161 175 l 161 751 l 58 751 l 58 782 l 307 782 l 307 751 l 203 751 l 203 254 q 240 131 203 185 q 345 48 278 78 q 500 18 413 18 q 667 47 594 18 q 779 130 739 76 q 819 253 819 183 l 819 751 l 718 751 l 718 782 l 967 782 l 967 751 l 860 751 l 860 253 q 814 112 860 172 q 687 18 768 51 q 500 -15 606 -15 z "},"Ú":{"ha":1013,"x_min":58,"x_max":967,"o":"m 500 -15 q 322 19 399 -15 q 203 114 246 53 q 161 254 161 175 l 161 751 l 58 751 l 58 782 l 307 782 l 307 751 l 203 751 l 203 254 q 240 131 203 185 q 345 48 278 78 q 500 18 413 18 q 667 47 594 18 q 779 130 739 76 q 819 253 819 183 l 819 751 l 718 751 l 718 782 l 967 782 l 967 751 l 860 751 l 860 253 q 814 112 860 172 q 687 18 768 51 q 500 -15 606 -15 m 563 1078 l 604 1078 l 522 907 l 501 907 l 563 1078 z "},"Ŭ":{"ha":1013,"x_min":58,"x_max":967,"o":"m 500 -15 q 322 19 399 -15 q 203 114 246 53 q 161 254 161 175 l 161 751 l 58 751 l 58 782 l 307 782 l 307 751 l 203 751 l 203 254 q 240 131 203 185 q 345 48 278 78 q 500 18 413 18 q 667 47 594 18 q 779 130 739 76 q 819 253 819 183 l 819 751 l 718 751 l 718 782 l 967 782 l 967 751 l 860 751 l 860 253 q 814 112 860 172 q 687 18 768 51 q 500 -15 606 -15 m 508 907 q 442 931 468 907 q 408 1000 417 954 l 435 1000 q 508 936 451 936 q 581 1000 563 936 l 607 1000 q 508 907 590 907 z "},"Ǔ":{"ha":1013,"x_min":58,"x_max":967,"o":"m 500 -15 q 322 19 399 -15 q 203 114 246 53 q 161 254 161 175 l 161 751 l 58 751 l 58 782 l 307 782 l 307 751 l 203 751 l 203 254 q 240 131 203 185 q 345 48 278 78 q 500 18 413 18 q 667 47 594 18 q 779 130 739 76 q 819 253 819 183 l 819 751 l 718 751 l 718 782 l 967 782 l 967 751 l 860 751 l 860 253 q 814 112 860 172 q 687 18 768 51 q 500 -15 606 -15 m 376 1101 l 410 1101 l 508 925 l 607 1101 l 639 1101 l 522 893 l 496 893 l 376 1101 z "},"Û":{"ha":1013,"x_min":58,"x_max":967,"o":"m 500 -15 q 322 19 399 -15 q 203 114 246 53 q 161 254 161 175 l 161 751 l 58 751 l 58 782 l 307 782 l 307 751 l 203 751 l 203 254 q 240 131 203 185 q 345 48 278 78 q 500 18 413 18 q 667 47 594 18 q 779 130 739 76 q 819 253 819 183 l 819 751 l 718 751 l 718 782 l 967 782 l 967 751 l 860 751 l 860 253 q 814 112 860 172 q 687 18 768 51 q 500 -15 606 -15 m 494 1075 l 524 1075 l 642 865 l 608 865 l 508 1046 l 408 865 l 375 865 l 494 1075 z "},"Ȕ":{"ha":1013,"x_min":58,"x_max":967,"o":"m 500 -15 q 322 19 399 -15 q 203 114 246 53 q 161 254 161 175 l 161 751 l 58 751 l 58 782 l 307 782 l 307 751 l 203 751 l 203 254 q 240 131 203 185 q 345 48 278 78 q 500 18 413 18 q 667 47 594 18 q 779 130 739 76 q 819 253 819 183 l 819 751 l 718 751 l 718 782 l 967 782 l 967 751 l 860 751 l 860 253 q 814 112 860 172 q 687 18 768 51 q 500 -15 606 -15 m 326 1108 l 368 1108 l 440 907 l 419 907 l 326 1108 m 458 1108 l 499 1108 l 572 907 l 551 907 l 458 1108 z "},"Ü":{"ha":1013,"x_min":58,"x_max":967,"o":"m 500 -15 q 322 19 399 -15 q 203 114 246 53 q 161 254 161 175 l 161 751 l 58 751 l 58 782 l 307 782 l 307 751 l 203 751 l 203 254 q 240 131 203 185 q 345 48 278 78 q 500 18 413 18 q 667 47 594 18 q 779 130 739 76 q 819 253 819 183 l 819 751 l 718 751 l 718 782 l 967 782 l 967 751 l 860 751 l 860 253 q 814 112 860 172 q 687 18 768 51 q 500 -15 606 -15 m 399 908 q 376 917 385 908 q 368 939 368 925 q 376 960 368 953 q 399 968 385 968 q 421 960 413 968 q 429 939 429 953 q 421 917 429 925 q 399 908 413 908 m 618 908 q 596 916 604 908 q 588 938 588 924 q 596 960 588 951 q 618 968 604 968 q 640 960 632 968 q 649 938 649 951 q 640 916 649 924 q 618 908 632 908 z "},"Ụ":{"ha":1013,"x_min":58,"x_max":967,"o":"m 500 -15 q 322 19 399 -15 q 203 114 246 53 q 161 254 161 175 l 161 751 l 58 751 l 58 782 l 307 782 l 307 751 l 203 751 l 203 254 q 240 131 203 185 q 345 48 278 78 q 500 18 413 18 q 667 47 594 18 q 779 130 739 76 q 819 253 819 183 l 819 751 l 718 751 l 718 782 l 967 782 l 967 751 l 860 751 l 860 253 q 814 112 860 172 q 687 18 768 51 q 500 -15 606 -15 m 500 -149 q 469 -137 479 -149 q 458 -111 458 -125 q 469 -83 458 -94 q 500 -72 479 -72 q 531 -83 521 -72 q 542 -111 542 -94 q 531 -137 542 -125 q 500 -149 519 -149 z "},"Ù":{"ha":1013,"x_min":58,"x_max":967,"o":"m 500 -15 q 322 19 399 -15 q 203 114 246 53 q 161 254 161 175 l 161 751 l 58 751 l 58 782 l 307 782 l 307 751 l 203 751 l 203 254 q 240 131 203 185 q 345 48 278 78 q 500 18 413 18 q 667 47 594 18 q 779 130 739 76 q 819 253 819 183 l 819 751 l 718 751 l 718 782 l 967 782 l 967 751 l 860 751 l 860 253 q 814 112 860 172 q 687 18 768 51 q 500 -15 606 -15 m 413 1078 l 454 1078 l 515 907 l 493 907 l 413 1078 z "},"Ủ":{"ha":1013,"x_min":58,"x_max":967,"o":"m 500 -15 q 322 19 399 -15 q 203 114 246 53 q 161 254 161 175 l 161 751 l 58 751 l 58 782 l 307 782 l 307 751 l 203 751 l 203 254 q 240 131 203 185 q 345 48 278 78 q 500 18 413 18 q 667 47 594 18 q 779 130 739 76 q 819 253 819 183 l 819 751 l 718 751 l 718 782 l 967 782 l 967 751 l 860 751 l 860 253 q 814 112 860 172 q 687 18 768 51 q 500 -15 606 -15 m 496 874 q 536 922 536 890 q 524 952 536 942 q 489 963 511 963 q 429 944 461 963 l 415 975 q 492 994 454 994 q 549 975 528 994 q 571 925 571 956 q 556 876 571 894 q 508 844 540 857 l 496 874 z "},"Ư":{"ha":1013,"x_min":58,"x_max":972,"o":"m 972 872 q 937 795 967 825 q 860 760 907 765 l 860 253 q 814 112 860 172 q 687 18 768 51 q 500 -15 606 -15 q 322 19 399 -15 q 203 114 246 53 q 161 254 161 175 l 161 751 l 58 751 l 58 782 l 307 782 l 307 751 l 203 751 l 203 254 q 240 131 203 185 q 345 48 278 78 q 500 18 413 18 q 667 47 594 18 q 779 130 739 76 q 819 253 819 183 l 819 751 l 718 751 l 718 782 l 832 782 q 900 804 874 782 q 931 872 926 826 l 972 872 z "},"Ứ":{"ha":1013,"x_min":58,"x_max":972,"o":"m 972 872 q 937 795 967 825 q 860 760 907 765 l 860 253 q 814 112 860 172 q 687 18 768 51 q 500 -15 606 -15 q 322 19 399 -15 q 203 114 246 53 q 161 254 161 175 l 161 751 l 58 751 l 58 782 l 307 782 l 307 751 l 203 751 l 203 254 q 240 131 203 185 q 345 48 278 78 q 500 18 413 18 q 667 47 594 18 q 779 130 739 76 q 819 253 819 183 l 819 751 l 718 751 l 718 782 l 832 782 q 900 804 874 782 q 931 872 926 826 l 972 872 m 563 1078 l 604 1078 l 522 907 l 501 907 l 563 1078 z "},"Ự":{"ha":1013,"x_min":58,"x_max":972,"o":"m 972 872 q 937 795 967 825 q 860 760 907 765 l 860 253 q 814 112 860 172 q 687 18 768 51 q 500 -15 606 -15 q 322 19 399 -15 q 203 114 246 53 q 161 254 161 175 l 161 751 l 58 751 l 58 782 l 307 782 l 307 751 l 203 751 l 203 254 q 240 131 203 185 q 345 48 278 78 q 500 18 413 18 q 667 47 594 18 q 779 130 739 76 q 819 253 819 183 l 819 751 l 718 751 l 718 782 l 832 782 q 900 804 874 782 q 931 872 926 826 l 972 872 m 500 -149 q 469 -137 479 -149 q 458 -111 458 -125 q 469 -83 458 -94 q 500 -72 479 -72 q 531 -83 521 -72 q 542 -111 542 -94 q 531 -137 542 -125 q 500 -149 519 -149 z "},"Ừ":{"ha":1013,"x_min":58,"x_max":972,"o":"m 972 872 q 937 795 967 825 q 860 760 907 765 l 860 253 q 814 112 860 172 q 687 18 768 51 q 500 -15 606 -15 q 322 19 399 -15 q 203 114 246 53 q 161 254 161 175 l 161 751 l 58 751 l 58 782 l 307 782 l 307 751 l 203 751 l 203 254 q 240 131 203 185 q 345 48 278 78 q 500 18 413 18 q 667 47 594 18 q 779 130 739 76 q 819 253 819 183 l 819 751 l 718 751 l 718 782 l 832 782 q 900 804 874 782 q 931 872 926 826 l 972 872 m 413 1078 l 454 1078 l 515 907 l 493 907 l 413 1078 z "},"Ử":{"ha":1013,"x_min":58,"x_max":972,"o":"m 972 872 q 937 795 967 825 q 860 760 907 765 l 860 253 q 814 112 860 172 q 687 18 768 51 q 500 -15 606 -15 q 322 19 399 -15 q 203 114 246 53 q 161 254 161 175 l 161 751 l 58 751 l 58 782 l 307 782 l 307 751 l 203 751 l 203 254 q 240 131 203 185 q 345 48 278 78 q 500 18 413 18 q 667 47 594 18 q 779 130 739 76 q 819 253 819 183 l 819 751 l 718 751 l 718 782 l 832 782 q 900 804 874 782 q 931 872 926 826 l 972 872 m 496 874 q 536 922 536 890 q 524 952 536 942 q 489 963 511 963 q 429 944 461 963 l 415 975 q 492 994 454 994 q 549 975 528 994 q 571 925 571 956 q 556 876 571 894 q 508 844 540 857 l 496 874 z "},"Ữ":{"ha":1013,"x_min":58,"x_max":972,"o":"m 972 872 q 937 795 967 825 q 860 760 907 765 l 860 253 q 814 112 860 172 q 687 18 768 51 q 500 -15 606 -15 q 322 19 399 -15 q 203 114 246 53 q 161 254 161 175 l 161 751 l 58 751 l 58 782 l 307 782 l 307 751 l 203 751 l 203 254 q 240 131 203 185 q 345 48 278 78 q 500 18 413 18 q 667 47 594 18 q 779 130 739 76 q 819 253 819 183 l 819 751 l 718 751 l 718 782 l 832 782 q 900 804 874 782 q 931 872 926 826 l 972 872 m 582 907 q 548 914 564 907 q 507 936 532 921 q 465 957 481 950 q 435 964 450 964 q 397 908 397 964 l 369 908 q 387 970 369 946 q 435 994 404 994 q 469 988 453 994 q 510 965 485 981 q 551 944 536 951 q 582 938 567 938 q 610 951 600 938 q 619 992 619 964 l 647 992 q 632 928 647 949 q 582 907 617 907 z "},"Ű":{"ha":1013,"x_min":58,"x_max":967,"o":"m 500 -15 q 322 19 399 -15 q 203 114 246 53 q 161 254 161 175 l 161 751 l 58 751 l 58 782 l 307 782 l 307 751 l 203 751 l 203 254 q 240 131 203 185 q 345 48 278 78 q 500 18 413 18 q 667 47 594 18 q 779 130 739 76 q 819 253 819 183 l 819 751 l 718 751 l 718 782 l 967 782 l 967 751 l 860 751 l 860 253 q 814 112 860 172 q 687 18 768 51 q 500 -15 606 -15 m 518 1108 l 560 1108 l 469 907 l 443 907 l 518 1108 m 649 1108 l 690 1108 l 601 907 l 575 907 l 649 1108 z "},"Ȗ":{"ha":1013,"x_min":58,"x_max":967,"o":"m 500 -15 q 322 19 399 -15 q 203 114 246 53 q 161 254 161 175 l 161 751 l 58 751 l 58 782 l 307 782 l 307 751 l 203 751 l 203 254 q 240 131 203 185 q 345 48 278 78 q 500 18 413 18 q 667 47 594 18 q 779 130 739 76 q 819 253 819 183 l 819 751 l 718 751 l 718 782 l 967 782 l 967 751 l 860 751 l 860 253 q 814 112 860 172 q 687 18 768 51 q 500 -15 606 -15 m 408 893 q 508 986 428 986 q 608 893 592 986 l 581 893 q 508 956 563 956 q 436 893 453 956 l 408 893 z "},"Ū":{"ha":1013,"x_min":58,"x_max":967,"o":"m 500 -15 q 322 19 399 -15 q 203 114 246 53 q 161 254 161 175 l 161 751 l 58 751 l 58 782 l 307 782 l 307 751 l 203 751 l 203 254 q 240 131 203 185 q 345 48 278 78 q 500 18 413 18 q 667 47 594 18 q 779 130 739 76 q 819 253 819 183 l 819 751 l 718 751 l 718 782 l 967 782 l 967 751 l 860 751 l 860 253 q 814 112 860 172 q 687 18 768 51 q 500 -15 606 -15 m 381 935 l 636 935 l 636 907 l 381 907 l 381 935 z "},"Ṻ":{"ha":1013,"x_min":58,"x_max":967,"o":"m 500 -15 q 322 19 399 -15 q 203 114 246 53 q 161 254 161 175 l 161 751 l 58 751 l 58 782 l 307 782 l 307 751 l 203 751 l 203 254 q 240 131 203 185 q 345 48 278 78 q 500 18 413 18 q 667 47 594 18 q 779 130 739 76 q 819 253 819 183 l 819 751 l 718 751 l 718 782 l 967 782 l 967 751 l 860 751 l 860 253 q 814 112 860 172 q 687 18 768 51 q 500 -15 606 -15 m 381 935 l 636 935 l 636 907 l 381 907 l 381 935 m 399 1046 q 376 1054 385 1046 q 368 1076 368 1063 q 376 1098 368 1090 q 399 1106 385 1106 q 421 1098 413 1106 q 429 1076 429 1090 q 421 1054 429 1063 q 399 1046 413 1046 m 618 1046 q 596 1053 604 1046 q 588 1075 588 1061 q 596 1097 588 1089 q 618 1106 604 1106 q 640 1097 632 1106 q 649 1075 649 1089 q 640 1053 649 1061 q 618 1046 632 1046 z "},"Ų":{"ha":1013,"x_min":58,"x_max":967,"o":"m 967 782 l 967 751 l 860 751 l 860 253 q 814 112 860 172 q 687 18 768 51 q 500 -15 606 -15 l 492 -15 q 439 -119 439 -72 q 456 -166 439 -150 q 501 -182 474 -182 q 567 -158 535 -182 l 567 -186 q 490 -212 529 -212 q 426 -190 453 -212 q 400 -129 400 -168 q 461 -14 400 -72 q 243 69 325 -4 q 161 254 161 142 l 161 751 l 58 751 l 58 782 l 307 782 l 307 751 l 203 751 l 203 254 q 240 131 203 185 q 345 48 278 78 q 500 18 413 18 q 667 47 594 18 q 779 130 739 76 q 819 253 819 183 l 819 751 l 718 751 l 718 782 l 967 782 z "},"Ů":{"ha":1013,"x_min":58,"x_max":967,"o":"m 500 -15 q 322 19 399 -15 q 203 114 246 53 q 161 254 161 175 l 161 751 l 58 751 l 58 782 l 307 782 l 307 751 l 203 751 l 203 254 q 240 131 203 185 q 345 48 278 78 q 500 18 413 18 q 667 47 594 18 q 779 130 739 76 q 819 253 819 183 l 819 751 l 718 751 l 718 782 l 967 782 l 967 751 l 860 751 l 860 253 q 814 112 860 172 q 687 18 768 51 q 500 -15 606 -15 m 510 879 q 449 900 471 879 q 426 956 426 921 q 448 1015 426 993 q 508 1036 469 1036 q 569 1015 547 1036 q 590 958 590 994 q 569 901 590 922 q 510 879 549 879 m 510 900 q 550 916 535 900 q 565 958 565 932 q 550 999 565 985 q 510 1014 535 1014 q 468 999 483 1014 q 453 958 453 985 q 468 915 453 931 q 510 900 483 900 z "},"Ũ":{"ha":1013,"x_min":58,"x_max":967,"o":"m 500 -15 q 322 19 399 -15 q 203 114 246 53 q 161 254 161 175 l 161 751 l 58 751 l 58 782 l 307 782 l 307 751 l 203 751 l 203 254 q 240 131 203 185 q 345 48 278 78 q 500 18 413 18 q 667 47 594 18 q 779 130 739 76 q 819 253 819 183 l 819 751 l 718 751 l 718 782 l 967 782 l 967 751 l 860 751 l 860 253 q 814 112 860 172 q 687 18 768 51 q 500 -15 606 -15 m 582 907 q 548 914 564 907 q 507 936 532 921 q 465 957 481 950 q 435 964 450 964 q 397 908 397 964 l 369 908 q 387 970 369 946 q 435 994 404 994 q 469 988 453 994 q 510 965 485 981 q 551 944 536 951 q 582 938 567 938 q 610 951 600 938 q 619 992 619 964 l 647 992 q 632 928 647 949 q 582 907 617 907 z "},"Ṹ":{"ha":1013,"x_min":58,"x_max":967,"o":"m 500 -15 q 322 19 399 -15 q 203 114 246 53 q 161 254 161 175 l 161 751 l 58 751 l 58 782 l 307 782 l 307 751 l 203 751 l 203 254 q 240 131 203 185 q 345 48 278 78 q 500 18 413 18 q 667 47 594 18 q 779 130 739 76 q 819 253 819 183 l 819 751 l 718 751 l 718 782 l 967 782 l 967 751 l 860 751 l 860 253 q 814 112 860 172 q 687 18 768 51 q 500 -15 606 -15 m 582 907 q 548 914 564 907 q 507 936 532 921 q 465 957 481 950 q 435 964 450 964 q 397 908 397 964 l 369 908 q 387 970 369 946 q 435 994 404 994 q 469 988 453 994 q 510 965 485 981 q 551 944 536 951 q 582 938 567 938 q 610 951 600 938 q 619 992 619 964 l 647 992 q 632 928 647 949 q 582 907 617 907 m 563 1271 l 604 1271 l 522 1100 l 501 1100 l 563 1271 z "},"V":{"ha":842,"x_min":26,"x_max":813,"o":"m 119 751 l 26 751 l 26 782 l 272 782 l 272 751 l 164 751 l 424 51 l 681 751 l 575 751 l 575 782 l 813 782 l 813 751 l 729 751 l 444 0 l 401 0 l 119 751 z "},"W":{"ha":1324,"x_min":49,"x_max":1275,"o":"m 143 751 l 49 751 l 49 782 l 296 782 l 296 751 l 188 751 l 421 53 l 649 742 l 681 742 l 906 53 l 1135 751 l 1029 751 l 1029 782 l 1275 782 l 1275 751 l 1176 751 l 926 0 l 883 0 l 664 667 l 442 0 l 397 0 l 143 751 z "},"Ẃ":{"ha":1324,"x_min":49,"x_max":1275,"o":"m 143 751 l 49 751 l 49 782 l 296 782 l 296 751 l 188 751 l 421 53 l 649 742 l 681 742 l 906 53 l 1135 751 l 1029 751 l 1029 782 l 1275 782 l 1275 751 l 1176 751 l 926 0 l 883 0 l 664 667 l 442 0 l 397 0 l 143 751 m 719 1038 l 761 1038 l 679 867 l 658 867 l 719 1038 z "},"Ŵ":{"ha":1324,"x_min":49,"x_max":1275,"o":"m 143 751 l 49 751 l 49 782 l 296 782 l 296 751 l 188 751 l 421 53 l 649 742 l 681 742 l 906 53 l 1135 751 l 1029 751 l 1029 782 l 1275 782 l 1275 751 l 1176 751 l 926 0 l 883 0 l 664 667 l 442 0 l 397 0 l 143 751 m 651 1035 l 681 1035 l 799 825 l 765 825 l 665 1006 l 565 825 l 532 825 l 651 1035 z "},"Ẅ":{"ha":1324,"x_min":49,"x_max":1275,"o":"m 143 751 l 49 751 l 49 782 l 296 782 l 296 751 l 188 751 l 421 53 l 649 742 l 681 742 l 906 53 l 1135 751 l 1029 751 l 1029 782 l 1275 782 l 1275 751 l 1176 751 l 926 0 l 883 0 l 664 667 l 442 0 l 397 0 l 143 751 m 556 868 q 533 876 542 868 q 525 899 525 885 q 533 920 525 913 q 556 928 542 928 q 578 920 569 928 q 586 899 586 913 q 578 876 586 885 q 556 868 569 868 m 775 868 q 753 876 761 868 q 744 897 744 883 q 753 919 744 911 q 775 928 761 928 q 797 919 789 928 q 806 897 806 911 q 797 876 806 883 q 775 868 789 868 z "},"Ẁ":{"ha":1324,"x_min":49,"x_max":1275,"o":"m 143 751 l 49 751 l 49 782 l 296 782 l 296 751 l 188 751 l 421 53 l 649 742 l 681 742 l 906 53 l 1135 751 l 1029 751 l 1029 782 l 1275 782 l 1275 751 l 1176 751 l 926 0 l 883 0 l 664 667 l 442 0 l 397 0 l 143 751 m 569 1038 l 611 1038 l 672 867 l 650 867 l 569 1038 z "},"X":{"ha":878,"x_min":75,"x_max":807,"o":"m 75 29 l 168 29 l 415 403 l 183 751 l 83 751 l 83 782 l 325 782 l 325 751 l 222 751 l 439 426 l 651 751 l 547 751 l 547 782 l 793 782 l 793 751 l 693 751 l 460 397 l 706 29 l 807 29 l 807 0 l 564 0 l 564 29 l 667 29 l 435 375 l 210 29 l 317 29 l 317 0 l 75 0 l 75 29 z "},"Y":{"ha":854,"x_min":10,"x_max":842,"o":"m 292 31 l 406 31 l 406 315 l 115 751 l 10 751 l 10 782 l 264 782 l 264 751 l 161 751 l 429 350 l 694 751 l 586 751 l 586 782 l 842 782 l 842 751 l 738 751 l 447 315 l 447 31 l 563 31 l 563 0 l 292 0 l 292 31 z "},"Ý":{"ha":854,"x_min":10,"x_max":842,"o":"m 292 31 l 406 31 l 406 315 l 115 751 l 10 751 l 10 782 l 264 782 l 264 751 l 161 751 l 429 350 l 694 751 l 586 751 l 586 782 l 842 782 l 842 751 l 738 751 l 447 315 l 447 31 l 563 31 l 563 0 l 292 0 l 292 31 m 486 1078 l 528 1078 l 446 907 l 425 907 l 486 1078 z "},"Ŷ":{"ha":854,"x_min":10,"x_max":842,"o":"m 292 31 l 406 31 l 406 315 l 115 751 l 10 751 l 10 782 l 264 782 l 264 751 l 161 751 l 429 350 l 694 751 l 586 751 l 586 782 l 842 782 l 842 751 l 738 751 l 447 315 l 447 31 l 563 31 l 563 0 l 292 0 l 292 31 m 418 1075 l 447 1075 l 565 865 l 532 865 l 432 1046 l 332 865 l 299 865 l 418 1075 z "},"Ÿ":{"ha":854,"x_min":10,"x_max":842,"o":"m 292 31 l 406 31 l 406 315 l 115 751 l 10 751 l 10 782 l 264 782 l 264 751 l 161 751 l 429 350 l 694 751 l 586 751 l 586 782 l 842 782 l 842 751 l 738 751 l 447 315 l 447 31 l 563 31 l 563 0 l 292 0 l 292 31 m 322 908 q 300 917 308 908 q 292 939 292 925 q 300 960 292 953 q 322 968 308 968 q 344 960 336 968 q 353 939 353 953 q 344 917 353 925 q 322 908 336 908 m 542 908 q 519 916 528 908 q 511 938 511 924 q 519 960 511 951 q 542 968 528 968 q 564 960 556 968 q 572 938 572 951 q 564 916 572 924 q 542 908 556 908 z "},"Ẏ":{"ha":854,"x_min":10,"x_max":842,"o":"m 292 31 l 406 31 l 406 315 l 115 751 l 10 751 l 10 782 l 264 782 l 264 751 l 161 751 l 429 350 l 694 751 l 586 751 l 586 782 l 842 782 l 842 751 l 738 751 l 447 315 l 447 31 l 563 31 l 563 0 l 292 0 l 292 31 m 432 907 q 401 919 411 907 q 390 944 390 931 q 401 972 390 961 q 432 983 411 983 q 463 972 453 983 q 474 944 474 961 q 463 919 474 931 q 432 907 451 907 z "},"Ỵ":{"ha":854,"x_min":10,"x_max":842,"o":"m 292 31 l 406 31 l 406 315 l 115 751 l 10 751 l 10 782 l 264 782 l 264 751 l 161 751 l 429 350 l 694 751 l 586 751 l 586 782 l 842 782 l 842 751 l 738 751 l 447 315 l 447 31 l 563 31 l 563 0 l 292 0 l 292 31 m 426 -149 q 395 -137 406 -149 q 385 -111 385 -125 q 395 -83 385 -94 q 426 -72 406 -72 q 458 -83 447 -72 q 468 -111 468 -94 q 457 -137 468 -125 q 426 -149 446 -149 z "},"Ỳ":{"ha":854,"x_min":10,"x_max":842,"o":"m 292 31 l 406 31 l 406 315 l 115 751 l 10 751 l 10 782 l 264 782 l 264 751 l 161 751 l 429 350 l 694 751 l 586 751 l 586 782 l 842 782 l 842 751 l 738 751 l 447 315 l 447 31 l 563 31 l 563 0 l 292 0 l 292 31 m 336 1078 l 378 1078 l 439 907 l 417 907 l 336 1078 z "},"Ỷ":{"ha":854,"x_min":10,"x_max":842,"o":"m 292 31 l 406 31 l 406 315 l 115 751 l 10 751 l 10 782 l 264 782 l 264 751 l 161 751 l 429 350 l 694 751 l 586 751 l 586 782 l 842 782 l 842 751 l 738 751 l 447 315 l 447 31 l 563 31 l 563 0 l 292 0 l 292 31 m 419 874 q 460 922 460 890 q 447 952 460 942 q 413 963 435 963 q 353 944 385 963 l 339 975 q 415 994 378 994 q 473 975 451 994 q 494 925 494 956 q 479 876 494 894 q 432 844 464 857 l 419 874 z "},"Ȳ":{"ha":854,"x_min":10,"x_max":842,"o":"m 292 31 l 406 31 l 406 315 l 115 751 l 10 751 l 10 782 l 264 782 l 264 751 l 161 751 l 429 350 l 694 751 l 586 751 l 586 782 l 842 782 l 842 751 l 738 751 l 447 315 l 447 31 l 563 31 l 563 0 l 292 0 l 292 31 m 304 935 l 560 935 l 560 907 l 304 907 l 304 935 z "},"Ỹ":{"ha":854,"x_min":10,"x_max":842,"o":"m 292 31 l 406 31 l 406 315 l 115 751 l 10 751 l 10 782 l 264 782 l 264 751 l 161 751 l 429 350 l 694 751 l 586 751 l 586 782 l 842 782 l 842 751 l 738 751 l 447 315 l 447 31 l 563 31 l 563 0 l 292 0 l 292 31 m 506 907 q 472 914 488 907 q 431 936 456 921 q 389 957 404 950 q 358 964 374 964 q 321 908 321 964 l 293 908 q 310 970 293 946 q 358 994 328 994 q 392 988 376 994 q 433 965 408 981 q 475 944 460 951 q 506 938 490 938 q 533 951 524 938 q 543 992 543 964 l 571 992 q 556 928 571 949 q 506 907 540 907 z "},"Z":{"ha":836,"x_min":96,"x_max":738,"o":"m 96 32 l 672 751 l 150 751 l 150 544 l 115 544 l 115 782 l 719 782 l 719 751 l 143 31 l 703 31 l 703 247 l 738 247 l 738 0 l 96 0 l 96 32 z "},"Ź":{"ha":836,"x_min":96,"x_max":738,"o":"m 96 32 l 672 751 l 150 751 l 150 544 l 115 544 l 115 782 l 719 782 l 719 751 l 143 31 l 703 31 l 703 247 l 738 247 l 738 0 l 96 0 l 96 32 m 472 1078 l 514 1078 l 432 907 l 411 907 l 472 1078 z "},"Ž":{"ha":836,"x_min":96,"x_max":738,"o":"m 96 32 l 672 751 l 150 751 l 150 544 l 115 544 l 115 782 l 719 782 l 719 751 l 143 31 l 703 31 l 703 247 l 738 247 l 738 0 l 96 0 l 96 32 m 286 1101 l 319 1101 l 418 925 l 517 1101 l 549 1101 l 432 893 l 406 893 l 286 1101 z "},"Ż":{"ha":836,"x_min":96,"x_max":738,"o":"m 96 32 l 672 751 l 150 751 l 150 544 l 115 544 l 115 782 l 719 782 l 719 751 l 143 31 l 703 31 l 703 247 l 738 247 l 738 0 l 96 0 l 96 32 m 418 907 q 387 919 397 907 q 376 944 376 931 q 387 972 376 961 q 418 983 397 983 q 449 972 439 983 q 460 944 460 961 q 449 919 460 931 q 418 907 438 907 z "},"Ẓ":{"ha":836,"x_min":96,"x_max":738,"o":"m 96 32 l 672 751 l 150 751 l 150 544 l 115 544 l 115 782 l 719 782 l 719 751 l 143 31 l 703 31 l 703 247 l 738 247 l 738 0 l 96 0 l 96 32 m 417 -149 q 385 -137 396 -149 q 375 -111 375 -125 q 385 -83 375 -94 q 417 -72 396 -72 q 448 -83 438 -72 q 458 -111 458 -94 q 447 -137 458 -125 q 417 -149 436 -149 z "},"a":{"ha":614,"x_min":56,"x_max":574,"o":"m 574 31 l 574 0 l 461 0 l 451 56 q 239 -15 332 -15 q 106 29 157 -15 q 56 147 56 74 q 108 269 56 232 q 246 307 161 307 q 450 283 321 307 l 450 365 q 407 488 450 447 q 290 529 364 529 q 100 485 207 529 l 88 515 q 193 549 140 538 q 286 560 246 560 q 443 506 396 560 q 490 376 490 451 l 490 31 l 574 31 m 94 146 q 133 53 94 90 q 240 15 172 15 q 334 31 288 15 q 450 86 381 47 l 450 256 q 247 279 329 279 q 138 247 181 279 q 94 146 94 215 z "},"á":{"ha":614,"x_min":56,"x_max":574,"o":"m 574 31 l 574 0 l 461 0 l 451 56 q 239 -15 332 -15 q 106 29 157 -15 q 56 147 56 74 q 108 269 56 232 q 246 307 161 307 q 450 283 321 307 l 450 365 q 407 488 450 447 q 290 529 364 529 q 100 485 207 529 l 88 515 q 193 549 140 538 q 286 560 246 560 q 443 506 396 560 q 490 376 490 451 l 490 31 l 574 31 m 94 146 q 133 53 94 90 q 240 15 172 15 q 334 31 288 15 q 450 86 381 47 l 450 256 q 247 279 329 279 q 138 247 181 279 q 94 146 94 215 m 357 842 l 399 842 l 317 671 l 296 671 l 357 842 z "},"ă":{"ha":614,"x_min":56,"x_max":574,"o":"m 574 31 l 574 0 l 461 0 l 451 56 q 239 -15 332 -15 q 106 29 157 -15 q 56 147 56 74 q 108 269 56 232 q 246 307 161 307 q 450 283 321 307 l 450 365 q 407 488 450 447 q 290 529 364 529 q 100 485 207 529 l 88 515 q 193 549 140 538 q 286 560 246 560 q 443 506 396 560 q 490 376 490 451 l 490 31 l 574 31 m 94 146 q 133 53 94 90 q 240 15 172 15 q 334 31 288 15 q 450 86 381 47 l 450 256 q 247 279 329 279 q 138 247 181 279 q 94 146 94 215 m 303 671 q 237 694 263 671 q 203 764 211 718 l 229 764 q 303 700 246 700 q 375 764 357 700 l 401 764 q 303 671 385 671 z "},"ắ":{"ha":614,"x_min":56,"x_max":574,"o":"m 574 31 l 574 0 l 461 0 l 451 56 q 239 -15 332 -15 q 106 29 157 -15 q 56 147 56 74 q 108 269 56 232 q 246 307 161 307 q 450 283 321 307 l 450 365 q 407 488 450 447 q 290 529 364 529 q 100 485 207 529 l 88 515 q 193 549 140 538 q 286 560 246 560 q 443 506 396 560 q 490 376 490 451 l 490 31 l 574 31 m 94 146 q 133 53 94 90 q 240 15 172 15 q 334 31 288 15 q 450 86 381 47 l 450 256 q 247 279 329 279 q 138 247 181 279 q 94 146 94 215 m 342 883 l 383 883 l 301 754 l 281 754 l 342 883 m 303 643 q 235 667 261 643 q 203 736 208 692 l 233 736 q 258 688 239 704 q 303 672 276 672 q 347 688 329 672 q 371 736 365 704 l 401 736 q 370 667 396 692 q 303 643 344 643 z "},"ặ":{"ha":614,"x_min":56,"x_max":574,"o":"m 574 31 l 574 0 l 461 0 l 451 56 q 239 -15 332 -15 q 106 29 157 -15 q 56 147 56 74 q 108 269 56 232 q 246 307 161 307 q 450 283 321 307 l 450 365 q 407 488 450 447 q 290 529 364 529 q 100 485 207 529 l 88 515 q 193 549 140 538 q 286 560 246 560 q 443 506 396 560 q 490 376 490 451 l 490 31 l 574 31 m 94 146 q 133 53 94 90 q 240 15 172 15 q 334 31 288 15 q 450 86 381 47 l 450 256 q 247 279 329 279 q 138 247 181 279 q 94 146 94 215 m 321 -149 q 290 -137 300 -149 q 279 -111 279 -125 q 290 -83 279 -94 q 321 -72 300 -72 q 352 -83 342 -72 q 363 -111 363 -94 q 351 -137 363 -125 q 321 -149 340 -149 m 303 671 q 237 694 263 671 q 203 764 211 718 l 229 764 q 303 700 246 700 q 375 764 357 700 l 401 764 q 303 671 385 671 z "},"ằ":{"ha":614,"x_min":56,"x_max":574,"o":"m 574 31 l 574 0 l 461 0 l 451 56 q 239 -15 332 -15 q 106 29 157 -15 q 56 147 56 74 q 108 269 56 232 q 246 307 161 307 q 450 283 321 307 l 450 365 q 407 488 450 447 q 290 529 364 529 q 100 485 207 529 l 88 515 q 193 549 140 538 q 286 560 246 560 q 443 506 396 560 q 490 376 490 451 l 490 31 l 574 31 m 94 146 q 133 53 94 90 q 240 15 172 15 q 334 31 288 15 q 450 86 381 47 l 450 256 q 247 279 329 279 q 138 247 181 279 q 94 146 94 215 m 221 883 l 263 883 l 324 754 l 303 754 l 221 883 m 303 643 q 235 667 261 643 q 203 736 208 692 l 233 736 q 258 688 239 704 q 303 672 276 672 q 347 688 329 672 q 371 736 365 704 l 401 736 q 370 667 396 692 q 303 643 344 643 z "},"ẳ":{"ha":614,"x_min":56,"x_max":574,"o":"m 574 31 l 574 0 l 461 0 l 451 56 q 239 -15 332 -15 q 106 29 157 -15 q 56 147 56 74 q 108 269 56 232 q 246 307 161 307 q 450 283 321 307 l 450 365 q 407 488 450 447 q 290 529 364 529 q 100 485 207 529 l 88 515 q 193 549 140 538 q 286 560 246 560 q 443 506 396 560 q 490 376 490 451 l 490 31 l 574 31 m 94 146 q 133 53 94 90 q 240 15 172 15 q 334 31 288 15 q 450 86 381 47 l 450 256 q 247 279 329 279 q 138 247 181 279 q 94 146 94 215 m 293 764 q 333 813 333 779 q 321 842 333 832 q 286 853 308 853 q 231 835 260 853 l 218 863 q 289 885 256 885 q 347 865 325 885 q 368 815 368 846 q 304 738 368 760 l 293 764 m 304 643 q 236 667 263 643 q 204 736 210 692 l 235 736 q 259 688 240 704 q 304 672 278 672 q 349 688 331 672 q 372 736 367 704 l 403 736 q 372 667 397 692 q 304 643 346 643 z "},"ẵ":{"ha":614,"x_min":56,"x_max":574,"o":"m 574 31 l 574 0 l 461 0 l 451 56 q 239 -15 332 -15 q 106 29 157 -15 q 56 147 56 74 q 108 269 56 232 q 246 307 161 307 q 450 283 321 307 l 450 365 q 407 488 450 447 q 290 529 364 529 q 100 485 207 529 l 88 515 q 193 549 140 538 q 286 560 246 560 q 443 506 396 560 q 490 376 490 451 l 490 31 l 574 31 m 94 146 q 133 53 94 90 q 240 15 172 15 q 334 31 288 15 q 450 86 381 47 l 450 256 q 247 279 329 279 q 138 247 181 279 q 94 146 94 215 m 364 772 q 334 778 349 772 q 299 794 319 783 q 267 809 283 803 q 238 815 251 815 q 204 774 204 815 l 176 774 q 194 825 176 804 q 242 846 213 846 q 272 840 257 846 q 307 824 286 835 q 365 803 343 803 q 390 813 381 803 q 399 843 399 824 l 426 843 q 364 772 426 772 m 303 643 q 235 667 261 643 q 203 736 208 692 l 233 736 q 258 688 239 704 q 303 672 276 672 q 347 688 329 672 q 371 736 365 704 l 401 736 q 370 667 396 692 q 303 643 344 643 z "},"ǎ":{"ha":614,"x_min":56,"x_max":574,"o":"m 574 31 l 574 0 l 461 0 l 451 56 q 239 -15 332 -15 q 106 29 157 -15 q 56 147 56 74 q 108 269 56 232 q 246 307 161 307 q 450 283 321 307 l 450 365 q 407 488 450 447 q 290 529 364 529 q 100 485 207 529 l 88 515 q 193 549 140 538 q 286 560 246 560 q 443 506 396 560 q 490 376 490 451 l 490 31 l 574 31 m 94 146 q 133 53 94 90 q 240 15 172 15 q 334 31 288 15 q 450 86 381 47 l 450 256 q 247 279 329 279 q 138 247 181 279 q 94 146 94 215 m 171 865 l 204 865 l 303 689 l 401 865 l 433 865 l 317 657 l 290 657 l 171 865 z "},"â":{"ha":614,"x_min":56,"x_max":574,"o":"m 574 31 l 574 0 l 461 0 l 451 56 q 239 -15 332 -15 q 106 29 157 -15 q 56 147 56 74 q 108 269 56 232 q 246 307 161 307 q 450 283 321 307 l 450 365 q 407 488 450 447 q 290 529 364 529 q 100 485 207 529 l 88 515 q 193 549 140 538 q 286 560 246 560 q 443 506 396 560 q 490 376 490 451 l 490 31 l 574 31 m 94 146 q 133 53 94 90 q 240 15 172 15 q 334 31 288 15 q 450 86 381 47 l 450 256 q 247 279 329 279 q 138 247 181 279 q 94 146 94 215 m 289 839 l 318 839 l 436 629 l 403 629 l 303 810 l 203 629 l 169 629 l 289 839 z "},"ấ":{"ha":614,"x_min":56,"x_max":574,"o":"m 574 31 l 574 0 l 461 0 l 451 56 q 239 -15 332 -15 q 106 29 157 -15 q 56 147 56 74 q 108 269 56 232 q 246 307 161 307 q 450 283 321 307 l 450 365 q 407 488 450 447 q 290 529 364 529 q 100 485 207 529 l 88 515 q 193 549 140 538 q 286 560 246 560 q 443 506 396 560 q 490 376 490 451 l 490 31 l 574 31 m 94 146 q 133 53 94 90 q 240 15 172 15 q 334 31 288 15 q 450 86 381 47 l 450 256 q 247 279 329 279 q 138 247 181 279 q 94 146 94 215 m 444 906 l 483 906 l 410 750 l 388 750 l 444 906 m 289 797 l 318 797 l 436 629 l 403 629 l 303 768 l 203 629 l 169 629 l 289 797 z "},"ậ":{"ha":614,"x_min":56,"x_max":574,"o":"m 574 31 l 574 0 l 461 0 l 451 56 q 239 -15 332 -15 q 106 29 157 -15 q 56 147 56 74 q 108 269 56 232 q 246 307 161 307 q 450 283 321 307 l 450 365 q 407 488 450 447 q 290 529 364 529 q 100 485 207 529 l 88 515 q 193 549 140 538 q 286 560 246 560 q 443 506 396 560 q 490 376 490 451 l 490 31 l 574 31 m 94 146 q 133 53 94 90 q 240 15 172 15 q 334 31 288 15 q 450 86 381 47 l 450 256 q 247 279 329 279 q 138 247 181 279 q 94 146 94 215 m 321 -149 q 290 -137 300 -149 q 279 -111 279 -125 q 290 -83 279 -94 q 321 -72 300 -72 q 352 -83 342 -72 q 363 -111 363 -94 q 351 -137 363 -125 q 321 -149 340 -149 m 289 839 l 318 839 l 436 629 l 403 629 l 303 810 l 203 629 l 169 629 l 289 839 z "},"ầ":{"ha":614,"x_min":56,"x_max":574,"o":"m 574 31 l 574 0 l 461 0 l 451 56 q 239 -15 332 -15 q 106 29 157 -15 q 56 147 56 74 q 108 269 56 232 q 246 307 161 307 q 450 283 321 307 l 450 365 q 407 488 450 447 q 290 529 364 529 q 100 485 207 529 l 88 515 q 193 549 140 538 q 286 560 246 560 q 443 506 396 560 q 490 376 490 451 l 490 31 l 574 31 m 94 146 q 133 53 94 90 q 240 15 172 15 q 334 31 288 15 q 450 86 381 47 l 450 256 q 247 279 329 279 q 138 247 181 279 q 94 146 94 215 m 406 750 l 332 906 l 371 906 l 428 750 l 406 750 m 289 797 l 318 797 l 436 629 l 403 629 l 303 768 l 203 629 l 169 629 l 289 797 z "},"ẩ":{"ha":614,"x_min":56,"x_max":574,"o":"m 574 31 l 574 0 l 461 0 l 451 56 q 239 -15 332 -15 q 106 29 157 -15 q 56 147 56 74 q 108 269 56 232 q 246 307 161 307 q 450 283 321 307 l 450 365 q 407 488 450 447 q 290 529 364 529 q 100 485 207 529 l 88 515 q 193 549 140 538 q 286 560 246 560 q 443 506 396 560 q 490 376 490 451 l 490 31 l 574 31 m 94 146 q 133 53 94 90 q 240 15 172 15 q 334 31 288 15 q 450 86 381 47 l 450 256 q 247 279 329 279 q 138 247 181 279 q 94 146 94 215 m 385 774 q 425 822 425 790 q 413 852 425 842 q 378 863 400 863 q 318 844 350 863 l 304 875 q 381 894 343 894 q 438 875 417 894 q 460 825 460 856 q 444 776 460 794 q 397 744 429 757 l 385 774 m 289 797 l 318 797 l 436 629 l 403 629 l 303 768 l 203 629 l 169 629 l 289 797 z "},"ẫ":{"ha":614,"x_min":56,"x_max":574,"o":"m 574 31 l 574 0 l 461 0 l 451 56 q 239 -15 332 -15 q 106 29 157 -15 q 56 147 56 74 q 108 269 56 232 q 246 307 161 307 q 450 283 321 307 l 450 365 q 407 488 450 447 q 290 529 364 529 q 100 485 207 529 l 88 515 q 193 549 140 538 q 286 560 246 560 q 443 506 396 560 q 490 376 490 451 l 490 31 l 574 31 m 94 146 q 133 53 94 90 q 240 15 172 15 q 334 31 288 15 q 450 86 381 47 l 450 256 q 247 279 329 279 q 138 247 181 279 q 94 146 94 215 m 364 819 q 334 825 349 819 q 299 842 319 831 q 267 856 283 850 q 238 863 251 863 q 204 821 204 863 l 176 821 q 194 872 176 851 q 242 893 213 893 q 272 888 257 893 q 307 871 286 882 q 365 850 343 850 q 390 860 381 850 q 399 890 399 871 l 426 890 q 364 819 426 819 m 289 797 l 318 797 l 436 629 l 403 629 l 303 768 l 203 629 l 169 629 l 289 797 z "},"ȁ":{"ha":614,"x_min":56,"x_max":574,"o":"m 574 31 l 574 0 l 461 0 l 451 56 q 239 -15 332 -15 q 106 29 157 -15 q 56 147 56 74 q 108 269 56 232 q 246 307 161 307 q 450 283 321 307 l 450 365 q 407 488 450 447 q 290 529 364 529 q 100 485 207 529 l 88 515 q 193 549 140 538 q 286 560 246 560 q 443 506 396 560 q 490 376 490 451 l 490 31 l 574 31 m 94 146 q 133 53 94 90 q 240 15 172 15 q 334 31 288 15 q 450 86 381 47 l 450 256 q 247 279 329 279 q 138 247 181 279 q 94 146 94 215 m 121 872 l 163 872 l 235 671 l 214 671 l 121 872 m 253 872 l 293 872 l 367 671 l 346 671 l 253 872 z "},"ä":{"ha":614,"x_min":56,"x_max":574,"o":"m 574 31 l 574 0 l 461 0 l 451 56 q 239 -15 332 -15 q 106 29 157 -15 q 56 147 56 74 q 108 269 56 232 q 246 307 161 307 q 450 283 321 307 l 450 365 q 407 488 450 447 q 290 529 364 529 q 100 485 207 529 l 88 515 q 193 549 140 538 q 286 560 246 560 q 443 506 396 560 q 490 376 490 451 l 490 31 l 574 31 m 94 146 q 133 53 94 90 q 240 15 172 15 q 334 31 288 15 q 450 86 381 47 l 450 256 q 247 279 329 279 q 138 247 181 279 q 94 146 94 215 m 193 672 q 171 681 179 672 q 163 703 163 689 q 171 724 163 717 q 193 732 179 732 q 215 724 207 732 q 224 703 224 717 q 215 681 224 689 q 193 672 207 672 m 413 672 q 390 680 399 672 q 382 701 382 688 q 390 724 382 715 q 413 732 399 732 q 435 724 426 732 q 443 701 443 715 q 435 680 443 688 q 413 672 426 672 z "},"ȧ":{"ha":614,"x_min":56,"x_max":574,"o":"m 574 31 l 574 0 l 461 0 l 451 56 q 239 -15 332 -15 q 106 29 157 -15 q 56 147 56 74 q 108 269 56 232 q 246 307 161 307 q 450 283 321 307 l 450 365 q 407 488 450 447 q 290 529 364 529 q 100 485 207 529 l 88 515 q 193 549 140 538 q 286 560 246 560 q 443 506 396 560 q 490 376 490 451 l 490 31 l 574 31 m 94 146 q 133 53 94 90 q 240 15 172 15 q 334 31 288 15 q 450 86 381 47 l 450 256 q 247 279 329 279 q 138 247 181 279 q 94 146 94 215 m 303 671 q 272 683 282 671 q 261 708 261 694 q 272 736 261 725 q 303 747 282 747 q 334 736 324 747 q 344 708 344 725 q 333 683 344 694 q 303 671 322 671 z "},"ạ":{"ha":614,"x_min":56,"x_max":574,"o":"m 574 31 l 574 0 l 461 0 l 451 56 q 239 -15 332 -15 q 106 29 157 -15 q 56 147 56 74 q 108 269 56 232 q 246 307 161 307 q 450 283 321 307 l 450 365 q 407 488 450 447 q 290 529 364 529 q 100 485 207 529 l 88 515 q 193 549 140 538 q 286 560 246 560 q 443 506 396 560 q 490 376 490 451 l 490 31 l 574 31 m 94 146 q 133 53 94 90 q 240 15 172 15 q 334 31 288 15 q 450 86 381 47 l 450 256 q 247 279 329 279 q 138 247 181 279 q 94 146 94 215 m 321 -149 q 290 -137 300 -149 q 279 -111 279 -125 q 290 -83 279 -94 q 321 -72 300 -72 q 352 -83 342 -72 q 363 -111 363 -94 q 351 -137 363 -125 q 321 -149 340 -149 z "},"à":{"ha":614,"x_min":56,"x_max":574,"o":"m 574 31 l 574 0 l 461 0 l 451 56 q 239 -15 332 -15 q 106 29 157 -15 q 56 147 56 74 q 108 269 56 232 q 246 307 161 307 q 450 283 321 307 l 450 365 q 407 488 450 447 q 290 529 364 529 q 100 485 207 529 l 88 515 q 193 549 140 538 q 286 560 246 560 q 443 506 396 560 q 490 376 490 451 l 490 31 l 574 31 m 94 146 q 133 53 94 90 q 240 15 172 15 q 334 31 288 15 q 450 86 381 47 l 450 256 q 247 279 329 279 q 138 247 181 279 q 94 146 94 215 m 207 842 l 249 842 l 310 671 l 288 671 l 207 842 z "},"ả":{"ha":614,"x_min":56,"x_max":574,"o":"m 574 31 l 574 0 l 461 0 l 451 56 q 239 -15 332 -15 q 106 29 157 -15 q 56 147 56 74 q 108 269 56 232 q 246 307 161 307 q 450 283 321 307 l 450 365 q 407 488 450 447 q 290 529 364 529 q 100 485 207 529 l 88 515 q 193 549 140 538 q 286 560 246 560 q 443 506 396 560 q 490 376 490 451 l 490 31 l 574 31 m 94 146 q 133 53 94 90 q 240 15 172 15 q 334 31 288 15 q 450 86 381 47 l 450 256 q 247 279 329 279 q 138 247 181 279 q 94 146 94 215 m 290 638 q 331 686 331 654 q 318 716 331 706 q 283 726 306 726 q 224 708 256 726 l 210 739 q 286 758 249 758 q 344 739 322 758 q 365 689 365 719 q 350 640 365 658 q 303 608 335 621 l 290 638 z "},"ȃ":{"ha":614,"x_min":56,"x_max":574,"o":"m 574 31 l 574 0 l 461 0 l 451 56 q 239 -15 332 -15 q 106 29 157 -15 q 56 147 56 74 q 108 269 56 232 q 246 307 161 307 q 450 283 321 307 l 450 365 q 407 488 450 447 q 290 529 364 529 q 100 485 207 529 l 88 515 q 193 549 140 538 q 286 560 246 560 q 443 506 396 560 q 490 376 490 451 l 490 31 l 574 31 m 94 146 q 133 53 94 90 q 240 15 172 15 q 334 31 288 15 q 450 86 381 47 l 450 256 q 247 279 329 279 q 138 247 181 279 q 94 146 94 215 m 203 657 q 303 750 222 750 q 403 657 386 750 l 375 657 q 303 719 357 719 q 231 657 247 719 l 203 657 z "},"ā":{"ha":614,"x_min":56,"x_max":574,"o":"m 574 31 l 574 0 l 461 0 l 451 56 q 239 -15 332 -15 q 106 29 157 -15 q 56 147 56 74 q 108 269 56 232 q 246 307 161 307 q 450 283 321 307 l 450 365 q 407 488 450 447 q 290 529 364 529 q 100 485 207 529 l 88 515 q 193 549 140 538 q 286 560 246 560 q 443 506 396 560 q 490 376 490 451 l 490 31 l 574 31 m 94 146 q 133 53 94 90 q 240 15 172 15 q 334 31 288 15 q 450 86 381 47 l 450 256 q 247 279 329 279 q 138 247 181 279 q 94 146 94 215 m 175 699 l 431 699 l 431 671 l 175 671 l 175 699 z "},"ą":{"ha":614,"x_min":56,"x_max":596,"o":"m 531 -182 q 596 -158 564 -182 l 596 -186 q 519 -212 558 -212 q 456 -190 482 -212 q 429 -129 429 -168 q 506 0 429 -65 l 461 0 l 451 56 q 239 -15 332 -15 q 106 29 157 -15 q 56 147 56 74 q 108 269 56 232 q 246 307 161 307 q 450 283 321 307 l 450 365 q 407 488 450 447 q 290 529 364 529 q 100 485 207 529 l 88 515 q 193 549 140 538 q 286 560 246 560 q 443 506 396 560 q 490 376 490 451 l 490 31 l 574 31 l 574 0 l 536 0 q 485 -62 503 -33 q 468 -119 468 -92 q 485 -166 468 -150 q 531 -182 503 -182 m 94 146 q 133 53 94 90 q 240 15 172 15 q 334 31 288 15 q 450 86 381 47 l 450 256 q 247 279 329 279 q 138 247 181 279 q 94 146 94 215 z "},"å":{"ha":614,"x_min":56,"x_max":574,"o":"m 574 31 l 574 0 l 461 0 l 451 56 q 239 -15 332 -15 q 106 29 157 -15 q 56 147 56 74 q 108 269 56 232 q 246 307 161 307 q 450 283 321 307 l 450 365 q 407 488 450 447 q 290 529 364 529 q 100 485 207 529 l 88 515 q 193 549 140 538 q 286 560 246 560 q 443 506 396 560 q 490 376 490 451 l 490 31 l 574 31 m 94 146 q 133 53 94 90 q 240 15 172 15 q 334 31 288 15 q 450 86 381 47 l 450 256 q 247 279 329 279 q 138 247 181 279 q 94 146 94 215 m 304 643 q 243 664 265 643 q 221 719 221 685 q 242 778 221 757 q 303 800 264 800 q 363 779 342 800 q 385 722 385 758 q 364 665 385 686 q 304 643 343 643 m 304 664 q 344 680 329 664 q 360 722 360 696 q 344 763 360 749 q 304 778 329 778 q 263 763 278 778 q 247 722 247 749 q 263 679 247 694 q 304 664 278 664 z "},"ǻ":{"ha":614,"x_min":56,"x_max":574,"o":"m 574 31 l 574 0 l 461 0 l 451 56 q 239 -15 332 -15 q 106 29 157 -15 q 56 147 56 74 q 108 269 56 232 q 246 307 161 307 q 450 283 321 307 l 450 365 q 407 488 450 447 q 290 529 364 529 q 100 485 207 529 l 88 515 q 193 549 140 538 q 286 560 246 560 q 443 506 396 560 q 490 376 490 451 l 490 31 l 574 31 m 94 146 q 133 53 94 90 q 240 15 172 15 q 334 31 288 15 q 450 86 381 47 l 450 256 q 247 279 329 279 q 138 247 181 279 q 94 146 94 215 m 304 643 q 243 664 265 643 q 221 719 221 685 q 242 778 221 757 q 303 800 264 800 q 363 779 342 800 q 385 722 385 758 q 364 665 385 686 q 304 643 343 643 m 304 664 q 344 680 329 664 q 360 722 360 696 q 344 763 360 749 q 304 778 329 778 q 263 763 278 778 q 247 722 247 749 q 263 679 247 694 q 304 664 278 664 m 357 1021 l 399 1021 l 317 850 l 296 850 l 357 1021 z "},"ã":{"ha":614,"x_min":56,"x_max":574,"o":"m 574 31 l 574 0 l 461 0 l 451 56 q 239 -15 332 -15 q 106 29 157 -15 q 56 147 56 74 q 108 269 56 232 q 246 307 161 307 q 450 283 321 307 l 450 365 q 407 488 450 447 q 290 529 364 529 q 100 485 207 529 l 88 515 q 193 549 140 538 q 286 560 246 560 q 443 506 396 560 q 490 376 490 451 l 490 31 l 574 31 m 94 146 q 133 53 94 90 q 240 15 172 15 q 334 31 288 15 q 450 86 381 47 l 450 256 q 247 279 329 279 q 138 247 181 279 q 94 146 94 215 m 376 671 q 342 678 358 671 q 301 700 326 685 q 260 721 275 714 q 229 728 244 728 q 192 672 192 728 l 164 672 q 181 734 164 710 q 229 758 199 758 q 263 751 247 758 q 304 729 279 744 q 346 708 331 715 q 376 701 361 701 q 404 715 394 701 q 414 756 414 728 l 442 756 q 426 692 442 713 q 376 671 411 671 z "},"æ":{"ha":1067,"x_min":56,"x_max":993,"o":"m 246 -15 q 107 26 158 -15 q 56 138 56 67 q 117 255 56 218 q 274 292 178 292 l 450 292 l 450 365 q 407 488 450 447 q 290 529 364 529 q 100 485 207 529 l 88 515 q 193 549 140 538 q 286 560 246 560 q 428 515 382 560 q 482 404 475 469 q 585 520 517 479 q 733 561 653 561 q 919 488 846 561 q 993 271 993 414 l 993 263 l 489 263 q 526 135 492 190 q 615 48 560 79 q 739 17 671 17 q 867 46 803 17 q 967 118 931 75 l 981 88 q 866 11 929 38 q 738 -15 803 -15 q 589 23 657 -15 q 485 131 521 61 q 391 23 454 61 q 246 -15 328 -15 m 956 292 q 924 424 956 369 q 842 504 893 478 q 733 531 792 531 q 614 501 668 531 q 526 418 560 472 q 489 292 492 364 l 956 292 m 247 15 q 387 55 326 15 q 467 169 447 94 q 450 263 451 214 l 275 263 q 145 232 196 263 q 94 136 94 201 q 133 47 94 79 q 247 15 172 15 z "},"ǽ":{"ha":1067,"x_min":56,"x_max":993,"o":"m 246 -15 q 107 26 158 -15 q 56 138 56 67 q 117 255 56 218 q 274 292 178 292 l 450 292 l 450 365 q 407 488 450 447 q 290 529 364 529 q 100 485 207 529 l 88 515 q 193 549 140 538 q 286 560 246 560 q 428 515 382 560 q 482 404 475 469 q 585 520 517 479 q 733 561 653 561 q 919 488 846 561 q 993 271 993 414 l 993 263 l 489 263 q 526 135 492 190 q 615 48 560 79 q 739 17 671 17 q 867 46 803 17 q 967 118 931 75 l 981 88 q 866 11 929 38 q 738 -15 803 -15 q 589 23 657 -15 q 485 131 521 61 q 391 23 454 61 q 246 -15 328 -15 m 956 292 q 924 424 956 369 q 842 504 893 478 q 733 531 792 531 q 614 501 668 531 q 526 418 560 472 q 489 292 492 364 l 956 292 m 247 15 q 387 55 326 15 q 467 169 447 94 q 450 263 451 214 l 275 263 q 145 232 196 263 q 94 136 94 201 q 133 47 94 79 q 247 15 172 15 m 549 842 l 590 842 l 508 671 l 488 671 l 549 842 z "},"ǣ":{"ha":1067,"x_min":56,"x_max":993,"o":"m 246 -15 q 107 26 158 -15 q 56 138 56 67 q 117 255 56 218 q 274 292 178 292 l 450 292 l 450 365 q 407 488 450 447 q 290 529 364 529 q 100 485 207 529 l 88 515 q 193 549 140 538 q 286 560 246 560 q 428 515 382 560 q 482 404 475 469 q 585 520 517 479 q 733 561 653 561 q 919 488 846 561 q 993 271 993 414 l 993 263 l 489 263 q 526 135 492 190 q 615 48 560 79 q 739 17 671 17 q 867 46 803 17 q 967 118 931 75 l 981 88 q 866 11 929 38 q 738 -15 803 -15 q 589 23 657 -15 q 485 131 521 61 q 391 23 454 61 q 246 -15 328 -15 m 956 292 q 924 424 956 369 q 842 504 893 478 q 733 531 792 531 q 614 501 668 531 q 526 418 560 472 q 489 292 492 364 l 956 292 m 247 15 q 387 55 326 15 q 467 169 447 94 q 450 263 451 214 l 275 263 q 145 232 196 263 q 94 136 94 201 q 133 47 94 79 q 247 15 172 15 m 367 699 l 622 699 l 622 671 l 367 671 l 367 699 z "},"b":{"ha":707,"x_min":43,"x_max":665,"o":"m 386 560 q 590 485 514 560 q 665 279 665 410 q 586 64 665 143 q 375 -15 507 -15 q 270 6 322 -15 q 179 64 218 26 l 179 0 l 43 0 l 43 31 l 139 31 l 139 765 l 49 765 l 49 796 l 179 796 l 179 485 q 280 540 225 519 q 386 560 335 560 m 372 15 q 556 84 488 15 q 625 271 625 153 q 559 460 625 390 q 382 529 493 529 q 281 509 335 529 q 179 453 226 489 l 179 99 q 271 38 219 60 q 372 15 322 15 z "},"ḃ":{"ha":707,"x_min":43,"x_max":665,"o":"m 386 560 q 590 485 514 560 q 665 279 665 410 q 586 64 665 143 q 375 -15 507 -15 q 270 6 322 -15 q 179 64 218 26 l 179 0 l 43 0 l 43 31 l 139 31 l 139 765 l 49 765 l 49 796 l 179 796 l 179 485 q 280 540 225 519 q 386 560 335 560 m 372 15 q 556 84 488 15 q 625 271 625 153 q 559 460 625 390 q 382 529 493 529 q 281 509 335 529 q 179 453 226 489 l 179 99 q 271 38 219 60 q 372 15 322 15 m 410 671 q 378 683 389 671 q 368 708 368 694 q 378 736 368 725 q 410 747 389 747 q 441 736 431 747 q 451 708 451 725 q 440 683 451 694 q 410 671 429 671 z "},"c":{"ha":649,"x_min":42,"x_max":553,"o":"m 553 82 q 451 9 506 33 q 324 -15 396 -15 q 178 22 242 -15 q 78 126 114 60 q 42 275 42 192 q 78 422 42 357 q 178 524 114 488 q 324 560 243 560 q 438 535 386 560 q 513 468 489 510 l 513 546 l 550 546 l 550 386 l 518 386 q 455 490 507 450 q 326 529 403 529 q 200 497 256 529 q 113 406 144 464 q 82 274 82 347 q 113 141 82 200 q 199 49 144 82 q 325 17 254 17 q 438 39 389 17 q 538 108 488 61 l 553 82 z "},"ć":{"ha":649,"x_min":42,"x_max":553,"o":"m 553 82 q 451 9 506 33 q 324 -15 396 -15 q 178 22 242 -15 q 78 126 114 60 q 42 275 42 192 q 78 422 42 357 q 178 524 114 488 q 324 560 243 560 q 438 535 386 560 q 513 468 489 510 l 513 546 l 550 546 l 550 386 l 518 386 q 455 490 507 450 q 326 529 403 529 q 200 497 256 529 q 113 406 144 464 q 82 274 82 347 q 113 141 82 200 q 199 49 144 82 q 325 17 254 17 q 438 39 389 17 q 538 108 488 61 l 553 82 m 383 842 l 425 842 l 343 671 l 322 671 l 383 842 z "},"č":{"ha":649,"x_min":42,"x_max":553,"o":"m 553 82 q 451 9 506 33 q 324 -15 396 -15 q 178 22 242 -15 q 78 126 114 60 q 42 275 42 192 q 78 422 42 357 q 178 524 114 488 q 324 560 243 560 q 438 535 386 560 q 513 468 489 510 l 513 546 l 550 546 l 550 386 l 518 386 q 455 490 507 450 q 326 529 403 529 q 200 497 256 529 q 113 406 144 464 q 82 274 82 347 q 113 141 82 200 q 199 49 144 82 q 325 17 254 17 q 438 39 389 17 q 538 108 488 61 l 553 82 m 197 865 l 231 865 l 329 689 l 428 865 l 460 865 l 343 657 l 317 657 l 197 865 z "},"ç":{"ha":649,"x_min":42,"x_max":553,"o":"m 310 -15 l 289 -78 q 354 -95 332 -78 q 376 -140 376 -112 q 353 -186 376 -171 q 296 -201 331 -201 q 226 -183 260 -201 l 226 -162 q 282 -172 256 -172 q 335 -142 335 -172 q 316 -115 335 -124 q 251 -104 297 -106 l 286 -12 q 110 79 178 0 q 42 275 42 158 q 78 422 42 357 q 178 524 114 488 q 324 560 243 560 q 438 535 386 560 q 513 468 489 510 l 513 546 l 550 546 l 550 386 l 518 386 q 455 490 507 450 q 326 529 403 529 q 200 497 256 529 q 113 406 144 464 q 82 274 82 347 q 113 141 82 200 q 199 49 144 82 q 325 17 254 17 q 438 39 389 17 q 538 108 488 61 l 553 82 q 451 9 506 33 q 324 -15 396 -15 l 310 -15 z "},"ḉ":{"ha":649,"x_min":42,"x_max":553,"o":"m 343 671 l 322 671 l 383 842 l 425 842 l 343 671 m 310 -15 l 289 -78 q 354 -95 332 -78 q 376 -140 376 -112 q 353 -186 376 -171 q 296 -201 331 -201 q 226 -183 260 -201 l 226 -162 q 282 -172 256 -172 q 335 -142 335 -172 q 316 -115 335 -124 q 251 -104 297 -106 l 286 -12 q 110 79 178 0 q 42 275 42 158 q 78 422 42 357 q 178 524 114 488 q 324 560 243 560 q 438 535 386 560 q 513 468 489 510 l 513 546 l 550 546 l 550 386 l 518 386 q 455 490 507 450 q 326 529 403 529 q 200 497 256 529 q 113 406 144 464 q 82 274 82 347 q 113 141 82 200 q 199 49 144 82 q 325 17 254 17 q 438 39 389 17 q 538 108 488 61 l 553 82 q 451 9 506 33 q 324 -15 396 -15 l 310 -15 z "},"ĉ":{"ha":649,"x_min":42,"x_max":553,"o":"m 553 82 q 451 9 506 33 q 324 -15 396 -15 q 178 22 242 -15 q 78 126 114 60 q 42 275 42 192 q 78 422 42 357 q 178 524 114 488 q 324 560 243 560 q 438 535 386 560 q 513 468 489 510 l 513 546 l 550 546 l 550 386 l 518 386 q 455 490 507 450 q 326 529 403 529 q 200 497 256 529 q 113 406 144 464 q 82 274 82 347 q 113 141 82 200 q 199 49 144 82 q 325 17 254 17 q 438 39 389 17 q 538 108 488 61 l 553 82 m 315 839 l 344 839 l 463 629 l 429 629 l 329 810 l 229 629 l 196 629 l 315 839 z "},"ċ":{"ha":649,"x_min":42,"x_max":553,"o":"m 553 82 q 451 9 506 33 q 324 -15 396 -15 q 178 22 242 -15 q 78 126 114 60 q 42 275 42 192 q 78 422 42 357 q 178 524 114 488 q 324 560 243 560 q 438 535 386 560 q 513 468 489 510 l 513 546 l 550 546 l 550 386 l 518 386 q 455 490 507 450 q 326 529 403 529 q 200 497 256 529 q 113 406 144 464 q 82 274 82 347 q 113 141 82 200 q 199 49 144 82 q 325 17 254 17 q 438 39 389 17 q 538 108 488 61 l 553 82 m 329 671 q 298 683 308 671 q 288 708 288 694 q 298 736 288 725 q 329 747 308 747 q 360 736 350 747 q 371 708 371 725 q 360 683 371 694 q 329 671 349 671 z "},"d":{"ha":690,"x_min":42,"x_max":665,"o":"m 665 31 l 665 0 l 532 0 l 532 58 q 440 5 492 25 q 331 -15 388 -15 q 183 22 249 -15 q 79 124 117 58 q 42 274 42 189 q 78 423 42 358 q 180 524 115 488 q 328 560 244 560 q 440 541 385 560 q 532 488 494 522 l 532 765 l 440 765 l 440 796 l 572 796 l 572 31 l 665 31 m 82 268 q 115 138 82 194 q 204 49 147 81 q 333 17 261 17 q 440 37 388 17 q 532 93 492 57 l 532 451 q 438 510 489 490 q 331 529 386 529 q 202 497 258 529 q 114 404 146 464 q 82 268 82 344 z "},"ð":{"ha":610,"x_min":31,"x_max":563,"o":"m 333 713 q 500 495 438 606 q 563 268 563 385 q 527 115 563 179 q 431 18 492 51 q 300 -15 371 -15 q 151 23 213 -15 q 60 122 90 61 q 31 253 31 183 q 64 391 31 331 q 157 485 97 451 q 292 518 217 518 q 506 418 426 518 q 301 699 443 556 l 118 619 l 101 650 l 275 724 q 129 854 224 774 l 82 896 l 104 919 q 128 900 103 921 q 308 738 257 789 l 478 810 l 494 782 l 333 713 m 300 21 q 468 91 413 21 q 524 258 524 161 q 491 385 524 333 q 406 461 458 436 q 296 486 354 486 q 189 460 240 486 q 105 383 138 435 q 72 256 72 331 q 97 142 72 196 q 172 54 121 88 q 300 21 224 21 z "},"ď":{"ha":694,"x_min":42,"x_max":696,"o":"m 665 31 l 665 0 l 532 0 l 532 58 q 440 5 492 25 q 331 -15 388 -15 q 183 22 249 -15 q 79 124 117 58 q 42 274 42 189 q 78 423 42 358 q 180 524 115 488 q 328 560 244 560 q 440 541 385 560 q 532 488 494 522 l 532 765 l 440 765 l 440 796 l 572 796 l 572 31 l 665 31 m 82 268 q 115 138 82 194 q 204 49 147 81 q 333 17 261 17 q 440 37 388 17 q 532 93 492 57 l 532 451 q 438 510 489 490 q 331 529 386 529 q 202 497 258 529 q 114 404 146 464 q 82 268 82 344 m 622 628 q 659 650 650 632 q 668 722 668 668 l 628 722 l 628 796 l 696 796 l 694 718 q 679 639 694 667 q 622 611 664 611 l 622 628 z "},"đ":{"ha":690,"x_min":42,"x_max":665,"o":"m 572 651 l 572 31 l 665 31 l 665 0 l 532 0 l 532 58 q 440 5 492 25 q 331 -15 388 -15 q 183 22 249 -15 q 79 124 117 58 q 42 274 42 189 q 78 423 42 358 q 180 524 115 488 q 328 560 244 560 q 440 541 385 560 q 532 488 494 522 l 532 651 l 313 651 l 313 679 l 532 679 l 532 797 l 572 797 l 572 679 l 665 679 l 665 651 l 572 651 m 82 268 q 115 138 82 194 q 204 49 147 81 q 333 17 261 17 q 440 37 388 17 q 532 93 492 57 l 532 451 q 438 510 489 490 q 331 529 386 529 q 202 497 258 529 q 114 404 146 464 q 82 268 82 344 z "},"ḋ":{"ha":690,"x_min":42,"x_max":665,"o":"m 665 31 l 665 0 l 532 0 l 532 58 q 440 5 492 25 q 331 -15 388 -15 q 183 22 249 -15 q 79 124 117 58 q 42 274 42 189 q 78 423 42 358 q 180 524 115 488 q 328 560 244 560 q 440 541 385 560 q 532 488 494 522 l 532 765 l 440 765 l 440 796 l 572 796 l 572 31 l 665 31 m 82 268 q 115 138 82 194 q 204 49 147 81 q 333 17 261 17 q 440 37 388 17 q 532 93 492 57 l 532 451 q 438 510 489 490 q 331 529 386 529 q 202 497 258 529 q 114 404 146 464 q 82 268 82 344 m 553 921 q 522 933 532 921 q 511 958 511 944 q 522 986 511 975 q 553 997 532 997 q 584 986 574 997 q 594 958 594 975 q 583 933 594 944 q 553 921 572 921 z "},"ḍ":{"ha":690,"x_min":42,"x_max":665,"o":"m 665 31 l 665 0 l 532 0 l 532 58 q 440 5 492 25 q 331 -15 388 -15 q 183 22 249 -15 q 79 124 117 58 q 42 274 42 189 q 78 423 42 358 q 180 524 115 488 q 328 560 244 560 q 440 541 385 560 q 532 488 494 522 l 532 765 l 440 765 l 440 796 l 572 796 l 572 31 l 665 31 m 82 268 q 115 138 82 194 q 204 49 147 81 q 333 17 261 17 q 440 37 388 17 q 532 93 492 57 l 532 451 q 438 510 489 490 q 331 529 386 529 q 202 497 258 529 q 114 404 146 464 q 82 268 82 344 m 368 -149 q 337 -137 347 -149 q 326 -111 326 -125 q 337 -83 326 -94 q 368 -72 347 -72 q 399 -83 389 -72 q 410 -111 410 -94 q 399 -137 410 -125 q 368 -149 388 -149 z "},"ḏ":{"ha":690,"x_min":42,"x_max":665,"o":"m 665 31 l 665 0 l 532 0 l 532 58 q 440 5 492 25 q 331 -15 388 -15 q 183 22 249 -15 q 79 124 117 58 q 42 274 42 189 q 78 423 42 358 q 180 524 115 488 q 328 560 244 560 q 440 541 385 560 q 532 488 494 522 l 532 765 l 440 765 l 440 796 l 572 796 l 572 31 l 665 31 m 82 268 q 115 138 82 194 q 204 49 147 81 q 333 17 261 17 q 440 37 388 17 q 532 93 492 57 l 532 451 q 438 510 489 490 q 331 529 386 529 q 202 497 258 529 q 114 404 146 464 q 82 268 82 344 m 240 -72 l 496 -72 l 496 -100 l 240 -100 l 240 -72 z "},"ǳ":{"ha":1332,"x_min":42,"x_max":1226,"o":"m 665 31 l 665 0 l 532 0 l 532 58 q 440 5 492 25 q 331 -15 388 -15 q 183 22 249 -15 q 79 124 117 58 q 42 274 42 189 q 78 423 42 358 q 180 524 115 488 q 328 560 244 560 q 440 541 385 560 q 532 488 494 522 l 532 765 l 440 765 l 440 796 l 572 796 l 572 31 l 665 31 m 82 268 q 115 138 82 194 q 204 49 147 81 q 333 17 261 17 q 440 37 388 17 q 532 93 492 57 l 532 451 q 438 510 489 490 q 331 529 386 529 q 202 497 258 529 q 114 404 146 464 q 82 268 82 344 m 788 35 l 1178 517 l 842 517 l 842 385 l 806 385 l 806 546 l 1217 546 l 1217 507 l 835 29 l 1192 29 l 1192 181 l 1226 181 l 1226 0 l 788 0 l 788 35 z "},"ǆ":{"ha":1332,"x_min":42,"x_max":1226,"o":"m 665 31 l 665 0 l 532 0 l 532 58 q 440 5 492 25 q 331 -15 388 -15 q 183 22 249 -15 q 79 124 117 58 q 42 274 42 189 q 78 423 42 358 q 180 524 115 488 q 328 560 244 560 q 440 541 385 560 q 532 488 494 522 l 532 765 l 440 765 l 440 796 l 572 796 l 572 31 l 665 31 m 82 268 q 115 138 82 194 q 204 49 147 81 q 333 17 261 17 q 440 37 388 17 q 532 93 492 57 l 532 451 q 438 510 489 490 q 331 529 386 529 q 202 497 258 529 q 114 404 146 464 q 82 268 82 344 m 788 35 l 1178 517 l 842 517 l 842 385 l 806 385 l 806 546 l 1217 546 l 1217 507 l 835 29 l 1192 29 l 1192 181 l 1226 181 l 1226 0 l 788 0 l 788 35 m 886 865 l 919 865 l 1018 689 l 1117 865 l 1149 865 l 1032 657 l 1006 657 l 886 865 z "},"e":{"ha":658,"x_min":42,"x_max":585,"o":"m 585 263 l 82 263 q 118 135 85 190 q 207 48 151 79 q 331 17 263 17 q 458 46 394 17 q 558 118 522 75 l 572 88 q 458 11 521 38 q 329 -15 394 -15 q 187 19 253 -15 q 81 120 121 54 q 42 274 42 186 q 81 430 42 365 q 183 528 119 494 q 319 561 247 561 q 453 529 393 561 q 549 432 513 497 q 585 271 585 367 l 585 263 m 547 292 q 515 424 547 369 q 431 504 483 478 q 319 531 379 531 q 203 501 257 531 q 117 418 150 472 q 82 292 85 364 l 547 292 z "},"é":{"ha":658,"x_min":42,"x_max":585,"o":"m 585 263 l 82 263 q 118 135 85 190 q 207 48 151 79 q 331 17 263 17 q 458 46 394 17 q 558 118 522 75 l 572 88 q 458 11 521 38 q 329 -15 394 -15 q 187 19 253 -15 q 81 120 121 54 q 42 274 42 186 q 81 430 42 365 q 183 528 119 494 q 319 561 247 561 q 453 529 393 561 q 549 432 513 497 q 585 271 585 367 l 585 263 m 547 292 q 515 424 547 369 q 431 504 483 478 q 319 531 379 531 q 203 501 257 531 q 117 418 150 472 q 82 292 85 364 l 547 292 m 385 842 l 426 842 l 344 671 l 324 671 l 385 842 z "},"ĕ":{"ha":658,"x_min":42,"x_max":585,"o":"m 585 263 l 82 263 q 118 135 85 190 q 207 48 151 79 q 331 17 263 17 q 458 46 394 17 q 558 118 522 75 l 572 88 q 458 11 521 38 q 329 -15 394 -15 q 187 19 253 -15 q 81 120 121 54 q 42 274 42 186 q 81 430 42 365 q 183 528 119 494 q 319 561 247 561 q 453 529 393 561 q 549 432 513 497 q 585 271 585 367 l 585 263 m 547 292 q 515 424 547 369 q 431 504 483 478 q 319 531 379 531 q 203 501 257 531 q 117 418 150 472 q 82 292 85 364 l 547 292 m 331 671 q 265 694 290 671 q 231 764 239 718 l 257 764 q 331 700 274 700 q 403 764 385 700 l 429 764 q 331 671 413 671 z "},"ě":{"ha":658,"x_min":42,"x_max":585,"o":"m 585 263 l 82 263 q 118 135 85 190 q 207 48 151 79 q 331 17 263 17 q 458 46 394 17 q 558 118 522 75 l 572 88 q 458 11 521 38 q 329 -15 394 -15 q 187 19 253 -15 q 81 120 121 54 q 42 274 42 186 q 81 430 42 365 q 183 528 119 494 q 319 561 247 561 q 453 529 393 561 q 549 432 513 497 q 585 271 585 367 l 585 263 m 547 292 q 515 424 547 369 q 431 504 483 478 q 319 531 379 531 q 203 501 257 531 q 117 418 150 472 q 82 292 85 364 l 547 292 m 199 865 l 232 865 l 331 689 l 429 865 l 461 865 l 344 657 l 318 657 l 199 865 z "},"ȩ":{"ha":658,"x_min":42,"x_max":585,"o":"m 585 263 l 82 263 q 118 135 85 190 q 207 48 151 79 q 331 17 263 17 q 458 46 394 17 q 558 118 522 75 l 572 88 q 461 13 522 39 q 336 -15 400 -12 l 317 -78 q 382 -95 360 -78 q 404 -140 404 -112 q 381 -186 404 -171 q 324 -201 358 -201 q 254 -183 288 -201 l 254 -162 q 310 -172 283 -172 q 363 -142 363 -172 q 344 -115 363 -124 q 279 -104 325 -106 l 314 -15 q 178 24 240 -11 q 79 124 117 60 q 42 274 42 189 q 81 430 42 365 q 183 528 119 494 q 319 561 247 561 q 453 529 393 561 q 549 432 513 497 q 585 271 585 367 l 585 263 m 547 292 q 515 424 547 369 q 431 504 483 478 q 319 531 379 531 q 203 501 257 531 q 117 418 150 472 q 82 292 85 364 l 547 292 z "},"ḝ":{"ha":658,"x_min":42,"x_max":585,"o":"m 331 671 q 265 694 290 671 q 231 764 239 718 l 257 764 q 331 700 274 700 q 403 764 385 700 l 429 764 q 331 671 413 671 m 585 263 l 82 263 q 118 135 85 190 q 207 48 151 79 q 331 17 263 17 q 458 46 394 17 q 558 118 522 75 l 572 88 q 461 13 522 39 q 336 -15 400 -12 l 317 -78 q 382 -95 360 -78 q 404 -140 404 -112 q 381 -186 404 -171 q 324 -201 358 -201 q 254 -183 288 -201 l 254 -162 q 310 -172 283 -172 q 363 -142 363 -172 q 344 -115 363 -124 q 279 -104 325 -106 l 314 -15 q 178 24 240 -11 q 79 124 117 60 q 42 274 42 189 q 81 430 42 365 q 183 528 119 494 q 319 561 247 561 q 453 529 393 561 q 549 432 513 497 q 585 271 585 367 l 585 263 m 547 292 q 515 424 547 369 q 431 504 483 478 q 319 531 379 531 q 203 501 257 531 q 117 418 150 472 q 82 292 85 364 l 547 292 z "},"ê":{"ha":658,"x_min":42,"x_max":585,"o":"m 585 263 l 82 263 q 118 135 85 190 q 207 48 151 79 q 331 17 263 17 q 458 46 394 17 q 558 118 522 75 l 572 88 q 458 11 521 38 q 329 -15 394 -15 q 187 19 253 -15 q 81 120 121 54 q 42 274 42 186 q 81 430 42 365 q 183 528 119 494 q 319 561 247 561 q 453 529 393 561 q 549 432 513 497 q 585 271 585 367 l 585 263 m 547 292 q 515 424 547 369 q 431 504 483 478 q 319 531 379 531 q 203 501 257 531 q 117 418 150 472 q 82 292 85 364 l 547 292 m 317 839 l 346 839 l 464 629 l 431 629 l 331 810 l 231 629 l 197 629 l 317 839 z "},"ế":{"ha":658,"x_min":42,"x_max":585,"o":"m 585 263 l 82 263 q 118 135 85 190 q 207 48 151 79 q 331 17 263 17 q 458 46 394 17 q 558 118 522 75 l 572 88 q 458 11 521 38 q 329 -15 394 -15 q 187 19 253 -15 q 81 120 121 54 q 42 274 42 186 q 81 430 42 365 q 183 528 119 494 q 319 561 247 561 q 453 529 393 561 q 549 432 513 497 q 585 271 585 367 l 585 263 m 547 292 q 515 424 547 369 q 431 504 483 478 q 319 531 379 531 q 203 501 257 531 q 117 418 150 472 q 82 292 85 364 l 547 292 m 472 906 l 511 906 l 438 750 l 415 750 l 472 906 m 317 797 l 346 797 l 464 629 l 431 629 l 331 768 l 231 629 l 197 629 l 317 797 z "},"ệ":{"ha":658,"x_min":42,"x_max":585,"o":"m 585 263 l 82 263 q 118 135 85 190 q 207 48 151 79 q 331 17 263 17 q 458 46 394 17 q 558 118 522 75 l 572 88 q 458 11 521 38 q 329 -15 394 -15 q 187 19 253 -15 q 81 120 121 54 q 42 274 42 186 q 81 430 42 365 q 183 528 119 494 q 319 561 247 561 q 453 529 393 561 q 549 432 513 497 q 585 271 585 367 l 585 263 m 547 292 q 515 424 547 369 q 431 504 483 478 q 319 531 379 531 q 203 501 257 531 q 117 418 150 472 q 82 292 85 364 l 547 292 m 331 -149 q 299 -137 310 -149 q 289 -111 289 -125 q 299 -83 289 -94 q 331 -72 310 -72 q 362 -83 351 -72 q 372 -111 372 -94 q 361 -137 372 -125 q 331 -149 350 -149 m 317 839 l 346 839 l 464 629 l 431 629 l 331 810 l 231 629 l 197 629 l 317 839 z "},"ề":{"ha":658,"x_min":42,"x_max":585,"o":"m 585 263 l 82 263 q 118 135 85 190 q 207 48 151 79 q 331 17 263 17 q 458 46 394 17 q 558 118 522 75 l 572 88 q 458 11 521 38 q 329 -15 394 -15 q 187 19 253 -15 q 81 120 121 54 q 42 274 42 186 q 81 430 42 365 q 183 528 119 494 q 319 561 247 561 q 453 529 393 561 q 549 432 513 497 q 585 271 585 367 l 585 263 m 547 292 q 515 424 547 369 q 431 504 483 478 q 319 531 379 531 q 203 501 257 531 q 117 418 150 472 q 82 292 85 364 l 547 292 m 433 750 l 360 906 l 399 906 l 456 750 l 433 750 m 317 797 l 346 797 l 464 629 l 431 629 l 331 768 l 231 629 l 197 629 l 317 797 z "},"ể":{"ha":658,"x_min":42,"x_max":585,"o":"m 585 263 l 82 263 q 118 135 85 190 q 207 48 151 79 q 331 17 263 17 q 458 46 394 17 q 558 118 522 75 l 572 88 q 458 11 521 38 q 329 -15 394 -15 q 187 19 253 -15 q 81 120 121 54 q 42 274 42 186 q 81 430 42 365 q 183 528 119 494 q 319 561 247 561 q 453 529 393 561 q 549 432 513 497 q 585 271 585 367 l 585 263 m 547 292 q 515 424 547 369 q 431 504 483 478 q 319 531 379 531 q 203 501 257 531 q 117 418 150 472 q 82 292 85 364 l 547 292 m 413 774 q 453 822 453 790 q 440 852 453 842 q 406 863 428 863 q 346 844 378 863 l 332 875 q 408 894 371 894 q 466 875 444 894 q 488 825 488 856 q 472 776 488 794 q 425 744 457 757 l 413 774 m 317 797 l 346 797 l 464 629 l 431 629 l 331 768 l 231 629 l 197 629 l 317 797 z "},"ễ":{"ha":658,"x_min":42,"x_max":585,"o":"m 585 263 l 82 263 q 118 135 85 190 q 207 48 151 79 q 331 17 263 17 q 458 46 394 17 q 558 118 522 75 l 572 88 q 458 11 521 38 q 329 -15 394 -15 q 187 19 253 -15 q 81 120 121 54 q 42 274 42 186 q 81 430 42 365 q 183 528 119 494 q 319 561 247 561 q 453 529 393 561 q 549 432 513 497 q 585 271 585 367 l 585 263 m 547 292 q 515 424 547 369 q 431 504 483 478 q 319 531 379 531 q 203 501 257 531 q 117 418 150 472 q 82 292 85 364 l 547 292 m 392 819 q 362 825 376 819 q 326 842 347 831 q 295 856 311 850 q 265 863 279 863 q 232 821 232 863 l 204 821 q 222 872 204 851 q 269 893 240 893 q 299 888 285 893 q 335 871 314 882 q 393 850 371 850 q 417 860 408 850 q 426 890 426 871 l 454 890 q 392 819 454 819 m 317 797 l 346 797 l 464 629 l 431 629 l 331 768 l 231 629 l 197 629 l 317 797 z "},"ȅ":{"ha":658,"x_min":42,"x_max":585,"o":"m 585 263 l 82 263 q 118 135 85 190 q 207 48 151 79 q 331 17 263 17 q 458 46 394 17 q 558 118 522 75 l 572 88 q 458 11 521 38 q 329 -15 394 -15 q 187 19 253 -15 q 81 120 121 54 q 42 274 42 186 q 81 430 42 365 q 183 528 119 494 q 319 561 247 561 q 453 529 393 561 q 549 432 513 497 q 585 271 585 367 l 585 263 m 547 292 q 515 424 547 369 q 431 504 483 478 q 319 531 379 531 q 203 501 257 531 q 117 418 150 472 q 82 292 85 364 l 547 292 m 149 872 l 190 872 l 263 671 l 242 671 l 149 872 m 281 872 l 321 872 l 394 671 l 374 671 l 281 872 z "},"ë":{"ha":658,"x_min":42,"x_max":585,"o":"m 585 263 l 82 263 q 118 135 85 190 q 207 48 151 79 q 331 17 263 17 q 458 46 394 17 q 558 118 522 75 l 572 88 q 458 11 521 38 q 329 -15 394 -15 q 187 19 253 -15 q 81 120 121 54 q 42 274 42 186 q 81 430 42 365 q 183 528 119 494 q 319 561 247 561 q 453 529 393 561 q 549 432 513 497 q 585 271 585 367 l 585 263 m 547 292 q 515 424 547 369 q 431 504 483 478 q 319 531 379 531 q 203 501 257 531 q 117 418 150 472 q 82 292 85 364 l 547 292 m 221 672 q 199 681 207 672 q 190 703 190 689 q 199 724 190 717 q 221 732 207 732 q 243 724 235 732 q 251 703 251 717 q 243 681 251 689 q 221 672 235 672 m 440 672 q 418 680 426 672 q 410 701 410 688 q 418 724 410 715 q 440 732 426 732 q 463 724 454 732 q 471 701 471 715 q 463 680 471 688 q 440 672 454 672 z "},"ė":{"ha":658,"x_min":42,"x_max":585,"o":"m 585 263 l 82 263 q 118 135 85 190 q 207 48 151 79 q 331 17 263 17 q 458 46 394 17 q 558 118 522 75 l 572 88 q 458 11 521 38 q 329 -15 394 -15 q 187 19 253 -15 q 81 120 121 54 q 42 274 42 186 q 81 430 42 365 q 183 528 119 494 q 319 561 247 561 q 453 529 393 561 q 549 432 513 497 q 585 271 585 367 l 585 263 m 547 292 q 515 424 547 369 q 431 504 483 478 q 319 531 379 531 q 203 501 257 531 q 117 418 150 472 q 82 292 85 364 l 547 292 m 331 671 q 299 683 310 671 q 289 708 289 694 q 299 736 289 725 q 331 747 310 747 q 362 736 351 747 q 372 708 372 725 q 361 683 372 694 q 331 671 350 671 z "},"ẹ":{"ha":658,"x_min":42,"x_max":585,"o":"m 585 263 l 82 263 q 118 135 85 190 q 207 48 151 79 q 331 17 263 17 q 458 46 394 17 q 558 118 522 75 l 572 88 q 458 11 521 38 q 329 -15 394 -15 q 187 19 253 -15 q 81 120 121 54 q 42 274 42 186 q 81 430 42 365 q 183 528 119 494 q 319 561 247 561 q 453 529 393 561 q 549 432 513 497 q 585 271 585 367 l 585 263 m 547 292 q 515 424 547 369 q 431 504 483 478 q 319 531 379 531 q 203 501 257 531 q 117 418 150 472 q 82 292 85 364 l 547 292 m 331 -149 q 299 -137 310 -149 q 289 -111 289 -125 q 299 -83 289 -94 q 331 -72 310 -72 q 362 -83 351 -72 q 372 -111 372 -94 q 361 -137 372 -125 q 331 -149 350 -149 z "},"è":{"ha":658,"x_min":42,"x_max":585,"o":"m 585 263 l 82 263 q 118 135 85 190 q 207 48 151 79 q 331 17 263 17 q 458 46 394 17 q 558 118 522 75 l 572 88 q 458 11 521 38 q 329 -15 394 -15 q 187 19 253 -15 q 81 120 121 54 q 42 274 42 186 q 81 430 42 365 q 183 528 119 494 q 319 561 247 561 q 453 529 393 561 q 549 432 513 497 q 585 271 585 367 l 585 263 m 547 292 q 515 424 547 369 q 431 504 483 478 q 319 531 379 531 q 203 501 257 531 q 117 418 150 472 q 82 292 85 364 l 547 292 m 235 842 l 276 842 l 338 671 l 315 671 l 235 842 z "},"ẻ":{"ha":658,"x_min":42,"x_max":585,"o":"m 585 263 l 82 263 q 118 135 85 190 q 207 48 151 79 q 331 17 263 17 q 458 46 394 17 q 558 118 522 75 l 572 88 q 458 11 521 38 q 329 -15 394 -15 q 187 19 253 -15 q 81 120 121 54 q 42 274 42 186 q 81 430 42 365 q 183 528 119 494 q 319 561 247 561 q 453 529 393 561 q 549 432 513 497 q 585 271 585 367 l 585 263 m 547 292 q 515 424 547 369 q 431 504 483 478 q 319 531 379 531 q 203 501 257 531 q 117 418 150 472 q 82 292 85 364 l 547 292 m 318 638 q 358 686 358 654 q 346 716 358 706 q 311 726 333 726 q 251 708 283 726 l 238 739 q 314 758 276 758 q 372 739 350 758 q 393 689 393 719 q 378 640 393 658 q 331 608 363 621 l 318 638 z "},"ȇ":{"ha":658,"x_min":42,"x_max":585,"o":"m 585 263 l 82 263 q 118 135 85 190 q 207 48 151 79 q 331 17 263 17 q 458 46 394 17 q 558 118 522 75 l 572 88 q 458 11 521 38 q 329 -15 394 -15 q 187 19 253 -15 q 81 120 121 54 q 42 274 42 186 q 81 430 42 365 q 183 528 119 494 q 319 561 247 561 q 453 529 393 561 q 549 432 513 497 q 585 271 585 367 l 585 263 m 547 292 q 515 424 547 369 q 431 504 483 478 q 319 531 379 531 q 203 501 257 531 q 117 418 150 472 q 82 292 85 364 l 547 292 m 231 657 q 331 750 250 750 q 431 657 414 750 l 403 657 q 331 719 385 719 q 258 657 275 719 l 231 657 z "},"ē":{"ha":658,"x_min":42,"x_max":585,"o":"m 585 263 l 82 263 q 118 135 85 190 q 207 48 151 79 q 331 17 263 17 q 458 46 394 17 q 558 118 522 75 l 572 88 q 458 11 521 38 q 329 -15 394 -15 q 187 19 253 -15 q 81 120 121 54 q 42 274 42 186 q 81 430 42 365 q 183 528 119 494 q 319 561 247 561 q 453 529 393 561 q 549 432 513 497 q 585 271 585 367 l 585 263 m 547 292 q 515 424 547 369 q 431 504 483 478 q 319 531 379 531 q 203 501 257 531 q 117 418 150 472 q 82 292 85 364 l 547 292 m 203 699 l 458 699 l 458 671 l 203 671 l 203 699 z "},"ḗ":{"ha":658,"x_min":42,"x_max":585,"o":"m 585 263 l 82 263 q 118 135 85 190 q 207 48 151 79 q 331 17 263 17 q 458 46 394 17 q 558 118 522 75 l 572 88 q 458 11 521 38 q 329 -15 394 -15 q 187 19 253 -15 q 81 120 121 54 q 42 274 42 186 q 81 430 42 365 q 183 528 119 494 q 319 561 247 561 q 453 529 393 561 q 549 432 513 497 q 585 271 585 367 l 585 263 m 547 292 q 515 424 547 369 q 431 504 483 478 q 319 531 379 531 q 203 501 257 531 q 117 418 150 472 q 82 292 85 364 l 547 292 m 203 699 l 458 699 l 458 671 l 203 671 l 203 699 m 385 979 l 426 979 l 344 808 l 324 808 l 385 979 z "},"ḕ":{"ha":658,"x_min":42,"x_max":585,"o":"m 585 263 l 82 263 q 118 135 85 190 q 207 48 151 79 q 331 17 263 17 q 458 46 394 17 q 558 118 522 75 l 572 88 q 458 11 521 38 q 329 -15 394 -15 q 187 19 253 -15 q 81 120 121 54 q 42 274 42 186 q 81 430 42 365 q 183 528 119 494 q 319 561 247 561 q 453 529 393 561 q 549 432 513 497 q 585 271 585 367 l 585 263 m 547 292 q 515 424 547 369 q 431 504 483 478 q 319 531 379 531 q 203 501 257 531 q 117 418 150 472 q 82 292 85 364 l 547 292 m 203 699 l 458 699 l 458 671 l 203 671 l 203 699 m 235 979 l 276 979 l 338 808 l 315 808 l 235 979 z "},"ę":{"ha":658,"x_min":42,"x_max":585,"o":"m 585 263 l 82 263 q 118 135 85 190 q 207 48 151 79 q 331 17 263 17 q 458 46 394 17 q 558 118 522 75 l 572 88 q 474 19 528 44 q 363 -14 419 -7 q 307 -119 307 -72 q 324 -166 307 -150 q 369 -182 342 -182 q 435 -158 403 -182 l 435 -186 q 358 -212 397 -212 q 294 -190 321 -212 q 268 -129 268 -168 q 328 -15 268 -72 q 186 21 251 -14 q 81 121 121 56 q 42 274 42 186 q 81 430 42 365 q 183 528 119 494 q 319 561 247 561 q 453 529 393 561 q 549 432 513 497 q 585 271 585 367 l 585 263 m 547 292 q 515 424 547 369 q 431 504 483 478 q 319 531 379 531 q 203 501 257 531 q 117 418 150 472 q 82 292 85 364 l 547 292 z "},"ẽ":{"ha":658,"x_min":42,"x_max":585,"o":"m 585 263 l 82 263 q 118 135 85 190 q 207 48 151 79 q 331 17 263 17 q 458 46 394 17 q 558 118 522 75 l 572 88 q 458 11 521 38 q 329 -15 394 -15 q 187 19 253 -15 q 81 120 121 54 q 42 274 42 186 q 81 430 42 365 q 183 528 119 494 q 319 561 247 561 q 453 529 393 561 q 549 432 513 497 q 585 271 585 367 l 585 263 m 547 292 q 515 424 547 369 q 431 504 483 478 q 319 531 379 531 q 203 501 257 531 q 117 418 150 472 q 82 292 85 364 l 547 292 m 404 671 q 370 678 386 671 q 329 700 354 685 q 288 721 303 714 q 257 728 272 728 q 219 672 219 728 l 192 672 q 209 734 192 710 q 257 758 226 758 q 291 751 275 758 q 332 729 307 744 q 374 708 358 715 q 404 701 389 701 q 432 715 422 701 q 442 756 442 728 l 469 756 q 454 692 469 713 q 404 671 439 671 z "},"ə":{"ha":658,"x_min":74,"x_max":617,"o":"m 329 561 q 472 526 406 561 q 577 426 538 492 q 617 272 617 360 q 578 116 617 181 q 475 18 539 51 q 339 -15 411 -15 q 206 17 265 -15 q 110 114 146 49 q 74 275 74 179 l 74 283 l 576 283 q 540 411 574 356 q 451 498 507 467 q 328 529 396 529 q 200 500 264 529 q 100 428 136 471 l 86 458 q 201 535 138 508 q 329 561 264 561 m 339 15 q 455 44 401 15 q 541 128 508 74 q 576 254 574 182 l 111 254 q 143 122 111 176 q 227 42 175 68 q 339 15 279 15 z "},"f":{"ha":374,"x_min":72,"x_max":401,"o":"m 75 31 l 176 31 l 176 515 l 72 515 l 72 546 l 176 546 l 176 697 q 208 780 176 750 q 292 810 239 810 q 368 786 339 810 q 401 718 397 763 l 371 706 q 294 779 360 779 q 240 758 260 779 q 219 696 219 736 l 219 546 l 365 546 l 365 515 l 219 515 l 219 31 l 351 31 l 351 0 l 75 0 l 75 31 z "},"ḟ":{"ha":374,"x_min":72,"x_max":401,"o":"m 75 31 l 176 31 l 176 515 l 72 515 l 72 546 l 176 546 l 176 697 q 208 780 176 750 q 292 810 239 810 q 368 786 339 810 q 401 718 397 763 l 371 706 q 294 779 360 779 q 240 758 260 779 q 219 696 219 736 l 219 546 l 365 546 l 365 515 l 219 515 l 219 31 l 351 31 l 351 0 l 75 0 l 75 31 m 292 921 q 260 933 271 921 q 250 958 250 944 q 260 986 250 975 q 292 997 271 997 q 323 986 313 997 q 333 958 333 975 q 322 933 333 944 q 292 921 311 921 z "},"g":{"ha":690,"x_min":43,"x_max":672,"o":"m 672 546 l 672 515 l 579 515 l 579 -11 q 513 -195 579 -135 q 324 -256 446 -256 q 129 -224 254 -256 l 136 -192 q 325 -224 246 -224 q 485 -170 431 -224 q 539 -21 539 -117 l 539 75 q 442 17 499 39 q 331 -4 385 -4 q 183 32 249 -4 q 80 132 117 68 q 43 279 43 196 q 78 425 43 361 q 174 524 113 489 q 315 558 236 558 q 435 537 374 558 q 539 479 496 515 l 539 546 l 672 546 m 83 274 q 115 145 83 201 q 204 58 147 89 q 333 26 261 26 q 442 49 386 26 q 539 107 499 71 l 539 450 q 433 508 493 486 q 318 529 374 529 q 149 458 214 529 q 83 274 83 388 z "},"ǵ":{"ha":690,"x_min":43,"x_max":672,"o":"m 672 546 l 672 515 l 579 515 l 579 -11 q 513 -195 579 -135 q 324 -256 446 -256 q 129 -224 254 -256 l 136 -192 q 325 -224 246 -224 q 485 -170 431 -224 q 539 -21 539 -117 l 539 75 q 442 17 499 39 q 331 -4 385 -4 q 183 32 249 -4 q 80 132 117 68 q 43 279 43 196 q 78 425 43 361 q 174 524 113 489 q 315 558 236 558 q 435 537 374 558 q 539 479 496 515 l 539 546 l 672 546 m 83 274 q 115 145 83 201 q 204 58 147 89 q 333 26 261 26 q 442 49 386 26 q 539 107 499 71 l 539 450 q 433 508 493 486 q 318 529 374 529 q 149 458 214 529 q 83 274 83 388 m 386 842 l 428 842 l 346 671 l 325 671 l 386 842 z "},"ğ":{"ha":690,"x_min":43,"x_max":672,"o":"m 672 546 l 672 515 l 579 515 l 579 -11 q 513 -195 579 -135 q 324 -256 446 -256 q 129 -224 254 -256 l 136 -192 q 325 -224 246 -224 q 485 -170 431 -224 q 539 -21 539 -117 l 539 75 q 442 17 499 39 q 331 -4 385 -4 q 183 32 249 -4 q 80 132 117 68 q 43 279 43 196 q 78 425 43 361 q 174 524 113 489 q 315 558 236 558 q 435 537 374 558 q 539 479 496 515 l 539 546 l 672 546 m 83 274 q 115 145 83 201 q 204 58 147 89 q 333 26 261 26 q 442 49 386 26 q 539 107 499 71 l 539 450 q 433 508 493 486 q 318 529 374 529 q 149 458 214 529 q 83 274 83 388 m 332 671 q 266 694 292 671 q 232 764 240 718 l 258 764 q 332 700 275 700 q 404 764 386 700 l 431 764 q 332 671 414 671 z "},"ǧ":{"ha":690,"x_min":43,"x_max":672,"o":"m 672 546 l 672 515 l 579 515 l 579 -11 q 513 -195 579 -135 q 324 -256 446 -256 q 129 -224 254 -256 l 136 -192 q 325 -224 246 -224 q 485 -170 431 -224 q 539 -21 539 -117 l 539 75 q 442 17 499 39 q 331 -4 385 -4 q 183 32 249 -4 q 80 132 117 68 q 43 279 43 196 q 78 425 43 361 q 174 524 113 489 q 315 558 236 558 q 435 537 374 558 q 539 479 496 515 l 539 546 l 672 546 m 83 274 q 115 145 83 201 q 204 58 147 89 q 333 26 261 26 q 442 49 386 26 q 539 107 499 71 l 539 450 q 433 508 493 486 q 318 529 374 529 q 149 458 214 529 q 83 274 83 388 m 200 865 l 233 865 l 332 689 l 431 865 l 463 865 l 346 657 l 319 657 l 200 865 z "},"ĝ":{"ha":690,"x_min":43,"x_max":672,"o":"m 672 546 l 672 515 l 579 515 l 579 -11 q 513 -195 579 -135 q 324 -256 446 -256 q 129 -224 254 -256 l 136 -192 q 325 -224 246 -224 q 485 -170 431 -224 q 539 -21 539 -117 l 539 75 q 442 17 499 39 q 331 -4 385 -4 q 183 32 249 -4 q 80 132 117 68 q 43 279 43 196 q 78 425 43 361 q 174 524 113 489 q 315 558 236 558 q 435 537 374 558 q 539 479 496 515 l 539 546 l 672 546 m 83 274 q 115 145 83 201 q 204 58 147 89 q 333 26 261 26 q 442 49 386 26 q 539 107 499 71 l 539 450 q 433 508 493 486 q 318 529 374 529 q 149 458 214 529 q 83 274 83 388 m 318 839 l 347 839 l 465 629 l 432 629 l 332 810 l 232 629 l 199 629 l 318 839 z "},"ģ":{"ha":690,"x_min":43,"x_max":672,"o":"m 672 546 l 672 515 l 579 515 l 579 -11 q 513 -195 579 -135 q 324 -256 446 -256 q 129 -224 254 -256 l 136 -192 q 325 -224 246 -224 q 485 -170 431 -224 q 539 -21 539 -117 l 539 75 q 442 17 499 39 q 331 -4 385 -4 q 183 32 249 -4 q 80 132 117 68 q 43 279 43 196 q 78 425 43 361 q 174 524 113 489 q 315 558 236 558 q 435 537 374 558 q 539 479 496 515 l 539 546 l 672 546 m 83 274 q 115 145 83 201 q 204 58 147 89 q 333 26 261 26 q 442 49 386 26 q 539 107 499 71 l 539 450 q 433 508 493 486 q 318 529 374 529 q 149 458 214 529 q 83 274 83 388 m 369 826 q 329 799 338 824 q 321 721 321 774 l 360 721 l 360 656 l 293 656 l 293 729 q 308 814 293 783 q 369 843 324 844 l 369 826 z "},"ġ":{"ha":690,"x_min":43,"x_max":672,"o":"m 672 546 l 672 515 l 579 515 l 579 -11 q 513 -195 579 -135 q 324 -256 446 -256 q 129 -224 254 -256 l 136 -192 q 325 -224 246 -224 q 485 -170 431 -224 q 539 -21 539 -117 l 539 75 q 442 17 499 39 q 331 -4 385 -4 q 183 32 249 -4 q 80 132 117 68 q 43 279 43 196 q 78 425 43 361 q 174 524 113 489 q 315 558 236 558 q 435 537 374 558 q 539 479 496 515 l 539 546 l 672 546 m 83 274 q 115 145 83 201 q 204 58 147 89 q 333 26 261 26 q 442 49 386 26 q 539 107 499 71 l 539 450 q 433 508 493 486 q 318 529 374 529 q 149 458 214 529 q 83 274 83 388 m 332 671 q 301 683 311 671 q 290 708 290 694 q 301 736 290 725 q 332 747 311 747 q 363 736 353 747 q 374 708 374 725 q 363 683 374 694 q 332 671 351 671 z "},"ḡ":{"ha":690,"x_min":43,"x_max":672,"o":"m 672 546 l 672 515 l 579 515 l 579 -11 q 513 -195 579 -135 q 324 -256 446 -256 q 129 -224 254 -256 l 136 -192 q 325 -224 246 -224 q 485 -170 431 -224 q 539 -21 539 -117 l 539 75 q 442 17 499 39 q 331 -4 385 -4 q 183 32 249 -4 q 80 132 117 68 q 43 279 43 196 q 78 425 43 361 q 174 524 113 489 q 315 558 236 558 q 435 537 374 558 q 539 479 496 515 l 539 546 l 672 546 m 83 274 q 115 145 83 201 q 204 58 147 89 q 333 26 261 26 q 442 49 386 26 q 539 107 499 71 l 539 450 q 433 508 493 486 q 318 529 374 529 q 149 458 214 529 q 83 274 83 388 m 204 699 l 460 699 l 460 671 l 204 671 l 204 699 z "},"h":{"ha":669,"x_min":14,"x_max":656,"o":"m 656 31 l 656 0 l 393 0 l 393 31 l 511 31 l 511 403 q 475 494 511 461 q 379 528 439 528 q 154 454 296 528 l 154 31 l 254 31 l 254 0 l 14 0 l 14 31 l 114 31 l 114 765 l 18 765 l 18 796 l 154 796 l 154 483 q 276 541 224 522 q 383 560 329 560 q 505 515 460 560 q 550 392 550 469 l 550 31 l 656 31 z "},"ħ":{"ha":669,"x_min":7,"x_max":656,"o":"m 656 31 l 656 0 l 393 0 l 393 31 l 511 31 l 511 403 q 475 494 511 461 q 379 528 439 528 q 154 454 296 528 l 154 31 l 254 31 l 254 0 l 14 0 l 14 31 l 114 31 l 114 765 l 18 765 l 18 796 l 154 796 l 154 483 q 276 541 224 522 q 383 560 329 560 q 505 515 460 560 q 550 392 550 469 l 550 31 l 656 31 m 7 950 l 263 950 l 263 922 l 7 922 l 7 950 z "},"ḫ":{"ha":669,"x_min":14,"x_max":656,"o":"m 656 31 l 656 0 l 393 0 l 393 31 l 511 31 l 511 403 q 475 494 511 461 q 379 528 439 528 q 154 454 296 528 l 154 31 l 254 31 l 254 0 l 14 0 l 14 31 l 114 31 l 114 765 l 18 765 l 18 796 l 154 796 l 154 483 q 276 541 224 522 q 383 560 329 560 q 505 515 460 560 q 550 392 550 469 l 550 31 l 656 31 m 324 -165 q 258 -142 283 -165 q 224 -72 232 -118 l 250 -72 q 324 -136 267 -136 q 396 -72 378 -136 l 422 -72 q 324 -165 406 -165 z "},"ȟ":{"ha":669,"x_min":3,"x_max":656,"o":"m 656 31 l 656 0 l 393 0 l 393 31 l 511 31 l 511 403 q 475 494 511 461 q 379 528 439 528 q 154 454 296 528 l 154 31 l 254 31 l 254 0 l 14 0 l 14 31 l 114 31 l 114 765 l 18 765 l 18 796 l 154 796 l 154 483 q 276 541 224 522 q 383 560 329 560 q 505 515 460 560 q 550 392 550 469 l 550 31 l 656 31 m 3 1117 l 36 1117 l 135 940 l 233 1117 l 265 1117 l 149 908 l 122 908 l 3 1117 z "},"ĥ":{"ha":669,"x_min":1,"x_max":656,"o":"m 656 31 l 656 0 l 393 0 l 393 31 l 511 31 l 511 403 q 475 494 511 461 q 379 528 439 528 q 154 454 296 528 l 154 31 l 254 31 l 254 0 l 14 0 l 14 31 l 114 31 l 114 765 l 18 765 l 18 796 l 154 796 l 154 483 q 276 541 224 522 q 383 560 329 560 q 505 515 460 560 q 550 392 550 469 l 550 31 l 656 31 m 121 1090 l 150 1090 l 268 881 l 235 881 l 135 1061 l 35 881 l 1 881 l 121 1090 z "},"ḥ":{"ha":669,"x_min":14,"x_max":656,"o":"m 656 31 l 656 0 l 393 0 l 393 31 l 511 31 l 511 403 q 475 494 511 461 q 379 528 439 528 q 154 454 296 528 l 154 31 l 254 31 l 254 0 l 14 0 l 14 31 l 114 31 l 114 765 l 18 765 l 18 796 l 154 796 l 154 483 q 276 541 224 522 q 383 560 329 560 q 505 515 460 560 q 550 392 550 469 l 550 31 l 656 31 m 324 -149 q 292 -137 303 -149 q 282 -111 282 -125 q 292 -83 282 -94 q 324 -72 303 -72 q 355 -83 344 -72 q 365 -111 365 -94 q 354 -137 365 -125 q 324 -149 343 -149 z "},"i":{"ha":331,"x_min":25,"x_max":304,"o":"m 154 688 q 128 697 138 688 q 118 722 118 707 q 128 747 118 738 q 154 756 138 756 q 181 747 171 756 q 192 722 192 738 q 181 697 192 707 q 154 688 171 688 m 25 31 l 144 31 l 144 515 l 26 515 l 26 546 l 185 546 l 185 31 l 304 31 l 304 0 l 25 0 l 25 31 z "},"ı":{"ha":328,"x_min":25,"x_max":301,"o":"m 25 31 l 144 31 l 144 515 l 26 515 l 26 546 l 185 546 l 185 31 l 301 31 l 301 0 l 25 0 l 25 31 z "},"í":{"ha":328,"x_min":25,"x_max":301,"o":"m 25 31 l 144 31 l 144 515 l 26 515 l 26 546 l 185 546 l 185 31 l 301 31 l 301 0 l 25 0 l 25 31 m 208 842 l 250 842 l 168 671 l 147 671 l 208 842 z "},"ĭ":{"ha":328,"x_min":25,"x_max":301,"o":"m 25 31 l 144 31 l 144 515 l 26 515 l 26 546 l 185 546 l 185 31 l 301 31 l 301 0 l 25 0 l 25 31 m 154 671 q 88 694 114 671 q 54 764 63 718 l 81 764 q 154 700 97 700 q 226 764 208 700 l 253 764 q 154 671 236 671 z "},"ǐ":{"ha":328,"x_min":22,"x_max":301,"o":"m 25 31 l 144 31 l 144 515 l 26 515 l 26 546 l 185 546 l 185 31 l 301 31 l 301 0 l 25 0 l 25 31 m 22 865 l 56 865 l 154 689 l 253 865 l 285 865 l 168 657 l 142 657 l 22 865 z "},"î":{"ha":328,"x_min":21,"x_max":301,"o":"m 25 31 l 144 31 l 144 515 l 26 515 l 26 546 l 185 546 l 185 31 l 301 31 l 301 0 l 25 0 l 25 31 m 140 839 l 169 839 l 288 629 l 254 629 l 154 810 l 54 629 l 21 629 l 140 839 z "},"ȉ":{"ha":328,"x_min":-28,"x_max":301,"o":"m 25 31 l 144 31 l 144 515 l 26 515 l 26 546 l 185 546 l 185 31 l 301 31 l 301 0 l 25 0 l 25 31 m -28 872 l 14 872 l 86 671 l 65 671 l -28 872 m 104 872 l 144 872 l 218 671 l 197 671 l 104 872 z "},"ï":{"ha":328,"x_min":14,"x_max":301,"o":"m 25 31 l 144 31 l 144 515 l 26 515 l 26 546 l 185 546 l 185 31 l 301 31 l 301 0 l 25 0 l 25 31 m 44 672 q 22 681 31 672 q 14 703 14 689 q 22 724 14 717 q 44 732 31 732 q 67 724 58 732 q 75 703 75 717 q 67 681 75 689 q 44 672 58 672 m 264 672 q 242 680 250 672 q 233 701 233 688 q 242 724 233 715 q 264 732 250 732 q 286 724 278 732 q 294 701 294 715 q 286 680 294 688 q 264 672 278 672 z "},"ḯ":{"ha":328,"x_min":14,"x_max":301,"o":"m 25 31 l 144 31 l 144 515 l 26 515 l 26 546 l 185 546 l 185 31 l 301 31 l 301 0 l 25 0 l 25 31 m 44 672 q 22 681 31 672 q 14 703 14 689 q 22 724 14 717 q 44 732 31 732 q 67 724 58 732 q 75 703 75 717 q 67 681 75 689 q 44 672 58 672 m 264 672 q 242 680 250 672 q 233 701 233 688 q 242 724 233 715 q 264 732 250 732 q 286 724 278 732 q 294 701 294 715 q 286 680 294 688 q 264 672 278 672 m 208 1042 l 250 1042 l 168 871 l 147 871 l 208 1042 z "},"ị":{"ha":331,"x_min":25,"x_max":304,"o":"m 154 688 q 128 697 138 688 q 118 722 118 707 q 128 747 118 738 q 154 756 138 756 q 181 747 171 756 q 192 722 192 738 q 181 697 192 707 q 154 688 171 688 m 25 31 l 144 31 l 144 515 l 26 515 l 26 546 l 185 546 l 185 31 l 304 31 l 304 0 l 25 0 l 25 31 m 165 -149 q 134 -137 144 -149 q 124 -111 124 -125 q 134 -83 124 -94 q 165 -72 144 -72 q 197 -83 186 -72 q 207 -111 207 -94 q 196 -137 207 -125 q 165 -149 185 -149 z "},"ì":{"ha":328,"x_min":25,"x_max":301,"o":"m 25 31 l 144 31 l 144 515 l 26 515 l 26 546 l 185 546 l 185 31 l 301 31 l 301 0 l 25 0 l 25 31 m 58 842 l 100 842 l 161 671 l 139 671 l 58 842 z "},"ỉ":{"ha":328,"x_min":25,"x_max":301,"o":"m 25 31 l 144 31 l 144 515 l 26 515 l 26 546 l 185 546 l 185 31 l 301 31 l 301 0 l 25 0 l 25 31 m 142 638 q 182 686 182 654 q 169 716 182 706 q 135 726 157 726 q 75 708 107 726 l 61 739 q 138 758 100 758 q 195 739 174 758 q 217 689 217 719 q 201 640 217 658 q 154 608 186 621 l 142 638 z "},"ȋ":{"ha":328,"x_min":25,"x_max":301,"o":"m 25 31 l 144 31 l 144 515 l 26 515 l 26 546 l 185 546 l 185 31 l 301 31 l 301 0 l 25 0 l 25 31 m 54 657 q 154 750 74 750 q 254 657 238 750 l 226 657 q 154 719 208 719 q 82 657 99 719 l 54 657 z "},"ĳ":{"ha":611,"x_min":25,"x_max":528,"o":"m 154 688 q 128 697 138 688 q 118 722 118 707 q 128 747 118 738 q 154 756 138 756 q 181 747 171 756 q 192 722 192 738 q 181 697 192 707 q 154 688 171 688 m 25 31 l 144 31 l 144 515 l 26 515 l 26 546 l 185 546 l 185 31 l 304 31 l 304 0 l 25 0 l 25 31 m 490 689 q 464 699 475 689 q 453 724 453 708 q 464 747 453 738 q 490 756 475 756 q 517 747 507 756 q 528 724 528 738 q 517 699 528 708 q 490 689 507 689 m 344 -139 l 389 -139 q 460 -115 440 -139 q 481 -29 481 -90 l 481 518 l 374 518 l 374 546 l 524 546 l 524 -28 q 490 -135 524 -100 q 386 -169 457 -169 l 344 -169 l 344 -139 z "},"ī":{"ha":328,"x_min":25,"x_max":301,"o":"m 25 31 l 144 31 l 144 515 l 26 515 l 26 546 l 185 546 l 185 31 l 301 31 l 301 0 l 25 0 l 25 31 m 26 699 l 282 699 l 282 671 l 26 671 l 26 699 z "},"į":{"ha":328,"x_min":25,"x_max":301,"o":"m 25 31 l 144 31 l 144 515 l 26 515 l 26 546 l 185 546 l 185 31 l 301 31 l 301 0 l 25 0 l 25 31 m 149 -212 q 85 -190 111 -212 q 58 -129 58 -168 q 135 0 58 -65 l 165 0 q 115 -62 132 -33 q 97 -119 97 -92 q 115 -166 97 -150 q 160 -182 132 -182 q 225 -158 193 -182 l 225 -186 q 149 -212 188 -212 m 154 671 q 123 683 133 671 q 113 708 113 694 q 123 736 113 725 q 154 747 133 747 q 185 736 175 747 q 196 708 196 725 q 185 683 196 694 q 154 671 174 671 z "},"ĩ":{"ha":328,"x_min":15,"x_max":301,"o":"m 25 31 l 144 31 l 144 515 l 26 515 l 26 546 l 185 546 l 185 31 l 301 31 l 301 0 l 25 0 l 25 31 m 228 671 q 194 678 210 671 q 153 700 178 685 q 111 721 126 714 q 81 728 96 728 q 43 672 43 728 l 15 672 q 33 734 15 710 q 81 758 50 758 q 115 751 99 758 q 156 729 131 744 q 197 708 182 715 q 228 701 213 701 q 256 715 246 701 q 265 756 265 728 l 293 756 q 278 692 293 713 q 228 671 263 671 z "},"j":{"ha":281,"x_min":14,"x_max":197,"o":"m 160 689 q 133 699 144 689 q 122 724 122 708 q 133 747 122 738 q 160 756 144 756 q 187 747 176 756 q 197 724 197 738 q 187 699 197 708 q 160 689 176 689 m 14 -139 l 58 -139 q 130 -115 110 -139 q 150 -29 150 -90 l 150 518 l 43 518 l 43 546 l 193 546 l 193 -28 q 160 -135 193 -100 q 56 -169 126 -169 l 14 -169 l 14 -139 z "},"ȷ":{"ha":276,"x_min":14,"x_max":193,"o":"m 14 -139 l 58 -139 q 130 -115 110 -139 q 150 -29 150 -90 l 150 515 l 33 515 l 33 546 l 193 546 l 193 -28 q 160 -135 193 -100 q 56 -169 126 -169 l 14 -169 l 14 -139 z "},"ǰ":{"ha":276,"x_min":-11,"x_max":251,"o":"m 14 -139 l 58 -139 q 130 -115 110 -139 q 150 -29 150 -90 l 150 515 l 33 515 l 33 546 l 193 546 l 193 -28 q 160 -135 193 -100 q 56 -169 126 -169 l 14 -169 l 14 -139 m -11 865 l 22 865 l 121 689 l 219 865 l 251 865 l 135 657 l 108 657 l -11 865 z "},"ĵ":{"ha":276,"x_min":-12,"x_max":254,"o":"m 14 -139 l 58 -139 q 130 -115 110 -139 q 150 -29 150 -90 l 150 515 l 33 515 l 33 546 l 193 546 l 193 -28 q 160 -135 193 -100 q 56 -169 126 -169 l 14 -169 l 14 -139 m 107 839 l 136 839 l 254 629 l 221 629 l 121 810 l 21 629 l -12 629 l 107 839 z "},"k":{"ha":664,"x_min":42,"x_max":635,"o":"m 42 31 l 143 31 l 143 765 l 47 765 l 47 796 l 183 796 l 183 288 l 479 515 l 371 515 l 371 546 l 631 546 l 631 515 l 531 515 l 232 285 l 513 31 l 635 31 l 635 0 l 493 0 l 183 285 l 183 31 l 283 31 l 283 0 l 42 0 l 42 31 z "},"ǩ":{"ha":664,"x_min":32,"x_max":635,"o":"m 42 31 l 143 31 l 143 765 l 47 765 l 47 796 l 183 796 l 183 288 l 479 515 l 371 515 l 371 546 l 631 546 l 631 515 l 531 515 l 232 285 l 513 31 l 635 31 l 635 0 l 493 0 l 183 285 l 183 31 l 283 31 l 283 0 l 42 0 l 42 31 m 32 1115 l 65 1115 l 164 939 l 263 1115 l 294 1115 l 178 907 l 151 907 l 32 1115 z "},"ķ":{"ha":664,"x_min":42,"x_max":635,"o":"m 42 31 l 143 31 l 143 765 l 47 765 l 47 796 l 183 796 l 183 288 l 479 515 l 371 515 l 371 546 l 631 546 l 631 515 l 531 515 l 232 285 l 513 31 l 635 31 l 635 0 l 493 0 l 183 285 l 183 31 l 283 31 l 283 0 l 42 0 l 42 31 m 322 -243 q 363 -215 354 -240 q 371 -137 371 -190 l 332 -137 l 332 -72 l 399 -72 l 399 -146 q 383 -231 399 -200 q 322 -260 368 -261 l 322 -243 z "},"ĸ":{"ha":642,"x_min":50,"x_max":611,"o":"m 50 31 l 144 31 l 144 515 l 54 515 l 54 546 l 185 546 l 185 31 l 278 31 l 278 0 l 50 0 l 50 31 m 201 279 l 461 515 l 360 515 l 360 546 l 607 546 l 607 515 l 511 515 l 251 278 l 496 31 l 611 31 l 611 0 l 475 0 l 201 279 z "},"l":{"ha":311,"x_min":39,"x_max":281,"o":"m 39 31 l 140 31 l 140 765 l 43 765 l 43 796 l 179 796 l 179 31 l 281 31 l 281 0 l 39 0 l 39 31 z "},"ĺ":{"ha":311,"x_min":39,"x_max":281,"o":"m 39 31 l 140 31 l 140 765 l 43 765 l 43 796 l 179 796 l 179 31 l 281 31 l 281 0 l 39 0 l 39 31 m 214 1092 l 256 1092 l 174 921 l 153 921 l 214 1092 z "},"ľ":{"ha":311,"x_min":39,"x_max":303,"o":"m 39 31 l 140 31 l 140 765 l 43 765 l 43 796 l 179 796 l 179 31 l 281 31 l 281 0 l 39 0 l 39 31 m 229 628 q 266 650 257 632 q 275 722 275 668 l 235 722 l 235 796 l 303 796 l 301 718 q 286 639 301 667 q 229 611 271 611 l 229 628 z "},"ļ":{"ha":311,"x_min":39,"x_max":281,"o":"m 39 31 l 140 31 l 140 765 l 43 765 l 43 796 l 179 796 l 179 31 l 281 31 l 281 0 l 39 0 l 39 31 m 122 -243 q 163 -215 154 -240 q 171 -137 171 -190 l 132 -137 l 132 -72 l 199 -72 l 199 -146 q 183 -231 199 -200 q 122 -260 168 -261 l 122 -243 z "},"ŀ":{"ha":311,"x_min":39,"x_max":357,"o":"m 39 31 l 140 31 l 140 765 l 43 765 l 43 796 l 179 796 l 179 31 l 281 31 l 281 0 l 39 0 l 39 31 m 318 390 q 290 401 301 390 q 279 429 279 411 q 290 458 279 447 q 318 468 301 468 q 346 458 335 468 q 357 429 357 447 q 346 401 357 411 q 318 390 335 390 z "},"ḷ":{"ha":311,"x_min":39,"x_max":281,"o":"m 39 31 l 140 31 l 140 765 l 43 765 l 43 796 l 179 796 l 179 31 l 281 31 l 281 0 l 39 0 l 39 31 m 161 -149 q 130 -137 140 -149 q 119 -111 119 -125 q 130 -83 119 -94 q 161 -72 140 -72 q 192 -83 182 -72 q 203 -111 203 -94 q 192 -137 203 -125 q 161 -149 181 -149 z "},"ǉ":{"ha":592,"x_min":39,"x_max":508,"o":"m 39 31 l 140 31 l 140 765 l 43 765 l 43 796 l 179 796 l 179 31 l 281 31 l 281 0 l 39 0 l 39 31 m 471 689 q 444 699 456 689 q 433 724 433 708 q 444 747 433 738 q 471 756 456 756 q 498 747 488 756 q 508 724 508 738 q 498 699 508 708 q 471 689 488 689 m 325 -139 l 369 -139 q 441 -115 421 -139 q 461 -29 461 -90 l 461 518 l 354 518 l 354 546 l 504 546 l 504 -28 q 471 -135 504 -100 q 367 -169 438 -169 l 325 -169 l 325 -139 z "},"ḻ":{"ha":311,"x_min":33,"x_max":289,"o":"m 39 31 l 140 31 l 140 765 l 43 765 l 43 796 l 179 796 l 179 31 l 281 31 l 281 0 l 39 0 l 39 31 m 33 -72 l 289 -72 l 289 -100 l 33 -100 l 33 -72 z "},"ł":{"ha":310,"x_min":35,"x_max":281,"o":"m 281 31 l 281 0 l 39 0 l 39 31 l 140 31 l 140 371 l 35 306 l 35 344 l 140 410 l 140 765 l 43 765 l 43 796 l 179 796 l 179 435 l 278 496 l 278 456 l 179 394 l 179 31 l 281 31 z "},"m":{"ha":1069,"x_min":25,"x_max":1065,"o":"m 1065 31 l 1065 0 l 804 0 l 804 31 l 922 31 l 922 403 q 885 494 922 461 q 788 528 849 528 q 677 508 736 528 q 563 453 618 489 q 572 389 572 425 l 572 31 l 675 31 l 675 0 l 414 0 l 414 31 l 532 31 l 532 403 q 496 494 532 461 q 399 528 460 528 q 306 510 363 528 q 185 458 249 492 l 185 31 l 301 31 l 301 0 l 25 0 l 25 31 l 144 31 l 144 515 l 26 515 l 26 546 l 185 546 l 185 489 q 301 541 242 522 q 406 560 360 560 q 495 538 458 560 q 551 479 532 517 q 676 540 621 521 q 794 560 732 560 q 916 515 871 560 q 961 392 961 469 l 961 31 l 1065 31 z "},"ṁ":{"ha":1069,"x_min":25,"x_max":1065,"o":"m 1065 31 l 1065 0 l 804 0 l 804 31 l 922 31 l 922 403 q 885 494 922 461 q 788 528 849 528 q 677 508 736 528 q 563 453 618 489 q 572 389 572 425 l 572 31 l 675 31 l 675 0 l 414 0 l 414 31 l 532 31 l 532 403 q 496 494 532 461 q 399 528 460 528 q 306 510 363 528 q 185 458 249 492 l 185 31 l 301 31 l 301 0 l 25 0 l 25 31 l 144 31 l 144 515 l 26 515 l 26 546 l 185 546 l 185 489 q 301 541 242 522 q 406 560 360 560 q 495 538 458 560 q 551 479 532 517 q 676 540 621 521 q 794 560 732 560 q 916 515 871 560 q 961 392 961 469 l 961 31 l 1065 31 m 550 671 q 519 683 529 671 q 508 708 508 694 q 519 736 508 725 q 550 747 529 747 q 581 736 571 747 q 592 708 592 725 q 581 683 592 694 q 550 671 569 671 z "},"ṃ":{"ha":1069,"x_min":25,"x_max":1065,"o":"m 1065 31 l 1065 0 l 804 0 l 804 31 l 922 31 l 922 403 q 885 494 922 461 q 788 528 849 528 q 677 508 736 528 q 563 453 618 489 q 572 389 572 425 l 572 31 l 675 31 l 675 0 l 414 0 l 414 31 l 532 31 l 532 403 q 496 494 532 461 q 399 528 460 528 q 306 510 363 528 q 185 458 249 492 l 185 31 l 301 31 l 301 0 l 25 0 l 25 31 l 144 31 l 144 515 l 26 515 l 26 546 l 185 546 l 185 489 q 301 541 242 522 q 406 560 360 560 q 495 538 458 560 q 551 479 532 517 q 676 540 621 521 q 794 560 732 560 q 916 515 871 560 q 961 392 961 469 l 961 31 l 1065 31 m 553 -149 q 522 -137 532 -149 q 511 -111 511 -125 q 522 -83 511 -94 q 553 -72 532 -72 q 584 -83 574 -72 q 594 -111 594 -94 q 583 -137 594 -125 q 553 -149 572 -149 z "},"n":{"ha":690,"x_min":25,"x_max":686,"o":"m 686 31 l 686 0 l 424 0 l 424 31 l 542 31 l 542 403 q 506 494 542 461 q 408 528 469 528 q 185 451 321 528 l 185 31 l 301 31 l 301 0 l 25 0 l 25 31 l 144 31 l 144 515 l 26 515 l 26 546 l 185 546 l 185 483 q 415 560 314 560 q 537 515 492 560 q 582 392 582 469 l 582 31 l 686 31 z "},"ń":{"ha":690,"x_min":25,"x_max":686,"o":"m 686 31 l 686 0 l 424 0 l 424 31 l 542 31 l 542 403 q 506 494 542 461 q 408 528 469 528 q 185 451 321 528 l 185 31 l 301 31 l 301 0 l 25 0 l 25 31 l 144 31 l 144 515 l 26 515 l 26 546 l 185 546 l 185 483 q 415 560 314 560 q 537 515 492 560 q 582 392 582 469 l 582 31 l 686 31 m 421 842 l 463 842 l 381 671 l 360 671 l 421 842 z "},"ŉ":{"ha":944,"x_min":139,"x_max":940,"o":"m 139 640 q 176 663 167 644 q 185 735 185 681 l 144 735 l 144 808 l 213 808 l 211 731 q 196 651 211 679 q 139 624 181 624 l 139 640 m 940 31 l 940 0 l 678 0 l 678 31 l 796 31 l 796 403 q 760 494 796 461 q 663 528 724 528 q 439 451 575 528 l 439 31 l 556 31 l 556 0 l 279 0 l 279 31 l 399 31 l 399 515 l 281 515 l 281 546 l 439 546 l 439 483 q 669 560 568 560 q 791 515 746 560 q 836 392 836 469 l 836 31 l 940 31 z "},"ň":{"ha":690,"x_min":25,"x_max":686,"o":"m 686 31 l 686 0 l 424 0 l 424 31 l 542 31 l 542 403 q 506 494 542 461 q 408 528 469 528 q 185 451 321 528 l 185 31 l 301 31 l 301 0 l 25 0 l 25 31 l 144 31 l 144 515 l 26 515 l 26 546 l 185 546 l 185 483 q 415 560 314 560 q 537 515 492 560 q 582 392 582 469 l 582 31 l 686 31 m 235 865 l 268 865 l 367 689 l 465 865 l 497 865 l 381 657 l 354 657 l 235 865 z "},"ņ":{"ha":690,"x_min":25,"x_max":686,"o":"m 686 31 l 686 0 l 424 0 l 424 31 l 542 31 l 542 403 q 506 494 542 461 q 408 528 469 528 q 185 451 321 528 l 185 31 l 301 31 l 301 0 l 25 0 l 25 31 l 144 31 l 144 515 l 26 515 l 26 546 l 185 546 l 185 483 q 415 560 314 560 q 537 515 492 560 q 582 392 582 469 l 582 31 l 686 31 m 333 -243 q 374 -215 365 -240 q 382 -137 382 -190 l 343 -137 l 343 -72 l 410 -72 l 410 -146 q 394 -231 410 -200 q 333 -260 379 -261 l 333 -243 z "},"ṅ":{"ha":690,"x_min":25,"x_max":686,"o":"m 686 31 l 686 0 l 424 0 l 424 31 l 542 31 l 542 403 q 506 494 542 461 q 408 528 469 528 q 185 451 321 528 l 185 31 l 301 31 l 301 0 l 25 0 l 25 31 l 144 31 l 144 515 l 26 515 l 26 546 l 185 546 l 185 483 q 415 560 314 560 q 537 515 492 560 q 582 392 582 469 l 582 31 l 686 31 m 367 671 q 335 683 346 671 q 325 708 325 694 q 335 736 325 725 q 367 747 346 747 q 398 736 388 747 q 408 708 408 725 q 397 683 408 694 q 367 671 386 671 z "},"ṇ":{"ha":690,"x_min":25,"x_max":686,"o":"m 686 31 l 686 0 l 424 0 l 424 31 l 542 31 l 542 403 q 506 494 542 461 q 408 528 469 528 q 185 451 321 528 l 185 31 l 301 31 l 301 0 l 25 0 l 25 31 l 144 31 l 144 515 l 26 515 l 26 546 l 185 546 l 185 483 q 415 560 314 560 q 537 515 492 560 q 582 392 582 469 l 582 31 l 686 31 m 372 -149 q 341 -137 351 -149 q 331 -111 331 -125 q 341 -83 331 -94 q 372 -72 351 -72 q 403 -83 393 -72 q 414 -111 414 -94 q 403 -137 414 -125 q 372 -149 392 -149 z "},"ǹ":{"ha":690,"x_min":25,"x_max":686,"o":"m 686 31 l 686 0 l 424 0 l 424 31 l 542 31 l 542 403 q 506 494 542 461 q 408 528 469 528 q 185 451 321 528 l 185 31 l 301 31 l 301 0 l 25 0 l 25 31 l 144 31 l 144 515 l 26 515 l 26 546 l 185 546 l 185 483 q 415 560 314 560 q 537 515 492 560 q 582 392 582 469 l 582 31 l 686 31 m 271 842 l 313 842 l 374 671 l 351 671 l 271 842 z "},"ŋ":{"ha":690,"x_min":25,"x_max":582,"o":"m 326 -218 q 488 -165 435 -218 q 542 -17 542 -112 l 542 403 q 506 494 542 461 q 408 528 469 528 q 313 508 372 528 q 185 454 253 489 l 185 31 l 301 31 l 301 0 l 25 0 l 25 31 l 144 31 l 144 515 l 26 515 l 26 546 l 185 546 l 185 483 q 308 540 247 519 q 415 560 369 560 q 537 515 492 560 q 582 392 582 469 l 582 -7 q 515 -189 582 -129 q 325 -249 447 -249 l 326 -218 z "},"ǌ":{"ha":971,"x_min":25,"x_max":888,"o":"m 686 31 l 686 0 l 424 0 l 424 31 l 542 31 l 542 403 q 506 494 542 461 q 408 528 469 528 q 185 451 321 528 l 185 31 l 301 31 l 301 0 l 25 0 l 25 31 l 144 31 l 144 515 l 26 515 l 26 546 l 185 546 l 185 483 q 415 560 314 560 q 537 515 492 560 q 582 392 582 469 l 582 31 l 686 31 m 850 689 q 824 699 835 689 q 813 724 813 708 q 824 747 813 738 q 850 756 835 756 q 877 747 867 756 q 888 724 888 738 q 877 699 888 708 q 850 689 867 689 m 704 -139 l 749 -139 q 820 -115 800 -139 q 840 -29 840 -90 l 840 518 l 733 518 l 733 546 l 883 546 l 883 -28 q 850 -135 883 -100 q 746 -169 817 -169 l 704 -169 l 704 -139 z "},"ṉ":{"ha":690,"x_min":25,"x_max":686,"o":"m 686 31 l 686 0 l 424 0 l 424 31 l 542 31 l 542 403 q 506 494 542 461 q 408 528 469 528 q 185 451 321 528 l 185 31 l 301 31 l 301 0 l 25 0 l 25 31 l 144 31 l 144 515 l 26 515 l 26 546 l 185 546 l 185 483 q 415 560 314 560 q 537 515 492 560 q 582 392 582 469 l 582 31 l 686 31 m 244 -72 l 500 -72 l 500 -100 l 244 -100 l 244 -72 z "}}}
